<ttFont>
    <TTGlyph name=".notdef#1" xMin="36" yMin="409" xMax="491" yMax="465">
      <contour>
        <pt x="50" y="447" on="1"/>
        <pt x="73" y="451" on="0"/>
        <pt x="134" y="455" on="0"/>
        <pt x="198" y="459" on="0"/>
        <pt x="258" y="462" on="0"/>
        <pt x="281" y="463" on="1"/>
        <pt x="283" y="463" on="0"/>
        <pt x="308" y="464" on="0"/>
        <pt x="339" y="465" on="0"/>
        <pt x="355" y="465" on="1"/>
        <pt x="400" y="465" on="1"/>
        <pt x="414" y="465" on="0"/>
        <pt x="445" y="464" on="0"/>
        <pt x="472" y="463" on="0"/>
        <pt x="478" y="463" on="1"/>
        <pt x="482" y="462" on="0"/>
        <pt x="491" y="445" on="0"/>
        <pt x="490" y="440" on="1"/>
        <pt x="490" y="436" on="0"/>
        <pt x="472" y="418" on="0"/>
        <pt x="467" y="418" on="1"/>
        <pt x="455" y="418" on="0"/>
        <pt x="407" y="419" on="0"/>
        <pt x="375" y="419" on="1"/>
        <pt x="245" y="419" on="1"/>
        <pt x="214" y="419" on="0"/>
        <pt x="166" y="418" on="0"/>
        <pt x="154" y="418" on="1"/>
        <pt x="134" y="416" on="0"/>
        <pt x="94" y="414" on="0"/>
        <pt x="74" y="412" on="1"/>
        <pt x="72" y="412" on="0"/>
        <pt x="61" y="411" on="0"/>
        <pt x="49" y="410" on="0"/>
        <pt x="38" y="409" on="0"/>
        <pt x="36" y="409" on="1"/>
        <pt x="36" y="418" on="0"/>
        <pt x="40" y="444" on="0"/>
      </contour>
    </TTGlyph>
    <TTGlyph name="A" xMin="4" yMin="-47" xMax="506" yMax="777">
      <contour>
        <pt x="24" y="-47" on="1"/>
        <pt x="15" y="-47" on="0"/>
        <pt x="7" y="-37" on="0"/>
        <pt x="4" y="-22" on="0"/>
        <pt x="6" y="-5" on="0"/>
        <pt x="6" y="0" on="1"/>
        <pt x="181" y="742" on="1"/>
        <pt x="183" y="751" on="0"/>
        <pt x="196" y="772" on="0"/>
        <pt x="203" y="777" on="1"/>
        <pt x="206" y="768" on="0"/>
        <pt x="218" y="749" on="0"/>
        <pt x="227" y="742" on="1"/>
        <pt x="505" y="105" on="1"/>
        <pt x="506" y="104" on="0"/>
        <pt x="506" y="100" on="1"/>
        <pt x="506" y="94" on="1"/>
        <pt x="506" y="84" on="0"/>
        <pt x="498" y="69" on="0"/>
        <pt x="488" y="69" on="1"/>
        <pt x="475" y="69" on="0"/>
        <pt x="470" y="81" on="1"/>
        <pt x="400" y="243" on="1"/>
        <pt x="400" y="244" on="0"/>
        <pt x="375" y="247" on="0"/>
        <pt x="368" y="247" on="1"/>
        <pt x="364" y="247" on="0"/>
        <pt x="349" y="246" on="0"/>
        <pt x="333" y="245" on="0"/>
        <pt x="320" y="243" on="0"/>
        <pt x="319" y="243" on="1"/>
        <pt x="296" y="239" on="0"/>
        <pt x="223" y="226" on="0"/>
        <pt x="153" y="211" on="0"/>
        <pt x="102" y="199" on="0"/>
        <pt x="100" y="197" on="1"/>
        <pt x="41" y="-34" on="1"/>
        <pt x="40" y="-41" on="0"/>
        <pt x="30" y="-47" on="0"/>
      </contour>
      <contour>
        <pt x="203" y="673" on="1"/>
        <pt x="202" y="670" on="0"/>
        <pt x="199" y="661" on="0"/>
        <pt x="195" y="650" on="0"/>
        <pt x="193" y="640" on="0"/>
        <pt x="192" y="638" on="1"/>
        <pt x="185" y="612" on="0"/>
        <pt x="177" y="575" on="1"/>
        <pt x="142" y="418" on="1"/>
        <pt x="133" y="377" on="0"/>
        <pt x="120" y="309" on="0"/>
        <pt x="111" y="259" on="0"/>
        <pt x="111" y="252" on="1"/>
        <pt x="125" y="252" on="0"/>
        <pt x="175" y="256" on="0"/>
        <pt x="232" y="265" on="0"/>
        <pt x="291" y="275" on="0"/>
        <pt x="338" y="289" on="0"/>
        <pt x="368" y="304" on="0"/>
        <pt x="368" y="312" on="1"/>
        <pt x="368" y="314" on="0"/>
        <pt x="367" y="323" on="0"/>
        <pt x="366" y="325" on="1"/>
      </contour>
    </TTGlyph>
    <TTGlyph name="AE" xMin="24" yMin="-32" xMax="807" yMax="734">
      <contour>
        <pt x="34" y="17" on="1"/>
        <pt x="26" y="21" on="0"/>
        <pt x="24" y="34" on="0"/>
        <pt x="28" y="48" on="0"/>
        <pt x="36" y="62" on="0"/>
        <pt x="39" y="67" on="1"/>
        <pt x="425" y="714" on="1"/>
        <pt x="435" y="727" on="0"/>
        <pt x="450" y="734" on="0"/>
        <pt x="461" y="726" on="0"/>
        <pt x="467" y="706" on="0"/>
        <pt x="467" y="694" on="1"/>
        <pt x="464" y="596" on="1"/>
        <pt x="481" y="598" on="0"/>
        <pt x="529" y="611" on="0"/>
        <pt x="579" y="626" on="0"/>
        <pt x="626" y="640" on="0"/>
        <pt x="645" y="643" on="1"/>
        <pt x="652" y="643" on="1"/>
        <pt x="664" y="643" on="0"/>
        <pt x="682" y="632" on="0"/>
        <pt x="682" y="619" on="1"/>
        <pt x="682" y="617" on="0"/>
        <pt x="681" y="610" on="0"/>
        <pt x="680" y="608" on="1"/>
        <pt x="657" y="607" on="0"/>
        <pt x="598" y="599" on="0"/>
        <pt x="538" y="586" on="0"/>
        <pt x="482" y="562" on="0"/>
        <pt x="463" y="544" on="1"/>
        <pt x="457" y="290" on="1"/>
        <pt x="460" y="283" on="1"/>
        <pt x="715" y="388" on="1"/>
        <pt x="736" y="386" on="0"/>
        <pt x="751" y="380" on="0"/>
        <pt x="749" y="370" on="0"/>
        <pt x="734" y="359" on="0"/>
        <pt x="726" y="353" on="1"/>
        <pt x="712" y="346" on="0"/>
        <pt x="640" y="314" on="0"/>
        <pt x="558" y="277" on="0"/>
        <pt x="486" y="244" on="0"/>
        <pt x="472" y="237" on="1"/>
        <pt x="465" y="236" on="0"/>
        <pt x="460" y="225" on="0"/>
        <pt x="458" y="212" on="0"/>
        <pt x="459" y="201" on="0"/>
        <pt x="459" y="198" on="1"/>
        <pt x="459" y="180" on="0"/>
        <pt x="468" y="138" on="0"/>
        <pt x="473" y="88" on="0"/>
        <pt x="467" y="31" on="0"/>
        <pt x="451" y="-1" on="1"/>
        <pt x="452" y="-2" on="0"/>
        <pt x="448" y="-10" on="0"/>
        <pt x="447" y="-11" on="1"/>
        <pt x="443" y="-21" on="0"/>
        <pt x="429" y="-32" on="0"/>
        <pt x="420" y="-27" on="1"/>
        <pt x="409" y="-22" on="0"/>
        <pt x="409" y="-8" on="1"/>
        <pt x="408" y="194" on="1"/>
        <pt x="408" y="193" on="0"/>
        <pt x="378" y="199" on="0"/>
        <pt x="332" y="205" on="0"/>
        <pt x="277" y="212" on="0"/>
        <pt x="228" y="215" on="0"/>
        <pt x="190" y="211" on="0"/>
        <pt x="184" y="205" on="1"/>
        <pt x="56" y="22" on="1"/>
        <pt x="51" y="15" on="0"/>
        <pt x="40" y="15" on="0"/>
      </contour>
      <contour>
        <pt x="417" y="641" on="1"/>
        <pt x="395" y="607" on="0"/>
        <pt x="353" y="526" on="0"/>
        <pt x="313" y="446" on="0"/>
        <pt x="277" y="371" on="0"/>
        <pt x="249" y="310" on="0"/>
        <pt x="229" y="269" on="0"/>
        <pt x="225" y="264" on="1"/>
        <pt x="245" y="255" on="0"/>
        <pt x="310" y="245" on="0"/>
        <pt x="373" y="242" on="0"/>
        <pt x="418" y="249" on="0"/>
        <pt x="418" y="257" on="1"/>
        <pt x="418" y="276" on="1"/>
        <pt x="414" y="362" on="0"/>
        <pt x="410" y="481" on="0"/>
        <pt x="409" y="558" on="0"/>
        <pt x="411" y="601" on="0"/>
        <pt x="413" y="625" on="0"/>
        <pt x="416" y="635" on="0"/>
      </contour>
      <contour>
        <pt x="807" y="98" on="1"/>
        <pt x="798" y="95" on="0"/>
        <pt x="760" y="85" on="0"/>
        <pt x="713" y="71" on="0"/>
        <pt x="660" y="56" on="0"/>
        <pt x="612" y="42" on="0"/>
        <pt x="573" y="31" on="0"/>
        <pt x="564" y="29" on="1"/>
        <pt x="541" y="22" on="0"/>
        <pt x="530" y="16" on="1"/>
        <pt x="512" y="7" on="1"/>
        <pt x="505" y="4" on="0"/>
        <pt x="485" y="1" on="0"/>
        <pt x="463" y="1" on="1"/>
        <pt x="463" y="25" on="0"/>
        <pt x="473" y="46" on="0"/>
        <pt x="495" y="51" on="1"/>
        <pt x="794" y="135" on="1"/>
      </contour>
    </TTGlyph>
    <TTGlyph name="AEacute" xMin="24" yMin="-32" xMax="807" yMax="981">
      <component glyphName="AE" x="0" y="0" flags="0x204"/>
      <component glyphName="acute" x="301" y="184" flags="0x4"/>
    </TTGlyph>
    <TTGlyph name="Aacute" xMin="4" yMin="-47" xMax="506" yMax="991">
      <component glyphName="A" x="0" y="0" flags="0x204"/>
      <component glyphName="acute" x="71" y="194" flags="0x4"/>
    </TTGlyph>
    <TTGlyph name="Abreve" xMin="4" yMin="-47" xMax="506" yMax="956">
      <component glyphName="A" x="0" y="0" flags="0x204"/>
      <component glyphName="breve" x="6" y="234" flags="0x4"/>
    </TTGlyph>
    <TTGlyph name="Acircumflex" xMin="4" yMin="-47" xMax="506" yMax="1146">
      <component glyphName="A" x="0" y="0" flags="0x204"/>
      <component glyphName="circumflex" x="46" y="184" flags="0x4"/>
    </TTGlyph>
    <TTGlyph name="Adieresis" xMin="4" yMin="-47" xMax="506" yMax="925">
      <component glyphName="A" x="0" y="0" flags="0x204"/>
      <component glyphName="dieresis" x="44" y="229" flags="0x4"/>
    </TTGlyph>
    <TTGlyph name="Agrave" xMin="4" yMin="-47" xMax="506" yMax="981">
      <component glyphName="A" x="0" y="0" flags="0x204"/>
      <component glyphName="grave" x="179" y="184" flags="0x4"/>
    </TTGlyph>
    <TTGlyph name="Amacron" xMin="4" yMin="-47" xMax="506" yMax="858">
      <component glyphName="A" x="0" y="0" flags="0x204"/>
      <component glyphName="macron" x="49" y="184" flags="0x4"/>
    </TTGlyph>
    <TTGlyph name="Aogonek" xMin="4" yMin="-98" xMax="511" yMax="777">
      <contour>
        <pt x="417" y="-5" on="1"/>
        <pt x="417" y="-19" on="0"/>
        <pt x="430" y="-42" on="0"/>
        <pt x="447" y="-65" on="0"/>
        <pt x="461" y="-86" on="0"/>
        <pt x="461" y="-98" on="1"/>
        <pt x="429" y="-98" on="0"/>
        <pt x="391" y="-76" on="0"/>
        <pt x="372" y="-44" on="0"/>
        <pt x="365" y="-11" on="0"/>
        <pt x="365" y="1" on="1"/>
        <pt x="365" y="13" on="0"/>
        <pt x="373" y="46" on="0"/>
        <pt x="394" y="75" on="0"/>
        <pt x="433" y="95" on="0"/>
        <pt x="463" y="95" on="1"/>
        <pt x="400" y="243" on="1"/>
        <pt x="400" y="244" on="0"/>
        <pt x="375" y="247" on="0"/>
        <pt x="368" y="247" on="1"/>
        <pt x="364" y="247" on="0"/>
        <pt x="349" y="246" on="0"/>
        <pt x="333" y="245" on="0"/>
        <pt x="320" y="243" on="0"/>
        <pt x="319" y="243" on="1"/>
        <pt x="296" y="239" on="0"/>
        <pt x="223" y="226" on="0"/>
        <pt x="153" y="211" on="0"/>
        <pt x="102" y="199" on="0"/>
        <pt x="100" y="197" on="1"/>
        <pt x="41" y="-34" on="1"/>
        <pt x="40" y="-41" on="0"/>
        <pt x="30" y="-47" on="0"/>
        <pt x="24" y="-47" on="1"/>
        <pt x="15" y="-47" on="0"/>
        <pt x="7" y="-37" on="0"/>
        <pt x="4" y="-22" on="0"/>
        <pt x="6" y="-5" on="0"/>
        <pt x="6" y="0" on="1"/>
        <pt x="181" y="742" on="1"/>
        <pt x="183" y="751" on="0"/>
        <pt x="196" y="772" on="0"/>
        <pt x="203" y="777" on="1"/>
        <pt x="206" y="768" on="0"/>
        <pt x="218" y="749" on="0"/>
        <pt x="227" y="742" on="1"/>
        <pt x="505" y="105" on="1"/>
        <pt x="506" y="104" on="0"/>
        <pt x="506" y="100" on="1"/>
        <pt x="506" y="91" on="1"/>
        <pt x="511" y="87" on="0"/>
        <pt x="511" y="79" on="1"/>
        <pt x="511" y="68" on="0"/>
        <pt x="481" y="65" on="0"/>
        <pt x="446" y="55" on="0"/>
        <pt x="417" y="28" on="0"/>
      </contour>
      <contour>
        <pt x="203" y="673" on="1"/>
        <pt x="202" y="670" on="0"/>
        <pt x="199" y="661" on="0"/>
        <pt x="195" y="650" on="0"/>
        <pt x="193" y="640" on="0"/>
        <pt x="192" y="638" on="1"/>
        <pt x="185" y="612" on="0"/>
        <pt x="177" y="575" on="1"/>
        <pt x="142" y="418" on="1"/>
        <pt x="133" y="377" on="0"/>
        <pt x="120" y="309" on="0"/>
        <pt x="111" y="259" on="0"/>
        <pt x="111" y="252" on="1"/>
        <pt x="125" y="252" on="0"/>
        <pt x="175" y="256" on="0"/>
        <pt x="232" y="265" on="0"/>
        <pt x="291" y="275" on="0"/>
        <pt x="338" y="289" on="0"/>
        <pt x="368" y="304" on="0"/>
        <pt x="368" y="312" on="1"/>
        <pt x="368" y="314" on="0"/>
        <pt x="367" y="323" on="0"/>
        <pt x="366" y="325" on="1"/>
      </contour>
    </TTGlyph>
    <TTGlyph name="Aring" xMin="4" yMin="-47" xMax="506" yMax="984">
      <contour>
        <pt x="112" y="831" on="1"/>
        <pt x="112" y="844" on="0"/>
        <pt x="114" y="895" on="0"/>
        <pt x="131" y="946" on="0"/>
        <pt x="171" y="984" on="0"/>
        <pt x="208" y="984" on="1"/>
        <pt x="241" y="984" on="0"/>
        <pt x="282" y="961" on="0"/>
        <pt x="304" y="928" on="0"/>
        <pt x="311" y="889" on="0"/>
        <pt x="311" y="874" on="1"/>
        <pt x="311" y="857" on="0"/>
        <pt x="301" y="816" on="0"/>
        <pt x="274" y="781" on="0"/>
        <pt x="252" y="769" on="1"/>
        <pt x="235" y="760" on="0"/>
        <pt x="211" y="758" on="1"/>
        <pt x="218" y="749" on="0"/>
        <pt x="227" y="742" on="1"/>
        <pt x="505" y="105" on="1"/>
        <pt x="506" y="104" on="0"/>
        <pt x="506" y="100" on="1"/>
        <pt x="506" y="94" on="1"/>
        <pt x="506" y="84" on="0"/>
        <pt x="498" y="69" on="0"/>
        <pt x="488" y="69" on="1"/>
        <pt x="475" y="69" on="0"/>
        <pt x="470" y="81" on="1"/>
        <pt x="400" y="243" on="1"/>
        <pt x="400" y="244" on="0"/>
        <pt x="375" y="247" on="0"/>
        <pt x="368" y="247" on="1"/>
        <pt x="364" y="247" on="0"/>
        <pt x="349" y="246" on="0"/>
        <pt x="333" y="245" on="0"/>
        <pt x="320" y="243" on="0"/>
        <pt x="319" y="243" on="1"/>
        <pt x="296" y="239" on="0"/>
        <pt x="223" y="226" on="0"/>
        <pt x="153" y="211" on="0"/>
        <pt x="102" y="199" on="0"/>
        <pt x="100" y="197" on="1"/>
        <pt x="41" y="-34" on="1"/>
        <pt x="40" y="-41" on="0"/>
        <pt x="30" y="-47" on="0"/>
        <pt x="24" y="-47" on="1"/>
        <pt x="15" y="-47" on="0"/>
        <pt x="7" y="-37" on="0"/>
        <pt x="4" y="-22" on="0"/>
        <pt x="6" y="-5" on="0"/>
        <pt x="6" y="0" on="1"/>
        <pt x="181" y="742" on="1"/>
        <pt x="182" y="749" on="0"/>
        <pt x="187" y="758" on="1"/>
        <pt x="171" y="759" on="0"/>
        <pt x="158" y="765" on="1"/>
        <pt x="142" y="772" on="0"/>
        <pt x="121" y="795" on="0"/>
        <pt x="112" y="820" on="0"/>
      </contour>
      <contour>
        <pt x="203" y="673" on="1"/>
        <pt x="202" y="670" on="0"/>
        <pt x="199" y="661" on="0"/>
        <pt x="195" y="650" on="0"/>
        <pt x="193" y="640" on="0"/>
        <pt x="192" y="638" on="1"/>
        <pt x="185" y="612" on="0"/>
        <pt x="177" y="575" on="1"/>
        <pt x="142" y="418" on="1"/>
        <pt x="133" y="377" on="0"/>
        <pt x="120" y="309" on="0"/>
        <pt x="111" y="259" on="0"/>
        <pt x="111" y="252" on="1"/>
        <pt x="125" y="252" on="0"/>
        <pt x="175" y="256" on="0"/>
        <pt x="232" y="265" on="0"/>
        <pt x="291" y="275" on="0"/>
        <pt x="338" y="289" on="0"/>
        <pt x="368" y="304" on="0"/>
        <pt x="368" y="312" on="1"/>
        <pt x="368" y="314" on="0"/>
        <pt x="367" y="323" on="0"/>
        <pt x="366" y="325" on="1"/>
      </contour>
      <contour>
        <pt x="135" y="836" on="1"/>
        <pt x="152" y="798" on="0"/>
        <pt x="204" y="781" on="0"/>
        <pt x="253" y="803" on="0"/>
        <pt x="289" y="850" on="0"/>
        <pt x="293" y="904" on="0"/>
        <pt x="257" y="949" on="0"/>
        <pt x="209" y="958" on="1"/>
        <pt x="183" y="958" on="0"/>
        <pt x="153" y="926" on="0"/>
        <pt x="139" y="884" on="0"/>
        <pt x="135" y="843" on="0"/>
      </contour>
    </TTGlyph>
    <TTGlyph name="Atilde" xMin="4" yMin="-47" xMax="506" yMax="999">
      <component glyphName="A" x="0" y="0" flags="0x204"/>
      <component glyphName="tilde" x="-22" y="310" flags="0x4"/>
    </TTGlyph>
    <TTGlyph name="B" xMin="22" yMin="-1" xMax="500" yMax="755">
      <contour>
        <pt x="195" y="50" on="1"/>
        <pt x="195" y="59" on="0"/>
        <pt x="198" y="78" on="0"/>
        <pt x="208" y="81" on="1"/>
        <pt x="212" y="72" on="0"/>
        <pt x="223" y="51" on="0"/>
        <pt x="231" y="46" on="1"/>
        <pt x="239" y="46" on="1"/>
        <pt x="246" y="46" on="0"/>
        <pt x="258" y="45" on="0"/>
        <pt x="264" y="45" on="1"/>
        <pt x="272" y="45" on="1"/>
        <pt x="306" y="45" on="0"/>
        <pt x="375" y="68" on="0"/>
        <pt x="430" y="112" on="0"/>
        <pt x="464" y="172" on="0"/>
        <pt x="464" y="210" on="1"/>
        <pt x="464" y="248" on="0"/>
        <pt x="425" y="305" on="0"/>
        <pt x="364" y="342" on="0"/>
        <pt x="292" y="360" on="0"/>
        <pt x="260" y="360" on="1"/>
        <pt x="256" y="360" on="0"/>
        <pt x="225" y="358" on="0"/>
        <pt x="190" y="353" on="0"/>
        <pt x="162" y="344" on="0"/>
        <pt x="162" y="337" on="1"/>
        <pt x="162" y="139" on="1"/>
        <pt x="162" y="132" on="0"/>
        <pt x="149" y="127" on="0"/>
        <pt x="145" y="127" on="1"/>
        <pt x="138" y="127" on="0"/>
        <pt x="126" y="154" on="0"/>
        <pt x="118" y="195" on="0"/>
        <pt x="112" y="245" on="0"/>
        <pt x="107" y="292" on="0"/>
        <pt x="105" y="328" on="0"/>
        <pt x="104" y="337" on="1"/>
        <pt x="104" y="440" on="1"/>
        <pt x="103" y="452" on="0"/>
        <pt x="97" y="511" on="0"/>
        <pt x="90" y="578" on="0"/>
        <pt x="83" y="637" on="0"/>
        <pt x="81" y="649" on="1"/>
        <pt x="84" y="667" on="0"/>
        <pt x="67" y="673" on="0"/>
        <pt x="43" y="672" on="0"/>
        <pt x="22" y="675" on="0"/>
        <pt x="22" y="690" on="1"/>
        <pt x="22" y="693" on="1"/>
        <pt x="22" y="694" on="0"/>
        <pt x="23" y="696" on="1"/>
        <pt x="81" y="754" on="1"/>
        <pt x="87" y="754" on="1"/>
        <pt x="94" y="754" on="0"/>
        <pt x="112" y="755" on="0"/>
        <pt x="121" y="755" on="1"/>
        <pt x="137" y="755" on="1"/>
        <pt x="167" y="755" on="0"/>
        <pt x="249" y="751" on="0"/>
        <pt x="321" y="730" on="0"/>
        <pt x="372" y="682" on="0"/>
        <pt x="372" y="638" on="1"/>
        <pt x="372" y="604" on="0"/>
        <pt x="343" y="540" on="0"/>
        <pt x="301" y="481" on="0"/>
        <pt x="252" y="427" on="0"/>
        <pt x="231" y="406" on="1"/>
        <pt x="277" y="401" on="0"/>
        <pt x="373" y="382" on="0"/>
        <pt x="451" y="337" on="0"/>
        <pt x="500" y="265" on="0"/>
        <pt x="500" y="208" on="1"/>
        <pt x="500" y="163" on="0"/>
        <pt x="455" y="86" on="0"/>
        <pt x="385" y="31" on="0"/>
        <pt x="298" y="-1" on="0"/>
        <pt x="255" y="-1" on="1"/>
        <pt x="244" y="-1" on="0"/>
        <pt x="223" y="7" on="0"/>
        <pt x="206" y="22" on="0"/>
        <pt x="195" y="40" on="0"/>
      </contour>
      <contour>
        <pt x="150" y="406" on="1"/>
        <pt x="180" y="416" on="0"/>
        <pt x="245" y="466" on="0"/>
        <pt x="301" y="531" on="0"/>
        <pt x="337" y="605" on="0"/>
        <pt x="337" y="638" on="1"/>
        <pt x="337" y="666" on="0"/>
        <pt x="298" y="695" on="0"/>
        <pt x="247" y="707" on="0"/>
        <pt x="193" y="708" on="0"/>
        <pt x="178" y="708" on="1"/>
        <pt x="164" y="708" on="1"/>
        <pt x="156" y="708" on="0"/>
        <pt x="139" y="707" on="0"/>
        <pt x="128" y="706" on="0"/>
        <pt x="127" y="706" on="1"/>
        <pt x="116" y="684" on="1"/>
      </contour>
    </TTGlyph>
    <TTGlyph name="C" xMin="16" yMin="-1" xMax="414" yMax="630">
      <contour>
        <pt x="16" y="250" on="1"/>
        <pt x="16" y="269" on="0"/>
        <pt x="22" y="341" on="0"/>
        <pt x="36" y="426" on="0"/>
        <pt x="59" y="513" on="0"/>
        <pt x="94" y="584" on="0"/>
        <pt x="143" y="630" on="0"/>
        <pt x="175" y="630" on="1"/>
        <pt x="175" y="615" on="0"/>
        <pt x="164" y="595" on="0"/>
        <pt x="148" y="577" on="0"/>
        <pt x="130" y="558" on="0"/>
        <pt x="121" y="544" on="1"/>
        <pt x="103" y="512" on="0"/>
        <pt x="76" y="437" on="0"/>
        <pt x="58" y="360" on="0"/>
        <pt x="51" y="281" on="0"/>
        <pt x="51" y="243" on="1"/>
        <pt x="51" y="217" on="0"/>
        <pt x="56" y="158" on="0"/>
        <pt x="72" y="103" on="0"/>
        <pt x="104" y="58" on="0"/>
        <pt x="133" y="46" on="1"/>
        <pt x="146" y="46" on="1"/>
        <pt x="155" y="46" on="0"/>
        <pt x="175" y="45" on="0"/>
        <pt x="184" y="45" on="1"/>
        <pt x="197" y="45" on="1"/>
        <pt x="209" y="45" on="0"/>
        <pt x="265" y="49" on="0"/>
        <pt x="322" y="62" on="0"/>
        <pt x="366" y="87" on="0"/>
        <pt x="366" y="110" on="1"/>
        <pt x="366" y="122" on="0"/>
        <pt x="352" y="143" on="0"/>
        <pt x="352" y="157" on="1"/>
        <pt x="362" y="157" on="0"/>
        <pt x="384" y="148" on="0"/>
        <pt x="402" y="134" on="0"/>
        <pt x="414" y="115" on="0"/>
        <pt x="414" y="104" on="1"/>
        <pt x="414" y="86" on="0"/>
        <pt x="387" y="56" on="0"/>
        <pt x="344" y="32" on="0"/>
        <pt x="291" y="15" on="0"/>
        <pt x="238" y="4" on="0"/>
        <pt x="193" y="-1" on="0"/>
        <pt x="179" y="-1" on="1"/>
        <pt x="128" y="-1" on="0"/>
        <pt x="64" y="47" on="0"/>
        <pt x="29" y="121" on="0"/>
        <pt x="16" y="209" on="0"/>
      </contour>
    </TTGlyph>
    <TTGlyph name="Cacute" xMin="16" yMin="-1" xMax="414" yMax="885">
      <component glyphName="C" x="0" y="0" flags="0x204"/>
      <component glyphName="acute" x="52" y="88" flags="0x4"/>
    </TTGlyph>
    <TTGlyph name="Ccaron" xMin="16" yMin="-1" xMax="414" yMax="873">
      <component glyphName="C" x="0" y="0" flags="0x204"/>
      <component glyphName="caron" x="-30" y="94" flags="0x4"/>
    </TTGlyph>
    <TTGlyph name="Ccedilla" xMin="16" yMin="-303" xMax="414" yMax="630">
      <contour>
        <pt x="173" y="-275" on="1"/>
        <pt x="173" y="-266" on="0"/>
        <pt x="175" y="-251" on="0"/>
        <pt x="179" y="-246" on="0"/>
        <pt x="186" y="-250" on="0"/>
        <pt x="191" y="-261" on="1"/>
        <pt x="204" y="-261" on="0"/>
        <pt x="243" y="-254" on="0"/>
        <pt x="280" y="-234" on="0"/>
        <pt x="306" y="-196" on="0"/>
        <pt x="306" y="-166" on="1"/>
        <pt x="306" y="-144" on="0"/>
        <pt x="283" y="-125" on="0"/>
        <pt x="248" y="-113" on="0"/>
        <pt x="207" y="-104" on="0"/>
        <pt x="173" y="-82" on="0"/>
        <pt x="149" y="-41" on="0"/>
        <pt x="149" y="-3" on="1"/>
        <pt x="149" y="0" on="0"/>
        <pt x="148" y="1" on="1"/>
        <pt x="118" y="6" on="0"/>
        <pt x="95" y="22" on="1"/>
        <pt x="64" y="47" on="0"/>
        <pt x="29" y="121" on="0"/>
        <pt x="16" y="209" on="0"/>
        <pt x="16" y="250" on="1"/>
        <pt x="16" y="269" on="0"/>
        <pt x="22" y="341" on="0"/>
        <pt x="36" y="426" on="0"/>
        <pt x="59" y="513" on="0"/>
        <pt x="94" y="584" on="0"/>
        <pt x="143" y="630" on="0"/>
        <pt x="175" y="630" on="1"/>
        <pt x="175" y="615" on="0"/>
        <pt x="164" y="595" on="0"/>
        <pt x="148" y="577" on="0"/>
        <pt x="130" y="558" on="0"/>
        <pt x="121" y="544" on="1"/>
        <pt x="103" y="512" on="0"/>
        <pt x="76" y="437" on="0"/>
        <pt x="58" y="360" on="0"/>
        <pt x="51" y="281" on="0"/>
        <pt x="51" y="243" on="1"/>
        <pt x="51" y="217" on="0"/>
        <pt x="56" y="158" on="0"/>
        <pt x="72" y="103" on="0"/>
        <pt x="104" y="58" on="0"/>
        <pt x="133" y="46" on="1"/>
        <pt x="146" y="46" on="1"/>
        <pt x="155" y="46" on="0"/>
        <pt x="175" y="45" on="0"/>
        <pt x="184" y="45" on="1"/>
        <pt x="197" y="45" on="1"/>
        <pt x="209" y="45" on="0"/>
        <pt x="265" y="49" on="0"/>
        <pt x="322" y="62" on="0"/>
        <pt x="366" y="87" on="0"/>
        <pt x="366" y="110" on="1"/>
        <pt x="366" y="122" on="0"/>
        <pt x="352" y="143" on="0"/>
        <pt x="352" y="157" on="1"/>
        <pt x="362" y="157" on="0"/>
        <pt x="384" y="148" on="0"/>
        <pt x="402" y="134" on="0"/>
        <pt x="414" y="115" on="0"/>
        <pt x="414" y="104" on="1"/>
        <pt x="414" y="86" on="0"/>
        <pt x="387" y="56" on="0"/>
        <pt x="344" y="32" on="0"/>
        <pt x="291" y="15" on="0"/>
        <pt x="238" y="4" on="0"/>
        <pt x="193" y="-1" on="0"/>
        <pt x="179" y="-1" on="1"/>
        <pt x="168" y="-1" on="1"/>
        <pt x="166" y="-5" on="1"/>
        <pt x="166" y="-29" on="0"/>
        <pt x="182" y="-50" on="0"/>
        <pt x="195" y="-57" on="1"/>
        <pt x="202" y="-60" on="0"/>
        <pt x="232" y="-75" on="0"/>
        <pt x="265" y="-89" on="0"/>
        <pt x="295" y="-103" on="0"/>
        <pt x="301" y="-104" on="1"/>
        <pt x="313" y="-116" on="0"/>
        <pt x="330" y="-143" on="0"/>
        <pt x="330" y="-167" on="1"/>
        <pt x="330" y="-201" on="0"/>
        <pt x="299" y="-252" on="0"/>
        <pt x="254" y="-286" on="0"/>
        <pt x="206" y="-303" on="0"/>
        <pt x="189" y="-303" on="1"/>
        <pt x="178" y="-303" on="0"/>
        <pt x="173" y="-293" on="0"/>
      </contour>
    </TTGlyph>
    <TTGlyph name="Ccircumflex" xMin="16" yMin="-1" xMax="414" yMax="959">
      <component glyphName="C" x="0" y="0" flags="0x204"/>
      <component glyphName="circumflex" x="-16" y="-3" flags="0x4"/>
    </TTGlyph>
    <TTGlyph name="Cdotaccent" xMin="16" yMin="-1" xMax="414" yMax="852">
      <component glyphName="C" x="0" y="0" flags="0x204"/>
      <component glyphName="dotaccent" x="55" y="184" flags="0x4"/>
    </TTGlyph>
    <TTGlyph name="D" xMin="22" yMin="-1" xMax="476" yMax="674">
      <contour>
        <pt x="184" y="29" on="1"/>
        <pt x="184" y="32" on="0"/>
        <pt x="223" y="46" on="0"/>
        <pt x="280" y="69" on="0"/>
        <pt x="347" y="103" on="0"/>
        <pt x="404" y="151" on="0"/>
        <pt x="443" y="215" on="0"/>
        <pt x="443" y="256" on="1"/>
        <pt x="443" y="284" on="0"/>
        <pt x="409" y="353" on="0"/>
        <pt x="355" y="421" on="0"/>
        <pt x="284" y="486" on="0"/>
        <pt x="212" y="536" on="0"/>
        <pt x="143" y="566" on="0"/>
        <pt x="117" y="566" on="1"/>
        <pt x="117" y="507" on="0"/>
        <pt x="128" y="390" on="0"/>
        <pt x="140" y="272" on="0"/>
        <pt x="151" y="155" on="0"/>
        <pt x="151" y="95" on="1"/>
        <pt x="151" y="82" on="0"/>
        <pt x="146" y="66" on="0"/>
        <pt x="127" y="58" on="1"/>
        <pt x="116" y="69" on="1"/>
        <pt x="69" y="580" on="1"/>
        <pt x="67" y="580" on="0"/>
        <pt x="52" y="589" on="0"/>
        <pt x="36" y="600" on="0"/>
        <pt x="22" y="614" on="0"/>
        <pt x="22" y="620" on="1"/>
        <pt x="22" y="626" on="0"/>
        <pt x="41" y="644" on="0"/>
        <pt x="65" y="661" on="0"/>
        <pt x="87" y="674" on="0"/>
        <pt x="92" y="674" on="1"/>
        <pt x="107" y="674" on="0"/>
        <pt x="114" y="660" on="0"/>
        <pt x="114" y="641" on="0"/>
        <pt x="116" y="620" on="0"/>
        <pt x="127" y="615" on="1"/>
        <pt x="162" y="595" on="0"/>
        <pt x="240" y="552" on="0"/>
        <pt x="319" y="501" on="0"/>
        <pt x="390" y="443" on="0"/>
        <pt x="444" y="374" on="0"/>
        <pt x="476" y="295" on="0"/>
        <pt x="476" y="248" on="1"/>
        <pt x="476" y="204" on="0"/>
        <pt x="428" y="115" on="0"/>
        <pt x="354" y="44" on="0"/>
        <pt x="263" y="-1" on="0"/>
        <pt x="220" y="-1" on="1"/>
        <pt x="207" y="-1" on="0"/>
        <pt x="184" y="15" on="0"/>
      </contour>
    </TTGlyph>
    <TTGlyph name="Dcaron" xMin="22" yMin="-1" xMax="476" yMax="963">
      <component glyphName="D" x="0" y="0" flags="0x204"/>
      <component glyphName="caron" x="0" y="184" flags="0x4"/>
    </TTGlyph>
    <TTGlyph name="E" xMin="40" yMin="7" xMax="446" yMax="649">
      <contour>
        <pt x="40" y="499" on="1"/>
        <pt x="40" y="625" on="1"/>
        <pt x="42" y="626" on="0"/>
        <pt x="56" y="627" on="0"/>
        <pt x="58" y="627" on="1"/>
        <pt x="68" y="627" on="0"/>
        <pt x="76" y="619" on="0"/>
        <pt x="80" y="610" on="0"/>
        <pt x="85" y="602" on="0"/>
        <pt x="92" y="602" on="1"/>
        <pt x="108" y="602" on="0"/>
        <pt x="157" y="615" on="0"/>
        <pt x="211" y="631" on="0"/>
        <pt x="264" y="646" on="0"/>
        <pt x="283" y="649" on="1"/>
        <pt x="291" y="649" on="1"/>
        <pt x="303" y="649" on="0"/>
        <pt x="320" y="638" on="0"/>
        <pt x="320" y="625" on="1"/>
        <pt x="320" y="624" on="0"/>
        <pt x="319" y="616" on="0"/>
        <pt x="319" y="615" on="1"/>
        <pt x="293" y="613" on="0"/>
        <pt x="227" y="605" on="0"/>
        <pt x="160" y="588" on="0"/>
        <pt x="103" y="558" on="0"/>
        <pt x="86" y="534" on="1"/>
        <pt x="86" y="468" on="1"/>
        <pt x="86" y="445" on="0"/>
        <pt x="87" y="391" on="0"/>
        <pt x="90" y="341" on="0"/>
        <pt x="95" y="300" on="0"/>
        <pt x="99" y="290" on="1"/>
        <pt x="354" y="394" on="1"/>
        <pt x="375" y="392" on="0"/>
        <pt x="390" y="386" on="0"/>
        <pt x="388" y="376" on="0"/>
        <pt x="373" y="365" on="0"/>
        <pt x="365" y="359" on="1"/>
        <pt x="351" y="353" on="0"/>
        <pt x="279" y="320" on="0"/>
        <pt x="197" y="283" on="0"/>
        <pt x="125" y="250" on="0"/>
        <pt x="111" y="243" on="1"/>
        <pt x="103" y="242" on="0"/>
        <pt x="98" y="232" on="0"/>
        <pt x="97" y="220" on="0"/>
        <pt x="98" y="207" on="0"/>
        <pt x="98" y="204" on="1"/>
        <pt x="98" y="175" on="0"/>
        <pt x="112" y="119" on="0"/>
        <pt x="112" y="89" on="1"/>
        <pt x="112" y="76" on="0"/>
        <pt x="94" y="53" on="0"/>
        <pt x="73" y="53" on="1"/>
      </contour>
      <contour>
        <pt x="446" y="104" on="1"/>
        <pt x="437" y="102" on="0"/>
        <pt x="400" y="91" on="0"/>
        <pt x="351" y="77" on="0"/>
        <pt x="298" y="62" on="0"/>
        <pt x="250" y="49" on="0"/>
        <pt x="211" y="38" on="0"/>
        <pt x="202" y="35" on="1"/>
        <pt x="179" y="28" on="0"/>
        <pt x="158" y="17" on="0"/>
        <pt x="143" y="10" on="0"/>
        <pt x="124" y="7" on="0"/>
        <pt x="103" y="7" on="1"/>
        <pt x="103" y="31" on="0"/>
        <pt x="112" y="52" on="0"/>
        <pt x="133" y="58" on="1"/>
        <pt x="432" y="141" on="1"/>
      </contour>
    </TTGlyph>
    <TTGlyph name="Eacute" xMin="40" yMin="7" xMax="446" yMax="981">
      <component glyphName="E" x="0" y="0" flags="0x204"/>
      <component glyphName="acute" x="120" y="184" flags="0x4"/>
    </TTGlyph>
    <TTGlyph name="Ebreve" xMin="40" yMin="7" xMax="446" yMax="906">
      <component glyphName="E" x="0" y="0" flags="0x204"/>
      <component glyphName="breve" x="36" y="184" flags="0x4"/>
    </TTGlyph>
    <TTGlyph name="Ecaron" xMin="40" yMin="7" xMax="446" yMax="860">
      <component glyphName="E" x="0" y="0" flags="0x204"/>
      <component glyphName="caron" x="-21" y="81" flags="0x4"/>
    </TTGlyph>
    <TTGlyph name="Ecircumflex" xMin="40" yMin="7" xMax="446" yMax="1052">
      <component glyphName="E" x="0" y="0" flags="0x204"/>
      <component glyphName="circumflex" x="11" y="90" flags="0x4"/>
    </TTGlyph>
    <TTGlyph name="Edieresis" xMin="40" yMin="7" xMax="446" yMax="880">
      <component glyphName="E" x="0" y="0" flags="0x204"/>
      <component glyphName="dieresis" x="85" y="184" flags="0x4"/>
    </TTGlyph>
    <TTGlyph name="Edotaccent" xMin="40" yMin="7" xMax="446" yMax="852">
      <component glyphName="E" x="0" y="0" flags="0x204"/>
      <component glyphName="dotaccent" x="72" y="184" flags="0x4"/>
    </TTGlyph>
    <TTGlyph name="Egrave" xMin="40" yMin="7" xMax="446" yMax="981">
      <component glyphName="E" x="0" y="0" flags="0x204"/>
      <component glyphName="grave" x="144" y="184" flags="0x4"/>
    </TTGlyph>
    <TTGlyph name="Emacron" xMin="40" yMin="7" xMax="446" yMax="858">
      <component glyphName="E" x="0" y="0" flags="0x204"/>
      <component glyphName="macron" x="14" y="184" flags="0x4"/>
    </TTGlyph>
    <TTGlyph name="Eogonek" xMin="40" yMin="-100" xMax="459" yMax="649">
      <contour>
        <pt x="40" y="499" on="1"/>
        <pt x="40" y="625" on="1"/>
        <pt x="42" y="626" on="0"/>
        <pt x="56" y="627" on="0"/>
        <pt x="58" y="627" on="1"/>
        <pt x="68" y="627" on="0"/>
        <pt x="76" y="619" on="0"/>
        <pt x="80" y="610" on="0"/>
        <pt x="85" y="602" on="0"/>
        <pt x="92" y="602" on="1"/>
        <pt x="108" y="602" on="0"/>
        <pt x="157" y="615" on="0"/>
        <pt x="211" y="631" on="0"/>
        <pt x="264" y="646" on="0"/>
        <pt x="283" y="649" on="1"/>
        <pt x="291" y="649" on="1"/>
        <pt x="303" y="649" on="0"/>
        <pt x="320" y="638" on="0"/>
        <pt x="320" y="625" on="1"/>
        <pt x="320" y="624" on="0"/>
        <pt x="319" y="616" on="0"/>
        <pt x="319" y="615" on="1"/>
        <pt x="293" y="613" on="0"/>
        <pt x="227" y="605" on="0"/>
        <pt x="160" y="588" on="0"/>
        <pt x="103" y="558" on="0"/>
        <pt x="86" y="534" on="1"/>
        <pt x="86" y="468" on="1"/>
        <pt x="86" y="445" on="0"/>
        <pt x="87" y="391" on="0"/>
        <pt x="90" y="341" on="0"/>
        <pt x="95" y="300" on="0"/>
        <pt x="99" y="290" on="1"/>
        <pt x="354" y="394" on="1"/>
        <pt x="375" y="392" on="0"/>
        <pt x="390" y="386" on="0"/>
        <pt x="388" y="376" on="0"/>
        <pt x="373" y="365" on="0"/>
        <pt x="365" y="359" on="1"/>
        <pt x="351" y="353" on="0"/>
        <pt x="279" y="320" on="0"/>
        <pt x="197" y="283" on="0"/>
        <pt x="125" y="250" on="0"/>
        <pt x="111" y="243" on="1"/>
        <pt x="103" y="242" on="0"/>
        <pt x="98" y="232" on="0"/>
        <pt x="97" y="220" on="0"/>
        <pt x="98" y="207" on="0"/>
        <pt x="98" y="204" on="1"/>
        <pt x="98" y="175" on="0"/>
        <pt x="112" y="119" on="0"/>
        <pt x="112" y="89" on="1"/>
        <pt x="112" y="76" on="0"/>
        <pt x="94" y="53" on="0"/>
        <pt x="73" y="53" on="1"/>
      </contour>
      <contour>
        <pt x="446" y="104" on="1"/>
        <pt x="444" y="103" on="0"/>
        <pt x="439" y="103" on="1"/>
        <pt x="444" y="101" on="0"/>
        <pt x="446" y="94" on="1"/>
        <pt x="448" y="88" on="0"/>
        <pt x="437" y="78" on="0"/>
        <pt x="418" y="67" on="0"/>
        <pt x="398" y="54" on="0"/>
        <pt x="382" y="33" on="0"/>
        <pt x="378" y="4" on="0"/>
        <pt x="386" y="-16" on="1"/>
        <pt x="391" y="-29" on="0"/>
        <pt x="411" y="-47" on="0"/>
        <pt x="435" y="-62" on="0"/>
        <pt x="454" y="-78" on="0"/>
        <pt x="459" y="-89" on="1"/>
        <pt x="429" y="-100" on="0"/>
        <pt x="386" y="-92" on="0"/>
        <pt x="356" y="-68" on="0"/>
        <pt x="339" y="-40" on="0"/>
        <pt x="336" y="-29" on="1"/>
        <pt x="331" y="-17" on="0"/>
        <pt x="328" y="16" on="0"/>
        <pt x="337" y="51" on="0"/>
        <pt x="352" y="67" on="1"/>
        <pt x="361" y="76" on="0"/>
        <pt x="376" y="84" on="1"/>
        <pt x="375" y="84" on="1"/>
        <pt x="351" y="77" on="0"/>
        <pt x="298" y="62" on="0"/>
        <pt x="250" y="49" on="0"/>
        <pt x="211" y="38" on="0"/>
        <pt x="202" y="35" on="1"/>
        <pt x="179" y="28" on="0"/>
        <pt x="158" y="17" on="0"/>
        <pt x="143" y="10" on="0"/>
        <pt x="124" y="7" on="0"/>
        <pt x="103" y="7" on="1"/>
        <pt x="103" y="31" on="0"/>
        <pt x="112" y="52" on="0"/>
        <pt x="133" y="58" on="1"/>
        <pt x="432" y="141" on="1"/>
      </contour>
    </TTGlyph>
    <TTGlyph name="Eth" xMin="13" yMin="-1" xMax="476" yMax="674">
      <contour>
        <pt x="31" y="298" on="1"/>
        <pt x="16" y="310" on="0"/>
        <pt x="13" y="333" on="0"/>
        <pt x="31" y="352" on="0"/>
        <pt x="66" y="368" on="0"/>
        <pt x="87" y="374" on="1"/>
        <pt x="69" y="580" on="1"/>
        <pt x="67" y="580" on="0"/>
        <pt x="52" y="589" on="0"/>
        <pt x="36" y="600" on="0"/>
        <pt x="22" y="614" on="0"/>
        <pt x="22" y="620" on="1"/>
        <pt x="22" y="626" on="0"/>
        <pt x="41" y="644" on="0"/>
        <pt x="65" y="661" on="0"/>
        <pt x="87" y="674" on="0"/>
        <pt x="92" y="674" on="1"/>
        <pt x="107" y="674" on="0"/>
        <pt x="114" y="660" on="0"/>
        <pt x="114" y="641" on="0"/>
        <pt x="116" y="620" on="0"/>
        <pt x="127" y="615" on="1"/>
        <pt x="162" y="595" on="0"/>
        <pt x="240" y="552" on="0"/>
        <pt x="319" y="501" on="0"/>
        <pt x="390" y="443" on="0"/>
        <pt x="444" y="374" on="0"/>
        <pt x="476" y="295" on="0"/>
        <pt x="476" y="248" on="1"/>
        <pt x="476" y="204" on="0"/>
        <pt x="428" y="115" on="0"/>
        <pt x="354" y="44" on="0"/>
        <pt x="263" y="-1" on="0"/>
        <pt x="220" y="-1" on="1"/>
        <pt x="207" y="-1" on="0"/>
        <pt x="184" y="15" on="0"/>
        <pt x="184" y="29" on="1"/>
        <pt x="184" y="32" on="0"/>
        <pt x="223" y="46" on="0"/>
        <pt x="280" y="69" on="0"/>
        <pt x="347" y="103" on="0"/>
        <pt x="404" y="151" on="0"/>
        <pt x="443" y="215" on="0"/>
        <pt x="443" y="256" on="1"/>
        <pt x="443" y="284" on="0"/>
        <pt x="409" y="353" on="0"/>
        <pt x="355" y="421" on="0"/>
        <pt x="284" y="486" on="0"/>
        <pt x="212" y="536" on="0"/>
        <pt x="143" y="566" on="0"/>
        <pt x="117" y="566" on="1"/>
        <pt x="117" y="520" on="0"/>
        <pt x="123" y="430" on="0"/>
        <pt x="128" y="384" on="1"/>
        <pt x="153" y="390" on="0"/>
        <pt x="202" y="396" on="0"/>
        <pt x="238" y="396" on="0"/>
        <pt x="257" y="391" on="0"/>
        <pt x="247" y="382" on="0"/>
        <pt x="202" y="364" on="0"/>
        <pt x="157" y="354" on="1"/>
        <pt x="148" y="353" on="0"/>
        <pt x="131" y="346" on="1"/>
        <pt x="139" y="283" on="0"/>
        <pt x="151" y="158" on="0"/>
        <pt x="151" y="95" on="1"/>
        <pt x="151" y="82" on="0"/>
        <pt x="146" y="66" on="0"/>
        <pt x="127" y="58" on="1"/>
        <pt x="116" y="69" on="1"/>
        <pt x="92" y="325" on="1"/>
        <pt x="74" y="315" on="0"/>
        <pt x="40" y="299" on="0"/>
      </contour>
    </TTGlyph>
    <TTGlyph name="Euro" xMin="23" yMin="10" xMax="539" yMax="767">
      <contour>
        <pt x="23" y="400" on="1"/>
        <pt x="35" y="448" on="0"/>
        <pt x="61" y="550" on="0"/>
        <pt x="106" y="646" on="0"/>
        <pt x="181" y="728" on="0"/>
        <pt x="243" y="755" on="1"/>
        <pt x="253" y="759" on="0"/>
        <pt x="273" y="765" on="0"/>
        <pt x="283" y="767" on="1"/>
        <pt x="293" y="767" on="0"/>
        <pt x="314" y="759" on="0"/>
        <pt x="314" y="748" on="1"/>
        <pt x="314" y="747" on="0"/>
        <pt x="313" y="745" on="0"/>
        <pt x="313" y="744" on="1"/>
        <pt x="313" y="742" on="1"/>
        <pt x="297" y="726" on="0"/>
        <pt x="241" y="697" on="0"/>
        <pt x="183" y="664" on="0"/>
        <pt x="135" y="626" on="0"/>
        <pt x="127" y="603" on="1"/>
        <pt x="123" y="592" on="0"/>
        <pt x="110" y="547" on="0"/>
        <pt x="94" y="499" on="0"/>
        <pt x="83" y="459" on="0"/>
        <pt x="81" y="453" on="1"/>
        <pt x="81" y="452" on="0"/>
        <pt x="80" y="443" on="0"/>
        <pt x="80" y="440" on="1"/>
        <pt x="80" y="438" on="0"/>
        <pt x="81" y="430" on="0"/>
        <pt x="81" y="428" on="1"/>
        <pt x="104" y="440" on="0"/>
        <pt x="160" y="456" on="0"/>
        <pt x="186" y="456" on="1"/>
        <pt x="186" y="437" on="0"/>
        <pt x="182" y="419" on="0"/>
        <pt x="171" y="413" on="0"/>
        <pt x="153" y="410" on="0"/>
        <pt x="139" y="406" on="1"/>
        <pt x="131" y="403" on="0"/>
        <pt x="107" y="392" on="0"/>
        <pt x="85" y="382" on="0"/>
        <pt x="69" y="373" on="0"/>
        <pt x="69" y="372" on="1"/>
        <pt x="69" y="351" on="1"/>
        <pt x="98" y="351" on="0"/>
        <pt x="150" y="360" on="0"/>
        <pt x="178" y="360" on="1"/>
        <pt x="178" y="338" on="0"/>
        <pt x="144" y="315" on="0"/>
        <pt x="103" y="297" on="0"/>
        <pt x="69" y="276" on="0"/>
        <pt x="69" y="256" on="1"/>
        <pt x="69" y="214" on="0"/>
        <pt x="102" y="138" on="0"/>
        <pt x="157" y="79" on="0"/>
        <pt x="230" y="44" on="0"/>
        <pt x="272" y="44" on="1"/>
        <pt x="315" y="44" on="0"/>
        <pt x="402" y="63" on="0"/>
        <pt x="472" y="105" on="0"/>
        <pt x="517" y="175" on="0"/>
        <pt x="517" y="226" on="1"/>
        <pt x="539" y="220" on="1"/>
        <pt x="539" y="160" on="0"/>
        <pt x="495" y="80" on="0"/>
        <pt x="421" y="31" on="0"/>
        <pt x="324" y="10" on="0"/>
        <pt x="271" y="10" on="1"/>
        <pt x="215" y="10" on="0"/>
        <pt x="134" y="42" on="0"/>
        <pt x="79" y="99" on="0"/>
        <pt x="46" y="175" on="0"/>
        <pt x="29" y="262" on="0"/>
        <pt x="23" y="355" on="0"/>
      </contour>
    </TTGlyph>
    <TTGlyph name="F" xMin="22" yMin="0" xMax="348" yMax="628">
      <contour>
        <pt x="35" y="544" on="1"/>
        <pt x="25" y="548" on="0"/>
        <pt x="22" y="561" on="0"/>
        <pt x="22" y="568" on="1"/>
        <pt x="22" y="580" on="0"/>
        <pt x="28" y="601" on="0"/>
        <pt x="35" y="615" on="1"/>
        <pt x="65" y="613" on="0"/>
        <pt x="123" y="616" on="0"/>
        <pt x="181" y="622" on="0"/>
        <pt x="239" y="627" on="0"/>
        <pt x="269" y="627" on="1"/>
        <pt x="277" y="627" on="0"/>
        <pt x="298" y="628" on="0"/>
        <pt x="319" y="627" on="0"/>
        <pt x="340" y="621" on="0"/>
        <pt x="347" y="615" on="1"/>
        <pt x="348" y="615" on="0"/>
        <pt x="348" y="612" on="1"/>
        <pt x="348" y="606" on="1"/>
        <pt x="348" y="604" on="0"/>
        <pt x="347" y="603" on="1"/>
        <pt x="340" y="603" on="0"/>
        <pt x="304" y="599" on="0"/>
        <pt x="264" y="596" on="0"/>
        <pt x="228" y="592" on="0"/>
        <pt x="220" y="591" on="1"/>
        <pt x="209" y="589" on="0"/>
        <pt x="166" y="584" on="0"/>
        <pt x="122" y="573" on="0"/>
        <pt x="86" y="557" on="0"/>
        <pt x="81" y="544" on="1"/>
        <pt x="81" y="534" on="1"/>
        <pt x="81" y="526" on="0"/>
        <pt x="80" y="507" on="0"/>
        <pt x="80" y="499" on="1"/>
        <pt x="80" y="487" on="1"/>
        <pt x="80" y="455" on="0"/>
        <pt x="81" y="408" on="0"/>
        <pt x="84" y="359" on="0"/>
        <pt x="88" y="304" on="0"/>
        <pt x="92" y="266" on="1"/>
        <pt x="104" y="266" on="1"/>
        <pt x="324" y="345" on="1"/>
        <pt x="324" y="313" on="1"/>
        <pt x="92" y="208" on="1"/>
        <pt x="91" y="200" on="0"/>
        <pt x="91" y="193" on="1"/>
        <pt x="91" y="172" on="1"/>
        <pt x="91" y="135" on="0"/>
        <pt x="104" y="65" on="0"/>
        <pt x="104" y="28" on="1"/>
        <pt x="104" y="23" on="1"/>
        <pt x="103" y="22" on="0"/>
        <pt x="100" y="18" on="1"/>
        <pt x="93" y="11" on="1"/>
        <pt x="89" y="7" on="0"/>
        <pt x="82" y="1" on="0"/>
        <pt x="81" y="0" on="1"/>
        <pt x="70" y="5" on="0"/>
        <pt x="58" y="38" on="0"/>
        <pt x="58" y="46" on="1"/>
      </contour>
    </TTGlyph>
    <TTGlyph name="G" xMin="20" yMin="-83" xMax="497" yMax="679">
      <contour>
        <pt x="438" y="86" on="1"/>
        <pt x="411" y="66" on="0"/>
        <pt x="359" y="34" on="0"/>
        <pt x="304" y="13" on="0"/>
        <pt x="245" y="4" on="0"/>
        <pt x="211" y="4" on="1"/>
        <pt x="161" y="4" on="0"/>
        <pt x="89" y="38" on="0"/>
        <pt x="42" y="98" on="0"/>
        <pt x="20" y="179" on="0"/>
        <pt x="20" y="227" on="1"/>
        <pt x="20" y="280" on="0"/>
        <pt x="38" y="409" on="0"/>
        <pt x="79" y="536" on="0"/>
        <pt x="146" y="646" on="0"/>
        <pt x="195" y="679" on="1"/>
        <pt x="197" y="679" on="0"/>
        <pt x="204" y="679" on="0"/>
        <pt x="206" y="679" on="1"/>
        <pt x="216" y="679" on="0"/>
        <pt x="230" y="671" on="0"/>
        <pt x="230" y="661" on="1"/>
        <pt x="230" y="659" on="0"/>
        <pt x="229" y="655" on="0"/>
        <pt x="229" y="654" on="1"/>
        <pt x="184" y="615" on="0"/>
        <pt x="119" y="517" on="0"/>
        <pt x="76" y="408" on="0"/>
        <pt x="55" y="291" on="0"/>
        <pt x="55" y="231" on="1"/>
        <pt x="55" y="190" on="0"/>
        <pt x="76" y="120" on="0"/>
        <pt x="120" y="68" on="0"/>
        <pt x="184" y="40" on="0"/>
        <pt x="226" y="40" on="1"/>
        <pt x="236" y="40" on="0"/>
        <pt x="275" y="48" on="0"/>
        <pt x="323" y="62" on="0"/>
        <pt x="373" y="83" on="0"/>
        <pt x="412" y="109" on="0"/>
        <pt x="438" y="139" on="0"/>
        <pt x="438" y="157" on="1"/>
        <pt x="438" y="347" on="1"/>
        <pt x="435" y="347" on="0"/>
        <pt x="415" y="349" on="0"/>
        <pt x="393" y="352" on="0"/>
        <pt x="373" y="354" on="0"/>
        <pt x="369" y="353" on="1"/>
        <pt x="364" y="352" on="0"/>
        <pt x="310" y="341" on="0"/>
        <pt x="244" y="326" on="0"/>
        <pt x="178" y="311" on="0"/>
        <pt x="160" y="307" on="1"/>
        <pt x="158" y="307" on="0"/>
        <pt x="148" y="303" on="0"/>
        <pt x="137" y="300" on="0"/>
        <pt x="126" y="296" on="0"/>
        <pt x="125" y="296" on="1"/>
        <pt x="123" y="295" on="0"/>
        <pt x="122" y="295" on="1"/>
        <pt x="119" y="295" on="1"/>
        <pt x="109" y="295" on="0"/>
        <pt x="102" y="316" on="0"/>
        <pt x="102" y="324" on="1"/>
        <pt x="102" y="330" on="0"/>
        <pt x="107" y="340" on="0"/>
        <pt x="114" y="342" on="1"/>
        <pt x="416" y="400" on="1"/>
        <pt x="418" y="400" on="0"/>
        <pt x="442" y="400" on="0"/>
        <pt x="449" y="400" on="1"/>
        <pt x="454" y="400" on="0"/>
        <pt x="470" y="402" on="0"/>
        <pt x="485" y="400" on="0"/>
        <pt x="497" y="391" on="0"/>
        <pt x="497" y="382" on="1"/>
        <pt x="497" y="377" on="1"/>
        <pt x="485" y="319" on="1"/>
        <pt x="485" y="-83" on="1"/>
        <pt x="455" y="-83" on="0"/>
        <pt x="450" y="-52" on="1"/>
        <pt x="449" y="-44" on="0"/>
        <pt x="445" y="-5" on="0"/>
        <pt x="441" y="40" on="0"/>
        <pt x="438" y="78" on="0"/>
      </contour>
    </TTGlyph>
    <TTGlyph name="Gbreve" xMin="20" yMin="-83" xMax="497" yMax="906">
      <component glyphName="G" x="0" y="0" flags="0x204"/>
      <component glyphName="breve" x="60" y="184" flags="0x4"/>
    </TTGlyph>
    <TTGlyph name="Gcircumflex" xMin="20" yMin="-83" xMax="497" yMax="1146">
      <component glyphName="G" x="0" y="0" flags="0x204"/>
      <component glyphName="circumflex" x="55" y="184" flags="0x4"/>
    </TTGlyph>
    <TTGlyph name="Gcommaaccent" xMin="20" yMin="-349" xMax="497" yMax="679">
      <component glyphName="G" x="0" y="0" flags="0x204"/>
      <component glyphName="commaaccent" x="23" y="0" flags="0x4"/>
    </TTGlyph>
    <TTGlyph name="Gdotaccent" xMin="20" yMin="-83" xMax="497" yMax="852">
      <component glyphName="G" x="0" y="0" flags="0x204"/>
      <component glyphName="dotaccent" x="95" y="184" flags="0x4"/>
    </TTGlyph>
    <TTGlyph name="H" xMin="12" yMin="-43" xMax="384" yMax="668">
      <contour>
        <pt x="36" y="213" on="1"/>
        <pt x="22" y="220" on="0"/>
        <pt x="12" y="235" on="0"/>
        <pt x="12" y="247" on="1"/>
        <pt x="12" y="262" on="0"/>
        <pt x="26" y="276" on="0"/>
        <pt x="41" y="282" on="1"/>
        <pt x="41" y="630" on="1"/>
        <pt x="76" y="630" on="1"/>
        <pt x="76" y="285" on="1"/>
        <pt x="79" y="285" on="0"/>
        <pt x="91" y="283" on="0"/>
        <pt x="103" y="283" on="0"/>
        <pt x="115" y="282" on="0"/>
        <pt x="117" y="282" on="1"/>
        <pt x="126" y="283" on="0"/>
        <pt x="173" y="293" on="0"/>
        <pt x="224" y="304" on="0"/>
        <pt x="270" y="314" on="0"/>
        <pt x="279" y="317" on="1"/>
        <pt x="279" y="319" on="0"/>
        <pt x="280" y="333" on="0"/>
        <pt x="280" y="335" on="1"/>
        <pt x="280" y="376" on="0"/>
        <pt x="273" y="460" on="0"/>
        <pt x="263" y="543" on="0"/>
        <pt x="256" y="625" on="0"/>
        <pt x="256" y="668" on="1"/>
        <pt x="263" y="668" on="0"/>
        <pt x="287" y="663" on="0"/>
        <pt x="292" y="653" on="1"/>
        <pt x="292" y="575" on="0"/>
        <pt x="306" y="406" on="0"/>
        <pt x="326" y="329" on="1"/>
        <pt x="343" y="330" on="0"/>
        <pt x="350" y="317" on="0"/>
        <pt x="350" y="307" on="1"/>
        <pt x="350" y="296" on="0"/>
        <pt x="346" y="280" on="0"/>
        <pt x="337" y="271" on="1"/>
        <pt x="340" y="262" on="0"/>
        <pt x="354" y="220" on="0"/>
        <pt x="369" y="171" on="0"/>
        <pt x="382" y="129" on="0"/>
        <pt x="384" y="120" on="1"/>
        <pt x="384" y="109" on="1"/>
        <pt x="384" y="100" on="0"/>
        <pt x="377" y="85" on="0"/>
        <pt x="367" y="85" on="1"/>
        <pt x="360" y="85" on="0"/>
        <pt x="353" y="90" on="0"/>
        <pt x="349" y="97" on="1"/>
        <pt x="347" y="103" on="0"/>
        <pt x="337" y="137" on="0"/>
        <pt x="327" y="174" on="0"/>
        <pt x="316" y="206" on="0"/>
        <pt x="314" y="213" on="1"/>
        <pt x="312" y="219" on="0"/>
        <pt x="309" y="228" on="1"/>
        <pt x="301" y="247" on="1"/>
        <pt x="298" y="256" on="0"/>
        <pt x="292" y="270" on="0"/>
        <pt x="292" y="271" on="1"/>
        <pt x="291" y="271" on="0"/>
        <pt x="275" y="273" on="0"/>
        <pt x="272" y="273" on="1"/>
        <pt x="223" y="273" on="0"/>
        <pt x="121" y="253" on="0"/>
        <pt x="82" y="224" on="1"/>
        <pt x="82" y="211" on="1"/>
        <pt x="82" y="202" on="0"/>
        <pt x="81" y="183" on="0"/>
        <pt x="81" y="173" on="1"/>
        <pt x="81" y="160" on="1"/>
        <pt x="81" y="127" on="0"/>
        <pt x="83" y="70" on="0"/>
        <pt x="94" y="39" on="1"/>
        <pt x="94" y="41" on="0"/>
        <pt x="99" y="60" on="0"/>
        <pt x="107" y="81" on="0"/>
        <pt x="117" y="98" on="0"/>
        <pt x="122" y="98" on="1"/>
        <pt x="126" y="98" on="1"/>
        <pt x="128" y="98" on="0"/>
        <pt x="129" y="97" on="1"/>
        <pt x="129" y="91" on="0"/>
        <pt x="125" y="61" on="0"/>
        <pt x="121" y="28" on="0"/>
        <pt x="118" y="-2" on="0"/>
        <pt x="117" y="-7" on="1"/>
        <pt x="116" y="-12" on="0"/>
        <pt x="112" y="-23" on="0"/>
        <pt x="103" y="-35" on="0"/>
        <pt x="94" y="-43" on="0"/>
        <pt x="88" y="-43" on="1"/>
        <pt x="76" y="-43" on="0"/>
        <pt x="60" y="-17" on="0"/>
        <pt x="51" y="16" on="0"/>
        <pt x="48" y="47" on="0"/>
        <pt x="48" y="50" on="1"/>
        <pt x="47" y="59" on="0"/>
        <pt x="43" y="105" on="0"/>
        <pt x="40" y="157" on="0"/>
        <pt x="36" y="203" on="0"/>
      </contour>
    </TTGlyph>
    <TTGlyph name="Hcircumflex" xMin="12" yMin="-43" xMax="384" yMax="955">
      <component glyphName="H" x="0" y="0" flags="0x204"/>
      <component glyphName="circumflex" x="-5" y="-7" flags="0x4"/>
    </TTGlyph>
    <TTGlyph name="I" xMin="11" yMin="0" xMax="105" yMax="639">
      <contour>
        <pt x="58" y="12" on="1"/>
        <pt x="57" y="31" on="0"/>
        <pt x="49" y="114" on="0"/>
        <pt x="40" y="220" on="0"/>
        <pt x="29" y="336" on="0"/>
        <pt x="20" y="441" on="0"/>
        <pt x="13" y="525" on="0"/>
        <pt x="12" y="544" on="1"/>
        <pt x="12" y="551" on="1"/>
        <pt x="12" y="556" on="0"/>
        <pt x="11" y="569" on="0"/>
        <pt x="11" y="575" on="1"/>
        <pt x="11" y="593" on="1"/>
        <pt x="11" y="599" on="0"/>
        <pt x="12" y="612" on="0"/>
        <pt x="12" y="617" on="1"/>
        <pt x="12" y="625" on="1"/>
        <pt x="14" y="635" on="0"/>
        <pt x="28" y="639" on="0"/>
        <pt x="35" y="639" on="1"/>
        <pt x="37" y="639" on="0"/>
        <pt x="45" y="638" on="0"/>
        <pt x="47" y="638" on="1"/>
        <pt x="93" y="81" on="1"/>
        <pt x="94" y="78" on="0"/>
        <pt x="97" y="66" on="0"/>
        <pt x="102" y="50" on="0"/>
        <pt x="104" y="38" on="0"/>
        <pt x="105" y="35" on="1"/>
        <pt x="105" y="29" on="1"/>
        <pt x="105" y="23" on="0"/>
        <pt x="97" y="13" on="0"/>
        <pt x="85" y="5" on="0"/>
        <pt x="74" y="0" on="0"/>
        <pt x="70" y="0" on="1"/>
        <pt x="67" y="0" on="0"/>
        <pt x="58" y="9" on="0"/>
      </contour>
    </TTGlyph>
    <TTGlyph name="Iacute" xMin="-4" yMin="0" xMax="135" yMax="981">
      <component glyphName="I" x="0" y="0" flags="0x204"/>
      <component glyphName="acute" x="-51" y="184" flags="0x4"/>
    </TTGlyph>
    <TTGlyph name="Ibreve" xMin="-39" yMin="0" xMax="165" yMax="906">
      <component glyphName="I" x="0" y="0" flags="0x204"/>
      <component glyphName="breve" x="-136" y="184" flags="0x4"/>
    </TTGlyph>
    <TTGlyph name="Icircumflex" xMin="-102" yMin="0" xMax="187" yMax="1146">
      <component glyphName="I" x="0" y="0" flags="0x204"/>
      <component glyphName="circumflex" x="-160" y="184" flags="0x4"/>
    </TTGlyph>
    <TTGlyph name="Idieresis" xMin="-34" yMin="0" xMax="160" yMax="880">
      <component glyphName="I" x="0" y="0" flags="0x204"/>
      <component glyphName="dieresis" x="-86" y="184" flags="0x4"/>
    </TTGlyph>
    <TTGlyph name="Idotaccent" xMin="0" yMin="0" xMax="125" yMax="852">
      <component glyphName="I" x="0" y="0" flags="0x204"/>
      <component glyphName="dotaccent" x="-100" y="184" flags="0x4"/>
    </TTGlyph>
    <TTGlyph name="Igrave" xMin="-16" yMin="0" xMax="137" yMax="981">
      <component glyphName="I" x="0" y="0" flags="0x204"/>
      <component glyphName="grave" x="-28" y="184" flags="0x4"/>
    </TTGlyph>
    <TTGlyph name="Iogonek" xMin="-40" yMin="-170" xMax="106" yMax="639">
      <contour>
        <pt x="12" y="-77" on="1"/>
        <pt x="12" y="-91" on="0"/>
        <pt x="25" y="-114" on="0"/>
        <pt x="42" y="-137" on="0"/>
        <pt x="56" y="-158" on="0"/>
        <pt x="56" y="-170" on="1"/>
        <pt x="24" y="-170" on="0"/>
        <pt x="-14" y="-148" on="0"/>
        <pt x="-33" y="-116" on="0"/>
        <pt x="-40" y="-83" on="0"/>
        <pt x="-40" y="-71" on="1"/>
        <pt x="-40" y="-59" on="0"/>
        <pt x="-32" y="-26" on="0"/>
        <pt x="-11" y="3" on="0"/>
        <pt x="8" y="13" on="1"/>
        <pt x="27" y="22" on="0"/>
        <pt x="57" y="23" on="1"/>
        <pt x="56" y="42" on="0"/>
        <pt x="52" y="73" on="1"/>
        <pt x="49" y="114" on="0"/>
        <pt x="40" y="220" on="0"/>
        <pt x="29" y="336" on="0"/>
        <pt x="20" y="441" on="0"/>
        <pt x="13" y="525" on="0"/>
        <pt x="12" y="544" on="1"/>
        <pt x="12" y="551" on="1"/>
        <pt x="12" y="556" on="0"/>
        <pt x="11" y="569" on="0"/>
        <pt x="11" y="575" on="1"/>
        <pt x="11" y="593" on="1"/>
        <pt x="11" y="599" on="0"/>
        <pt x="12" y="612" on="0"/>
        <pt x="12" y="617" on="1"/>
        <pt x="12" y="625" on="1"/>
        <pt x="14" y="635" on="0"/>
        <pt x="28" y="639" on="0"/>
        <pt x="35" y="639" on="1"/>
        <pt x="37" y="639" on="0"/>
        <pt x="45" y="638" on="0"/>
        <pt x="47" y="638" on="1"/>
        <pt x="93" y="81" on="1"/>
        <pt x="94" y="78" on="0"/>
        <pt x="97" y="66" on="0"/>
        <pt x="102" y="50" on="0"/>
        <pt x="104" y="38" on="0"/>
        <pt x="105" y="35" on="1"/>
        <pt x="105" y="29" on="1"/>
        <pt x="105" y="23" on="0"/>
        <pt x="101" y="18" on="1"/>
        <pt x="106" y="15" on="0"/>
        <pt x="106" y="7" on="1"/>
        <pt x="106" y="-4" on="0"/>
        <pt x="76" y="-7" on="0"/>
        <pt x="41" y="-17" on="0"/>
        <pt x="12" y="-44" on="0"/>
      </contour>
    </TTGlyph>
    <TTGlyph name="Itilde" xMin="-135" yMin="0" xMax="265" yMax="873">
      <component glyphName="I" x="0" y="0" flags="0x204"/>
      <component glyphName="tilde" x="-198" y="184" flags="0x4"/>
    </TTGlyph>
    <TTGlyph name="J" xMin="5" yMin="-1" xMax="382" yMax="644">
      <contour>
        <pt x="5" y="127" on="1"/>
        <pt x="5" y="146" on="0"/>
        <pt x="22" y="188" on="0"/>
        <pt x="40" y="197" on="1"/>
        <pt x="36" y="166" on="0"/>
        <pt x="51" y="106" on="0"/>
        <pt x="85" y="60" on="0"/>
        <pt x="139" y="33" on="0"/>
        <pt x="174" y="33" on="1"/>
        <pt x="217" y="33" on="0"/>
        <pt x="280" y="76" on="0"/>
        <pt x="322" y="141" on="0"/>
        <pt x="342" y="220" on="0"/>
        <pt x="342" y="257" on="1"/>
        <pt x="342" y="278" on="1"/>
        <pt x="283" y="603" on="1"/>
        <pt x="282" y="607" on="0"/>
        <pt x="281" y="623" on="0"/>
        <pt x="288" y="638" on="0"/>
        <pt x="303" y="644" on="0"/>
        <pt x="319" y="638" on="1"/>
        <pt x="319" y="636" on="0"/>
        <pt x="328" y="601" on="0"/>
        <pt x="339" y="546" on="0"/>
        <pt x="352" y="478" on="0"/>
        <pt x="364" y="409" on="0"/>
        <pt x="374" y="346" on="0"/>
        <pt x="377" y="324" on="1"/>
        <pt x="382" y="271" on="0"/>
        <pt x="366" y="157" on="0"/>
        <pt x="318" y="61" on="0"/>
        <pt x="231" y="-1" on="0"/>
        <pt x="166" y="-1" on="1"/>
        <pt x="142" y="-1" on="0"/>
        <pt x="85" y="19" on="0"/>
        <pt x="38" y="53" on="0"/>
        <pt x="5" y="100" on="0"/>
      </contour>
    </TTGlyph>
    <TTGlyph name="Jcircumflex" xMin="5" yMin="-1" xMax="387" yMax="943">
      <component glyphName="J" x="0" y="0" flags="0x204"/>
      <component glyphName="circumflex" x="40" y="-19" flags="0x4"/>
    </TTGlyph>
    <TTGlyph name="K" xMin="22" yMin="-1" xMax="492" yMax="638">
      <contour>
        <pt x="47" y="12" on="1"/>
        <pt x="46" y="25" on="0"/>
        <pt x="41" y="84" on="0"/>
        <pt x="37" y="157" on="0"/>
        <pt x="32" y="238" on="0"/>
        <pt x="28" y="310" on="0"/>
        <pt x="24" y="369" on="0"/>
        <pt x="24" y="382" on="1"/>
        <pt x="24" y="385" on="0"/>
        <pt x="23" y="415" on="0"/>
        <pt x="22" y="454" on="0"/>
        <pt x="22" y="472" on="1"/>
        <pt x="22" y="528" on="1"/>
        <pt x="22" y="546" on="0"/>
        <pt x="23" y="585" on="0"/>
        <pt x="24" y="619" on="0"/>
        <pt x="24" y="625" on="1"/>
        <pt x="28" y="633" on="0"/>
        <pt x="35" y="638" on="0"/>
        <pt x="40" y="638" on="1"/>
        <pt x="47" y="638" on="1"/>
        <pt x="82" y="190" on="1"/>
        <pt x="244" y="463" on="1"/>
        <pt x="249" y="472" on="0"/>
        <pt x="263" y="488" on="0"/>
        <pt x="273" y="488" on="1"/>
        <pt x="280" y="488" on="0"/>
        <pt x="292" y="476" on="0"/>
        <pt x="292" y="469" on="1"/>
        <pt x="292" y="468" on="0"/>
        <pt x="291" y="464" on="0"/>
        <pt x="291" y="463" on="1"/>
        <pt x="116" y="162" on="1"/>
        <pt x="120" y="162" on="0"/>
        <pt x="142" y="161" on="0"/>
        <pt x="146" y="161" on="1"/>
        <pt x="189" y="161" on="0"/>
        <pt x="276" y="169" on="0"/>
        <pt x="363" y="180" on="0"/>
        <pt x="449" y="188" on="0"/>
        <pt x="492" y="188" on="1"/>
        <pt x="492" y="173" on="0"/>
        <pt x="480" y="147" on="0"/>
        <pt x="464" y="139" on="1"/>
        <pt x="459" y="140" on="0"/>
        <pt x="444" y="140" on="1"/>
        <pt x="380" y="140" on="1"/>
        <pt x="365" y="140" on="0"/>
        <pt x="359" y="139" on="1"/>
        <pt x="339" y="138" on="0"/>
        <pt x="284" y="131" on="0"/>
        <pt x="225" y="123" on="0"/>
        <pt x="167" y="116" on="0"/>
        <pt x="121" y="110" on="0"/>
        <pt x="93" y="105" on="0"/>
        <pt x="93" y="104" on="1"/>
        <pt x="93" y="23" on="1"/>
        <pt x="93" y="22" on="0"/>
        <pt x="87" y="16" on="0"/>
        <pt x="84" y="13" on="1"/>
        <pt x="76" y="5" on="1"/>
        <pt x="73" y="2" on="0"/>
        <pt x="70" y="0" on="1"/>
        <pt x="68" y="-1" on="0"/>
        <pt x="67" y="-1" on="1"/>
        <pt x="65" y="-1" on="1"/>
        <pt x="53" y="-1" on="0"/>
      </contour>
    </TTGlyph>
    <TTGlyph name="Kcommaaccent" xMin="22" yMin="-349" xMax="492" yMax="638">
      <component glyphName="K" x="0" y="0" flags="0x204"/>
      <component glyphName="commaaccent" x="0" y="0" flags="0x4"/>
    </TTGlyph>
    <TTGlyph name="L" xMin="29" yMin="0" xMax="481" yMax="591">
      <contour>
        <pt x="29" y="23" on="1"/>
        <pt x="30" y="31" on="0"/>
        <pt x="33" y="67" on="0"/>
        <pt x="37" y="107" on="0"/>
        <pt x="40" y="144" on="0"/>
        <pt x="40" y="151" on="1"/>
        <pt x="40" y="167" on="0"/>
        <pt x="41" y="234" on="0"/>
        <pt x="41" y="276" on="1"/>
        <pt x="41" y="454" on="1"/>
        <pt x="41" y="496" on="0"/>
        <pt x="40" y="563" on="0"/>
        <pt x="40" y="580" on="1"/>
        <pt x="44" y="587" on="0"/>
        <pt x="50" y="591" on="0"/>
        <pt x="57" y="591" on="1"/>
        <pt x="64" y="591" on="1"/>
        <pt x="67" y="589" on="0"/>
        <pt x="81" y="580" on="0"/>
        <pt x="81" y="580" on="1"/>
        <pt x="81" y="61" on="1"/>
        <pt x="84" y="61" on="0"/>
        <pt x="98" y="59" on="0"/>
        <pt x="115" y="58" on="0"/>
        <pt x="130" y="58" on="0"/>
        <pt x="132" y="58" on="1"/>
        <pt x="143" y="59" on="0"/>
        <pt x="186" y="65" on="0"/>
        <pt x="242" y="71" on="0"/>
        <pt x="302" y="78" on="0"/>
        <pt x="357" y="85" on="0"/>
        <pt x="400" y="91" on="0"/>
        <pt x="411" y="93" on="1"/>
        <pt x="425" y="100" on="0"/>
        <pt x="445" y="105" on="0"/>
        <pt x="459" y="105" on="1"/>
        <pt x="472" y="105" on="0"/>
        <pt x="481" y="87" on="0"/>
        <pt x="481" y="76" on="1"/>
        <pt x="481" y="67" on="0"/>
        <pt x="474" y="54" on="0"/>
        <pt x="469" y="46" on="1"/>
        <pt x="418" y="51" on="0"/>
        <pt x="315" y="39" on="0"/>
        <pt x="213" y="18" on="0"/>
        <pt x="113" y="0" on="0"/>
        <pt x="64" y="0" on="1"/>
        <pt x="57" y="0" on="0"/>
        <pt x="33" y="16" on="0"/>
      </contour>
    </TTGlyph>
    <TTGlyph name="Lacute" xMin="29" yMin="0" xMax="481" yMax="864">
      <component glyphName="L" x="0" y="0" flags="0x204"/>
      <component glyphName="acute" x="33" y="67" flags="0x4"/>
    </TTGlyph>
    <TTGlyph name="Lcaron" xMin="29" yMin="0" xMax="481" yMax="779">
      <contour>
        <pt x="29" y="23" on="1"/>
        <pt x="30" y="31" on="0"/>
        <pt x="33" y="67" on="0"/>
        <pt x="37" y="107" on="0"/>
        <pt x="40" y="144" on="0"/>
        <pt x="40" y="151" on="1"/>
        <pt x="40" y="167" on="0"/>
        <pt x="41" y="234" on="0"/>
        <pt x="41" y="276" on="1"/>
        <pt x="41" y="454" on="1"/>
        <pt x="41" y="496" on="0"/>
        <pt x="40" y="563" on="0"/>
        <pt x="40" y="580" on="1"/>
        <pt x="44" y="587" on="0"/>
        <pt x="50" y="591" on="0"/>
        <pt x="57" y="591" on="1"/>
        <pt x="64" y="591" on="1"/>
        <pt x="67" y="589" on="0"/>
        <pt x="81" y="580" on="0"/>
        <pt x="81" y="580" on="1"/>
        <pt x="81" y="61" on="1"/>
        <pt x="84" y="61" on="0"/>
        <pt x="98" y="59" on="0"/>
        <pt x="115" y="58" on="0"/>
        <pt x="130" y="58" on="0"/>
        <pt x="132" y="58" on="1"/>
        <pt x="143" y="59" on="0"/>
        <pt x="186" y="65" on="0"/>
        <pt x="242" y="71" on="0"/>
        <pt x="302" y="78" on="0"/>
        <pt x="357" y="85" on="0"/>
        <pt x="400" y="91" on="0"/>
        <pt x="411" y="93" on="1"/>
        <pt x="425" y="100" on="0"/>
        <pt x="445" y="105" on="0"/>
        <pt x="459" y="105" on="1"/>
        <pt x="472" y="105" on="0"/>
        <pt x="481" y="87" on="0"/>
        <pt x="481" y="76" on="1"/>
        <pt x="481" y="67" on="0"/>
        <pt x="474" y="54" on="0"/>
        <pt x="469" y="46" on="1"/>
        <pt x="418" y="51" on="0"/>
        <pt x="315" y="39" on="0"/>
        <pt x="213" y="18" on="0"/>
        <pt x="113" y="0" on="0"/>
        <pt x="64" y="0" on="1"/>
        <pt x="57" y="0" on="0"/>
        <pt x="33" y="16" on="0"/>
      </contour>
      <contour>
        <pt x="89" y="773" on="1"/>
        <pt x="93" y="779" on="0"/>
        <pt x="103" y="779" on="1"/>
        <pt x="107" y="779" on="0"/>
        <pt x="107" y="778" on="1"/>
        <pt x="130" y="722" on="0"/>
        <pt x="177" y="663" on="0"/>
        <pt x="225" y="646" on="0"/>
        <pt x="272" y="662" on="0"/>
        <pt x="316" y="695" on="0"/>
        <pt x="355" y="737" on="0"/>
        <pt x="371" y="756" on="1"/>
        <pt x="375" y="760" on="0"/>
        <pt x="380" y="762" on="0"/>
        <pt x="384" y="762" on="1"/>
        <pt x="397" y="762" on="0"/>
        <pt x="409" y="747" on="0"/>
        <pt x="409" y="740" on="1"/>
        <pt x="353" y="665" on="0"/>
        <pt x="238" y="611" on="0"/>
        <pt x="147" y="631" on="0"/>
        <pt x="89" y="712" on="0"/>
      </contour>
    </TTGlyph>
    <TTGlyph name="Lcommaaccent" xMin="29" yMin="-349" xMax="481" yMax="591">
      <component glyphName="L" x="0" y="0" flags="0x204"/>
      <component glyphName="commaaccent" x="8" y="0" flags="0x4"/>
    </TTGlyph>
    <TTGlyph name="Ldot" xMin="29" yMin="0" xMax="481" yMax="591">
      <component glyphName="L" x="0" y="0" flags="0x204"/>
      <component glyphName="periodcentered" x="130" y="0" flags="0x4"/>
    </TTGlyph>
    <TTGlyph name="Lslash" xMin="51" yMin="0" xMax="503" yMax="591">
      <component glyphName="L" x="22" y="0" flags="0x4"/>
      <component glyphName="hyphen" x="123" y="-148" scalex="0.562866210938" scaley="1.04302978516" flags="0x4"/>
    </TTGlyph>
    <TTGlyph name="M" xMin="13" yMin="-90" xMax="617" yMax="699">
      <contour>
        <pt x="13" y="604" on="1"/>
        <pt x="13" y="605" on="0"/>
        <pt x="13" y="607" on="1"/>
        <pt x="15" y="609" on="0"/>
        <pt x="22" y="621" on="0"/>
        <pt x="30" y="632" on="0"/>
        <pt x="36" y="641" on="0"/>
        <pt x="37" y="641" on="1"/>
        <pt x="43" y="644" on="0"/>
        <pt x="55" y="648" on="1"/>
        <pt x="60" y="650" on="0"/>
        <pt x="67" y="650" on="1"/>
        <pt x="67" y="594" on="1"/>
        <pt x="234" y="270" on="1"/>
        <pt x="246" y="282" on="1"/>
        <pt x="248" y="292" on="0"/>
        <pt x="265" y="341" on="0"/>
        <pt x="283" y="397" on="0"/>
        <pt x="300" y="445" on="0"/>
        <pt x="303" y="455" on="1"/>
        <pt x="305" y="460" on="0"/>
        <pt x="318" y="486" on="0"/>
        <pt x="335" y="522" on="0"/>
        <pt x="354" y="562" on="0"/>
        <pt x="371" y="598" on="0"/>
        <pt x="383" y="625" on="0"/>
        <pt x="385" y="629" on="1"/>
        <pt x="388" y="635" on="0"/>
        <pt x="391" y="659" on="0"/>
        <pt x="398" y="682" on="0"/>
        <pt x="412" y="699" on="0"/>
        <pt x="425" y="699" on="1"/>
        <pt x="427" y="699" on="0"/>
        <pt x="430" y="698" on="0"/>
        <pt x="431" y="698" on="1"/>
        <pt x="436" y="697" on="0"/>
        <pt x="454" y="688" on="0"/>
        <pt x="454" y="688" on="1"/>
        <pt x="593" y="108" on="1"/>
        <pt x="595" y="105" on="0"/>
        <pt x="602" y="93" on="0"/>
        <pt x="609" y="78" on="0"/>
        <pt x="616" y="65" on="0"/>
        <pt x="616" y="62" on="1"/>
        <pt x="616" y="61" on="0"/>
        <pt x="617" y="57" on="0"/>
        <pt x="617" y="55" on="1"/>
        <pt x="617" y="43" on="0"/>
        <pt x="606" y="25" on="0"/>
        <pt x="593" y="25" on="1"/>
        <pt x="583" y="25" on="0"/>
        <pt x="570" y="34" on="0"/>
        <pt x="571" y="49" on="1"/>
        <pt x="567" y="67" on="0"/>
        <pt x="551" y="139" on="0"/>
        <pt x="530" y="231" on="0"/>
        <pt x="508" y="332" on="0"/>
        <pt x="487" y="424" on="0"/>
        <pt x="471" y="496" on="0"/>
        <pt x="466" y="513" on="1"/>
        <pt x="464" y="519" on="0"/>
        <pt x="454" y="550" on="0"/>
        <pt x="444" y="583" on="0"/>
        <pt x="434" y="612" on="0"/>
        <pt x="431" y="617" on="1"/>
        <pt x="366" y="522" on="0"/>
        <pt x="283" y="300" on="0"/>
        <pt x="257" y="189" on="1"/>
        <pt x="256" y="188" on="0"/>
        <pt x="241" y="187" on="0"/>
        <pt x="239" y="187" on="1"/>
        <pt x="224" y="187" on="0"/>
        <pt x="202" y="220" on="0"/>
        <pt x="187" y="263" on="0"/>
        <pt x="178" y="301" on="0"/>
        <pt x="176" y="305" on="1"/>
        <pt x="173" y="313" on="0"/>
        <pt x="165" y="329" on="1"/>
        <pt x="103" y="453" on="1"/>
        <pt x="93" y="473" on="0"/>
        <pt x="76" y="506" on="0"/>
        <pt x="72" y="513" on="1"/>
        <pt x="72" y="490" on="1"/>
        <pt x="74" y="472" on="0"/>
        <pt x="81" y="394" on="0"/>
        <pt x="90" y="295" on="0"/>
        <pt x="100" y="187" on="0"/>
        <pt x="109" y="88" on="0"/>
        <pt x="116" y="11" on="0"/>
        <pt x="118" y="-8" on="1"/>
        <pt x="123" y="-25" on="0"/>
        <pt x="130" y="-51" on="0"/>
        <pt x="130" y="-67" on="1"/>
        <pt x="130" y="-76" on="0"/>
        <pt x="122" y="-90" on="0"/>
        <pt x="112" y="-90" on="1"/>
        <pt x="102" y="-90" on="0"/>
        <pt x="90" y="-69" on="0"/>
        <pt x="85" y="-44" on="0"/>
        <pt x="83" y="-23" on="0"/>
        <pt x="83" y="-21" on="1"/>
        <pt x="68" y="117" on="0"/>
        <pt x="53" y="389" on="0"/>
        <pt x="37" y="526" on="1"/>
        <pt x="36" y="532" on="0"/>
        <pt x="29" y="552" on="0"/>
        <pt x="20" y="573" on="0"/>
        <pt x="13" y="593" on="0"/>
        <pt x="13" y="600" on="1"/>
      </contour>
    </TTGlyph>
    <TTGlyph name="N" xMin="10" yMin="-49" xMax="533" yMax="659">
      <contour>
        <pt x="40" y="461" on="1"/>
        <pt x="40" y="478" on="0"/>
        <pt x="31" y="509" on="0"/>
        <pt x="19" y="538" on="0"/>
        <pt x="10" y="567" on="0"/>
        <pt x="10" y="583" on="1"/>
        <pt x="10" y="589" on="0"/>
        <pt x="17" y="612" on="0"/>
        <pt x="28" y="635" on="0"/>
        <pt x="40" y="655" on="0"/>
        <pt x="46" y="658" on="1"/>
        <pt x="49" y="657" on="0"/>
        <pt x="62" y="621" on="0"/>
        <pt x="76" y="576" on="0"/>
        <pt x="89" y="535" on="0"/>
        <pt x="92" y="531" on="1"/>
        <pt x="98" y="521" on="0"/>
        <pt x="127" y="482" on="0"/>
        <pt x="163" y="434" on="0"/>
        <pt x="203" y="382" on="0"/>
        <pt x="240" y="334" on="0"/>
        <pt x="270" y="296" on="0"/>
        <pt x="277" y="287" on="1"/>
        <pt x="280" y="283" on="0"/>
        <pt x="314" y="251" on="0"/>
        <pt x="337" y="230" on="1"/>
        <pt x="382" y="190" on="1"/>
        <pt x="404" y="170" on="0"/>
        <pt x="417" y="159" on="1"/>
        <pt x="418" y="157" on="0"/>
        <pt x="436" y="142" on="0"/>
        <pt x="455" y="124" on="0"/>
        <pt x="473" y="109" on="0"/>
        <pt x="475" y="108" on="1"/>
        <pt x="481" y="132" on="0"/>
        <pt x="475" y="196" on="0"/>
        <pt x="475" y="222" on="1"/>
        <pt x="475" y="269" on="0"/>
        <pt x="463" y="362" on="0"/>
        <pt x="450" y="454" on="0"/>
        <pt x="438" y="547" on="0"/>
        <pt x="438" y="594" on="1"/>
        <pt x="438" y="605" on="1"/>
        <pt x="438" y="613" on="0"/>
        <pt x="439" y="630" on="0"/>
        <pt x="439" y="637" on="1"/>
        <pt x="439" y="647" on="1"/>
        <pt x="446" y="659" on="0"/>
        <pt x="457" y="659" on="1"/>
        <pt x="469" y="659" on="0"/>
        <pt x="478" y="638" on="0"/>
        <pt x="479" y="613" on="0"/>
        <pt x="474" y="590" on="0"/>
        <pt x="474" y="589" on="1"/>
        <pt x="533" y="90" on="1"/>
        <pt x="533" y="76" on="0"/>
        <pt x="519" y="60" on="0"/>
        <pt x="501" y="49" on="0"/>
        <pt x="481" y="45" on="0"/>
        <pt x="474" y="44" on="1"/>
        <pt x="473" y="43" on="0"/>
        <pt x="472" y="43" on="1"/>
        <pt x="468" y="43" on="1"/>
        <pt x="462" y="43" on="0"/>
        <pt x="449" y="54" on="0"/>
        <pt x="438" y="68" on="0"/>
        <pt x="430" y="85" on="0"/>
        <pt x="428" y="90" on="1"/>
        <pt x="418" y="101" on="0"/>
        <pt x="373" y="146" on="0"/>
        <pt x="319" y="202" on="0"/>
        <pt x="258" y="265" on="0"/>
        <pt x="203" y="323" on="0"/>
        <pt x="160" y="369" on="0"/>
        <pt x="150" y="380" on="1"/>
        <pt x="145" y="385" on="0"/>
        <pt x="121" y="414" on="0"/>
        <pt x="96" y="448" on="0"/>
        <pt x="73" y="478" on="0"/>
        <pt x="69" y="485" on="1"/>
        <pt x="69" y="450" on="1"/>
        <pt x="69" y="425" on="0"/>
        <pt x="68" y="370" on="0"/>
        <pt x="68" y="345" on="1"/>
        <pt x="68" y="310" on="1"/>
        <pt x="68" y="226" on="0"/>
        <pt x="80" y="62" on="0"/>
        <pt x="80" y="-22" on="1"/>
        <pt x="80" y="-26" on="1"/>
        <pt x="78" y="-29" on="0"/>
        <pt x="61" y="-47" on="0"/>
        <pt x="57" y="-49" on="1"/>
        <pt x="40" y="-37" on="1"/>
      </contour>
    </TTGlyph>
    <TTGlyph name="Nacute" xMin="10" yMin="-49" xMax="533" yMax="940">
      <component glyphName="N" x="0" y="0" flags="0x204"/>
      <component glyphName="acute" x="98" y="143" flags="0x4"/>
    </TTGlyph>
    <TTGlyph name="Ncaron" xMin="10" yMin="-49" xMax="533" yMax="881">
      <component glyphName="N" x="0" y="0" flags="0x204"/>
      <component glyphName="caron" x="30" y="102" flags="0x4"/>
    </TTGlyph>
    <TTGlyph name="Ncommaaccent" xMin="10" yMin="-349" xMax="533" yMax="659">
      <component glyphName="N" x="0" y="0" flags="0x204"/>
      <component glyphName="commaaccent" x="52" y="0" flags="0x4"/>
    </TTGlyph>
    <TTGlyph name="Ntilde" xMin="10" yMin="-49" xMax="533" yMax="873">
      <component glyphName="N" x="0" y="0" flags="0x204"/>
      <component glyphName="tilde" x="26" y="184" flags="0x4"/>
    </TTGlyph>
    <TTGlyph name="O" xMin="17" yMin="-1" xMax="435" yMax="651">
      <contour>
        <pt x="17" y="278" on="1"/>
        <pt x="22" y="319" on="0"/>
        <pt x="31" y="404" on="0"/>
        <pt x="45" y="487" on="0"/>
        <pt x="70" y="562" on="0"/>
        <pt x="115" y="617" on="0"/>
        <pt x="183" y="651" on="0"/>
        <pt x="233" y="651" on="1"/>
        <pt x="274" y="651" on="0"/>
        <pt x="337" y="616" on="0"/>
        <pt x="382" y="558" on="0"/>
        <pt x="410" y="483" on="0"/>
        <pt x="427" y="405" on="0"/>
        <pt x="435" y="327" on="0"/>
        <pt x="435" y="295" on="1"/>
        <pt x="435" y="242" on="0"/>
        <pt x="401" y="137" on="0"/>
        <pt x="338" y="52" on="0"/>
        <pt x="247" y="-1" on="0"/>
        <pt x="189" y="-1" on="1"/>
        <pt x="139" y="-1" on="0"/>
        <pt x="73" y="53" on="0"/>
        <pt x="33" y="134" on="0"/>
        <pt x="17" y="228" on="0"/>
        <pt x="17" y="267" on="1"/>
      </contour>
      <contour>
        <pt x="50" y="269" on="1"/>
        <pt x="50" y="234" on="0"/>
        <pt x="64" y="151" on="0"/>
        <pt x="98" y="81" on="0"/>
        <pt x="157" y="34" on="0"/>
        <pt x="202" y="34" on="1"/>
        <pt x="255" y="34" on="0"/>
        <pt x="330" y="88" on="0"/>
        <pt x="379" y="169" on="0"/>
        <pt x="401" y="265" on="0"/>
        <pt x="401" y="307" on="1"/>
        <pt x="401" y="346" on="0"/>
        <pt x="389" y="453" on="0"/>
        <pt x="352" y="549" on="0"/>
        <pt x="283" y="616" on="0"/>
        <pt x="229" y="616" on="1"/>
        <pt x="191" y="616" on="0"/>
        <pt x="135" y="580" on="0"/>
        <pt x="95" y="521" on="0"/>
        <pt x="70" y="446" on="0"/>
        <pt x="56" y="369" on="0"/>
        <pt x="50" y="296" on="0"/>
      </contour>
    </TTGlyph>
    <TTGlyph name="OE" xMin="17" yMin="-1" xMax="801" yMax="655">
      <contour>
        <pt x="17" y="278" on="1"/>
        <pt x="22" y="319" on="0"/>
        <pt x="31" y="404" on="0"/>
        <pt x="45" y="487" on="0"/>
        <pt x="70" y="562" on="0"/>
        <pt x="115" y="617" on="0"/>
        <pt x="183" y="651" on="0"/>
        <pt x="233" y="651" on="1"/>
        <pt x="274" y="651" on="0"/>
        <pt x="337" y="616" on="0"/>
        <pt x="359" y="587" on="1"/>
        <pt x="381" y="559" on="0"/>
        <pt x="395" y="523" on="1"/>
        <pt x="395" y="632" on="1"/>
        <pt x="397" y="633" on="0"/>
        <pt x="410" y="634" on="0"/>
        <pt x="413" y="634" on="1"/>
        <pt x="423" y="634" on="0"/>
        <pt x="431" y="625" on="0"/>
        <pt x="435" y="616" on="0"/>
        <pt x="439" y="608" on="0"/>
        <pt x="446" y="608" on="1"/>
        <pt x="463" y="608" on="0"/>
        <pt x="512" y="621" on="0"/>
        <pt x="566" y="637" on="0"/>
        <pt x="618" y="652" on="0"/>
        <pt x="638" y="655" on="1"/>
        <pt x="645" y="655" on="1"/>
        <pt x="658" y="655" on="0"/>
        <pt x="675" y="644" on="0"/>
        <pt x="675" y="632" on="1"/>
        <pt x="675" y="630" on="0"/>
        <pt x="674" y="623" on="0"/>
        <pt x="673" y="621" on="1"/>
        <pt x="648" y="619" on="0"/>
        <pt x="581" y="611" on="0"/>
        <pt x="515" y="594" on="0"/>
        <pt x="457" y="564" on="0"/>
        <pt x="441" y="540" on="1"/>
        <pt x="441" y="474" on="1"/>
        <pt x="441" y="451" on="0"/>
        <pt x="442" y="397" on="0"/>
        <pt x="445" y="347" on="0"/>
        <pt x="450" y="306" on="0"/>
        <pt x="454" y="296" on="1"/>
        <pt x="708" y="400" on="1"/>
        <pt x="730" y="399" on="0"/>
        <pt x="744" y="392" on="0"/>
        <pt x="742" y="382" on="0"/>
        <pt x="728" y="372" on="0"/>
        <pt x="720" y="365" on="1"/>
        <pt x="706" y="359" on="0"/>
        <pt x="634" y="327" on="0"/>
        <pt x="552" y="290" on="0"/>
        <pt x="480" y="256" on="0"/>
        <pt x="465" y="249" on="1"/>
        <pt x="458" y="248" on="0"/>
        <pt x="453" y="238" on="0"/>
        <pt x="452" y="226" on="0"/>
        <pt x="453" y="213" on="0"/>
        <pt x="453" y="211" on="1"/>
        <pt x="453" y="181" on="0"/>
        <pt x="466" y="125" on="0"/>
        <pt x="466" y="95" on="1"/>
        <pt x="466" y="83" on="0"/>
        <pt x="449" y="59" on="0"/>
        <pt x="427" y="59" on="1"/>
        <pt x="418" y="189" on="1"/>
        <pt x="401" y="137" on="0"/>
        <pt x="338" y="52" on="0"/>
        <pt x="247" y="-1" on="0"/>
        <pt x="189" y="-1" on="1"/>
        <pt x="139" y="-1" on="0"/>
        <pt x="73" y="53" on="0"/>
        <pt x="33" y="134" on="0"/>
        <pt x="17" y="228" on="0"/>
        <pt x="17" y="267" on="1"/>
      </contour>
      <contour>
        <pt x="50" y="269" on="1"/>
        <pt x="50" y="234" on="0"/>
        <pt x="64" y="151" on="0"/>
        <pt x="98" y="81" on="0"/>
        <pt x="157" y="34" on="0"/>
        <pt x="202" y="34" on="1"/>
        <pt x="255" y="34" on="0"/>
        <pt x="330" y="88" on="0"/>
        <pt x="379" y="169" on="0"/>
        <pt x="401" y="265" on="0"/>
        <pt x="401" y="307" on="1"/>
        <pt x="401" y="346" on="0"/>
        <pt x="389" y="453" on="0"/>
        <pt x="352" y="549" on="0"/>
        <pt x="283" y="616" on="0"/>
        <pt x="229" y="616" on="1"/>
        <pt x="191" y="616" on="0"/>
        <pt x="135" y="580" on="0"/>
        <pt x="95" y="521" on="0"/>
        <pt x="70" y="446" on="0"/>
        <pt x="56" y="369" on="0"/>
        <pt x="50" y="296" on="0"/>
      </contour>
      <contour>
        <pt x="801" y="111" on="1"/>
        <pt x="792" y="108" on="0"/>
        <pt x="754" y="97" on="0"/>
        <pt x="706" y="84" on="0"/>
        <pt x="652" y="68" on="0"/>
        <pt x="605" y="55" on="0"/>
        <pt x="566" y="44" on="0"/>
        <pt x="557" y="41" on="1"/>
        <pt x="534" y="34" on="0"/>
        <pt x="513" y="23" on="0"/>
        <pt x="498" y="16" on="0"/>
        <pt x="479" y="13" on="0"/>
        <pt x="457" y="13" on="1"/>
        <pt x="457" y="38" on="0"/>
        <pt x="467" y="58" on="0"/>
        <pt x="488" y="65" on="1"/>
        <pt x="787" y="148" on="1"/>
      </contour>
    </TTGlyph>
    <TTGlyph name="Oacute" xMin="17" yMin="-1" xMax="435" yMax="981">
      <component glyphName="O" x="0" y="0" flags="0x204"/>
      <component glyphName="acute" x="114" y="184" flags="0x4"/>
    </TTGlyph>
    <TTGlyph name="Obreve" xMin="17" yMin="-1" xMax="435" yMax="906">
      <component glyphName="O" x="0" y="0" flags="0x204"/>
      <component glyphName="breve" x="31" y="184" flags="0x4"/>
    </TTGlyph>
    <TTGlyph name="Ocircumflex" xMin="17" yMin="-1" xMax="435" yMax="1008">
      <component glyphName="O" x="0" y="0" flags="0x204"/>
      <component glyphName="circumflex" x="3" y="46" flags="0x4"/>
    </TTGlyph>
    <TTGlyph name="Odieresis" xMin="17" yMin="-1" xMax="435" yMax="880">
      <component glyphName="O" x="0" y="0" flags="0x204"/>
      <component glyphName="dieresis" x="79" y="184" flags="0x4"/>
    </TTGlyph>
    <TTGlyph name="Ograve" xMin="17" yMin="-1" xMax="435" yMax="981">
      <component glyphName="O" x="0" y="0" flags="0x204"/>
      <component glyphName="grave" x="139" y="184" flags="0x4"/>
    </TTGlyph>
    <TTGlyph name="Ohungarumlaut" xMin="17" yMin="-1" xMax="435" yMax="989">
      <component glyphName="O" x="0" y="0" flags="0x204"/>
      <component glyphName="hungarumlaut" x="73" y="184" flags="0x4"/>
    </TTGlyph>
    <TTGlyph name="Omacron" xMin="17" yMin="-1" xMax="435" yMax="858">
      <component glyphName="O" x="0" y="0" flags="0x204"/>
      <component glyphName="macron" x="9" y="184" flags="0x4"/>
    </TTGlyph>
    <TTGlyph name="Oslash" xMin="17" yMin="-46" xMax="435" yMax="688">
      <contour>
        <pt x="96" y="-12" on="1"/>
        <pt x="96" y="-2" on="0"/>
        <pt x="101" y="6" on="1"/>
        <pt x="104" y="13" on="0"/>
        <pt x="112" y="22" on="1"/>
        <pt x="108" y="23" on="0"/>
        <pt x="105" y="26" on="1"/>
        <pt x="73" y="53" on="0"/>
        <pt x="33" y="134" on="0"/>
        <pt x="17" y="228" on="0"/>
        <pt x="17" y="267" on="1"/>
        <pt x="17" y="278" on="1"/>
        <pt x="22" y="319" on="0"/>
        <pt x="31" y="404" on="0"/>
        <pt x="45" y="487" on="0"/>
        <pt x="70" y="562" on="0"/>
        <pt x="115" y="617" on="0"/>
        <pt x="183" y="651" on="0"/>
        <pt x="233" y="651" on="1"/>
        <pt x="274" y="651" on="0"/>
        <pt x="305" y="633" on="1"/>
        <pt x="316" y="627" on="1"/>
        <pt x="326" y="657" on="1"/>
        <pt x="327" y="664" on="0"/>
        <pt x="357" y="688" on="0"/>
        <pt x="371" y="688" on="1"/>
        <pt x="371" y="643" on="1"/>
        <pt x="364" y="625" on="0"/>
        <pt x="353" y="594" on="1"/>
        <pt x="355" y="590" on="0"/>
        <pt x="359" y="587" on="1"/>
        <pt x="382" y="558" on="0"/>
        <pt x="410" y="483" on="0"/>
        <pt x="427" y="405" on="0"/>
        <pt x="435" y="327" on="0"/>
        <pt x="435" y="295" on="1"/>
        <pt x="435" y="242" on="0"/>
        <pt x="401" y="137" on="0"/>
        <pt x="338" y="52" on="0"/>
        <pt x="247" y="-1" on="0"/>
        <pt x="189" y="-1" on="1"/>
        <pt x="175" y="-1" on="0"/>
        <pt x="164" y="1" on="1"/>
        <pt x="163" y="-1" on="0"/>
        <pt x="163" y="-4" on="1"/>
        <pt x="159" y="-17" on="0"/>
        <pt x="144" y="-40" on="0"/>
        <pt x="128" y="-46" on="1"/>
        <pt x="125" y="-45" on="0"/>
        <pt x="117" y="-37" on="0"/>
        <pt x="106" y="-28" on="0"/>
        <pt x="98" y="-20" on="0"/>
        <pt x="97" y="-18" on="1"/>
        <pt x="96" y="-16" on="0"/>
        <pt x="96" y="-15" on="1"/>
      </contour>
      <contour>
        <pt x="50" y="269" on="1"/>
        <pt x="50" y="234" on="0"/>
        <pt x="64" y="151" on="0"/>
        <pt x="81" y="116" on="1"/>
        <pt x="97" y="82" on="0"/>
        <pt x="125" y="59" on="1"/>
        <pt x="304" y="593" on="1"/>
        <pt x="274" y="616" on="0"/>
        <pt x="229" y="616" on="1"/>
        <pt x="191" y="616" on="0"/>
        <pt x="135" y="580" on="0"/>
        <pt x="95" y="521" on="0"/>
        <pt x="70" y="446" on="0"/>
        <pt x="56" y="369" on="0"/>
        <pt x="50" y="296" on="0"/>
      </contour>
      <contour>
        <pt x="202" y="34" on="1"/>
        <pt x="255" y="34" on="0"/>
        <pt x="330" y="88" on="0"/>
        <pt x="379" y="169" on="0"/>
        <pt x="401" y="265" on="0"/>
        <pt x="401" y="307" on="1"/>
        <pt x="401" y="346" on="0"/>
        <pt x="389" y="453" on="0"/>
        <pt x="370" y="500" on="1"/>
        <pt x="358" y="532" on="0"/>
        <pt x="340" y="556" on="1"/>
        <pt x="328" y="517" on="0"/>
        <pt x="311" y="469" on="1"/>
        <pt x="292" y="410" on="0"/>
        <pt x="250" y="283" on="0"/>
        <pt x="211" y="165" on="0"/>
        <pt x="181" y="73" on="0"/>
        <pt x="174" y="50" on="1"/>
        <pt x="172" y="44" on="0"/>
        <pt x="170" y="37" on="1"/>
        <pt x="185" y="34" on="0"/>
      </contour>
    </TTGlyph>
    <TTGlyph name="Oslashacute" xMin="17" yMin="-1" xMax="435" yMax="982">
      <contour>
        <pt x="17" y="278" on="1"/>
        <pt x="22" y="319" on="0"/>
        <pt x="31" y="404" on="0"/>
        <pt x="45" y="487" on="0"/>
        <pt x="70" y="562" on="0"/>
        <pt x="115" y="617" on="0"/>
        <pt x="183" y="651" on="0"/>
        <pt x="233" y="651" on="1"/>
        <pt x="274" y="651" on="0"/>
        <pt x="305" y="633" on="1"/>
        <pt x="318" y="625" on="0"/>
        <pt x="329" y="616" on="1"/>
        <pt x="331" y="617" on="0"/>
        <pt x="334" y="617" on="1"/>
        <pt x="334" y="613" on="1"/>
        <pt x="347" y="601" on="0"/>
        <pt x="359" y="587" on="1"/>
        <pt x="382" y="558" on="0"/>
        <pt x="410" y="483" on="0"/>
        <pt x="427" y="405" on="0"/>
        <pt x="435" y="327" on="0"/>
        <pt x="435" y="295" on="1"/>
        <pt x="435" y="242" on="0"/>
        <pt x="401" y="137" on="0"/>
        <pt x="338" y="52" on="0"/>
        <pt x="247" y="-1" on="0"/>
        <pt x="189" y="-1" on="1"/>
        <pt x="170" y="-1" on="0"/>
        <pt x="154" y="3" on="1"/>
        <pt x="151" y="1" on="0"/>
        <pt x="148" y="0" on="1"/>
        <pt x="147" y="1" on="0"/>
        <pt x="143" y="4" on="1"/>
        <pt x="141" y="6" on="1"/>
        <pt x="121" y="13" on="0"/>
        <pt x="105" y="26" on="1"/>
        <pt x="73" y="53" on="0"/>
        <pt x="33" y="134" on="0"/>
        <pt x="17" y="228" on="0"/>
        <pt x="17" y="267" on="1"/>
      </contour>
      <contour>
        <pt x="50" y="269" on="1"/>
        <pt x="50" y="234" on="0"/>
        <pt x="64" y="151" on="0"/>
        <pt x="98" y="81" on="0"/>
        <pt x="128" y="58" on="1"/>
        <pt x="133" y="53" on="1"/>
        <pt x="138" y="58" on="1"/>
        <pt x="300" y="591" on="1"/>
        <pt x="300" y="593" on="0"/>
        <pt x="301" y="596" on="1"/>
        <pt x="271" y="616" on="0"/>
        <pt x="229" y="616" on="1"/>
        <pt x="191" y="616" on="0"/>
        <pt x="135" y="580" on="0"/>
        <pt x="95" y="521" on="0"/>
        <pt x="70" y="446" on="0"/>
        <pt x="56" y="369" on="0"/>
        <pt x="50" y="296" on="0"/>
      </contour>
      <contour>
        <pt x="202" y="34" on="1"/>
        <pt x="255" y="34" on="0"/>
        <pt x="330" y="88" on="0"/>
        <pt x="379" y="169" on="0"/>
        <pt x="401" y="265" on="0"/>
        <pt x="401" y="307" on="1"/>
        <pt x="401" y="346" on="0"/>
        <pt x="389" y="453" on="0"/>
        <pt x="370" y="500" on="1"/>
        <pt x="355" y="540" on="0"/>
        <pt x="330" y="569" on="1"/>
        <pt x="325" y="552" on="0"/>
        <pt x="316" y="522" on="1"/>
        <pt x="304" y="483" on="0"/>
        <pt x="289" y="434" on="1"/>
        <pt x="227" y="227" on="1"/>
        <pt x="212" y="177" on="0"/>
        <pt x="189" y="100" on="0"/>
        <pt x="184" y="81" on="1"/>
        <pt x="181" y="70" on="0"/>
        <pt x="178" y="47" on="0"/>
        <pt x="175" y="36" on="1"/>
        <pt x="188" y="34" on="0"/>
      </contour>
      <contour>
        <pt x="184" y="805" on="1"/>
        <pt x="171" y="797" on="1"/>
        <pt x="161" y="803" on="0"/>
        <pt x="166" y="828" on="0"/>
        <pt x="168" y="835" on="1"/>
        <pt x="169" y="839" on="0"/>
        <pt x="174" y="855" on="0"/>
        <pt x="175" y="859" on="1"/>
        <pt x="181" y="866" on="0"/>
        <pt x="198" y="890" on="0"/>
        <pt x="215" y="915" on="0"/>
        <pt x="232" y="938" on="0"/>
        <pt x="238" y="945" on="1"/>
        <pt x="242" y="950" on="0"/>
        <pt x="254" y="964" on="0"/>
        <pt x="268" y="976" on="0"/>
        <pt x="283" y="982" on="0"/>
        <pt x="291" y="980" on="1"/>
        <pt x="292" y="979" on="0"/>
        <pt x="299" y="976" on="0"/>
        <pt x="301" y="976" on="1"/>
      </contour>
    </TTGlyph>
    <TTGlyph name="Otilde" xMin="17" yMin="-1" xMax="435" yMax="873">
      <component glyphName="O" x="0" y="0" flags="0x204"/>
      <component glyphName="tilde" x="-30" y="184" flags="0x4"/>
    </TTGlyph>
    <TTGlyph name="P" xMin="22" yMin="0" xMax="441" yMax="732">
      <contour>
        <pt x="58" y="615" on="1"/>
        <pt x="49" y="608" on="0"/>
        <pt x="34" y="613" on="0"/>
        <pt x="26" y="626" on="0"/>
        <pt x="22" y="643" on="0"/>
        <pt x="22" y="650" on="1"/>
        <pt x="22" y="655" on="0"/>
        <pt x="34" y="682" on="0"/>
        <pt x="50" y="710" on="0"/>
        <pt x="65" y="732" on="0"/>
        <pt x="67" y="732" on="1"/>
        <pt x="108" y="732" on="0"/>
        <pt x="195" y="717" on="0"/>
        <pt x="279" y="688" on="0"/>
        <pt x="353" y="642" on="0"/>
        <pt x="409" y="579" on="0"/>
        <pt x="441" y="498" on="0"/>
        <pt x="441" y="448" on="1"/>
        <pt x="441" y="401" on="0"/>
        <pt x="398" y="306" on="0"/>
        <pt x="326" y="229" on="0"/>
        <pt x="234" y="180" on="0"/>
        <pt x="185" y="180" on="1"/>
        <pt x="185" y="226" on="1"/>
        <pt x="226" y="226" on="0"/>
        <pt x="306" y="267" on="0"/>
        <pt x="368" y="332" on="0"/>
        <pt x="407" y="413" on="0"/>
        <pt x="407" y="453" on="1"/>
        <pt x="407" y="495" on="0"/>
        <pt x="364" y="574" on="0"/>
        <pt x="297" y="636" on="0"/>
        <pt x="215" y="674" on="0"/>
        <pt x="175" y="674" on="1"/>
        <pt x="154" y="674" on="0"/>
        <pt x="122" y="671" on="0"/>
        <pt x="104" y="661" on="1"/>
        <pt x="104" y="645" on="1"/>
        <pt x="104" y="635" on="0"/>
        <pt x="103" y="611" on="0"/>
        <pt x="103" y="600" on="1"/>
        <pt x="103" y="585" on="1"/>
        <pt x="103" y="530" on="0"/>
        <pt x="106" y="429" on="0"/>
        <pt x="112" y="328" on="0"/>
        <pt x="121" y="222" on="0"/>
        <pt x="127" y="162" on="1"/>
        <pt x="127" y="157" on="0"/>
        <pt x="134" y="120" on="0"/>
        <pt x="142" y="77" on="0"/>
        <pt x="149" y="40" on="0"/>
        <pt x="150" y="35" on="1"/>
        <pt x="150" y="34" on="0"/>
        <pt x="151" y="30" on="0"/>
        <pt x="151" y="29" on="1"/>
        <pt x="151" y="28" on="0"/>
        <pt x="150" y="26" on="0"/>
        <pt x="150" y="25" on="1"/>
        <pt x="150" y="23" on="1"/>
        <pt x="149" y="22" on="0"/>
        <pt x="143" y="15" on="0"/>
        <pt x="136" y="7" on="0"/>
        <pt x="129" y="1" on="0"/>
        <pt x="127" y="0" on="1"/>
        <pt x="116" y="12" on="1"/>
        <pt x="114" y="13" on="0"/>
        <pt x="108" y="43" on="0"/>
        <pt x="100" y="84" on="0"/>
        <pt x="93" y="126" on="0"/>
        <pt x="92" y="139" on="1"/>
        <pt x="90" y="157" on="0"/>
        <pt x="85" y="231" on="0"/>
        <pt x="77" y="325" on="0"/>
        <pt x="70" y="428" on="0"/>
        <pt x="64" y="522" on="0"/>
        <pt x="59" y="597" on="0"/>
      </contour>
    </TTGlyph>
    <TTGlyph name="Q" xMin="17" yMin="0" xMax="517" yMax="674">
      <contour>
        <pt x="17" y="232" on="1"/>
        <pt x="17" y="243" on="0"/>
        <pt x="20" y="298" on="0"/>
        <pt x="24" y="360" on="0"/>
        <pt x="28" y="417" on="0"/>
        <pt x="30" y="428" on="1"/>
        <pt x="30" y="433" on="0"/>
        <pt x="35" y="464" on="0"/>
        <pt x="42" y="501" on="0"/>
        <pt x="49" y="536" on="0"/>
        <pt x="52" y="544" on="1"/>
        <pt x="56" y="558" on="0"/>
        <pt x="68" y="602" on="0"/>
        <pt x="89" y="644" on="0"/>
        <pt x="119" y="674" on="0"/>
        <pt x="139" y="674" on="1"/>
        <pt x="145" y="674" on="0"/>
        <pt x="157" y="673" on="0"/>
        <pt x="166" y="669" on="0"/>
        <pt x="170" y="658" on="0"/>
        <pt x="168" y="649" on="1"/>
        <pt x="127" y="616" on="0"/>
        <pt x="80" y="531" on="0"/>
        <pt x="57" y="435" on="0"/>
        <pt x="51" y="332" on="0"/>
        <pt x="51" y="283" on="1"/>
        <pt x="51" y="242" on="0"/>
        <pt x="61" y="157" on="0"/>
        <pt x="93" y="88" on="0"/>
        <pt x="151" y="45" on="0"/>
        <pt x="200" y="45" on="1"/>
        <pt x="209" y="45" on="0"/>
        <pt x="253" y="55" on="0"/>
        <pt x="297" y="71" on="0"/>
        <pt x="331" y="93" on="0"/>
        <pt x="331" y="104" on="1"/>
        <pt x="331" y="116" on="1"/>
        <pt x="326" y="119" on="0"/>
        <pt x="299" y="135" on="0"/>
        <pt x="269" y="153" on="0"/>
        <pt x="243" y="170" on="0"/>
        <pt x="238" y="175" on="1"/>
        <pt x="235" y="176" on="0"/>
        <pt x="221" y="189" on="0"/>
        <pt x="207" y="203" on="0"/>
        <pt x="194" y="218" on="0"/>
        <pt x="192" y="220" on="1"/>
        <pt x="191" y="221" on="0"/>
        <pt x="191" y="222" on="1"/>
        <pt x="191" y="226" on="1"/>
        <pt x="191" y="236" on="0"/>
        <pt x="206" y="244" on="0"/>
        <pt x="215" y="244" on="1"/>
        <pt x="232" y="244" on="0"/>
        <pt x="263" y="218" on="0"/>
        <pt x="295" y="186" on="0"/>
        <pt x="331" y="160" on="0"/>
        <pt x="355" y="160" on="1"/>
        <pt x="373" y="160" on="0"/>
        <pt x="393" y="207" on="0"/>
        <pt x="400" y="267" on="0"/>
        <pt x="400" y="295" on="1"/>
        <pt x="400" y="335" on="1"/>
        <pt x="400" y="375" on="0"/>
        <pt x="382" y="466" on="0"/>
        <pt x="340" y="543" on="0"/>
        <pt x="273" y="592" on="0"/>
        <pt x="224" y="592" on="1"/>
        <pt x="210" y="592" on="0"/>
        <pt x="193" y="584" on="0"/>
        <pt x="179" y="573" on="0"/>
        <pt x="165" y="565" on="0"/>
        <pt x="153" y="565" on="1"/>
        <pt x="153" y="599" on="0"/>
        <pt x="177" y="638" on="0"/>
        <pt x="214" y="638" on="1"/>
        <pt x="276" y="638" on="0"/>
        <pt x="362" y="577" on="0"/>
        <pt x="413" y="483" on="0"/>
        <pt x="436" y="371" on="0"/>
        <pt x="436" y="320" on="1"/>
        <pt x="436" y="272" on="0"/>
        <pt x="418" y="185" on="0"/>
        <pt x="400" y="139" on="1"/>
        <pt x="406" y="137" on="0"/>
        <pt x="436" y="124" on="0"/>
        <pt x="470" y="109" on="0"/>
        <pt x="499" y="95" on="0"/>
        <pt x="504" y="93" on="1"/>
        <pt x="514" y="88" on="0"/>
        <pt x="517" y="78" on="0"/>
        <pt x="517" y="69" on="1"/>
        <pt x="517" y="45" on="0"/>
        <pt x="493" y="45" on="1"/>
        <pt x="477" y="45" on="0"/>
        <pt x="450" y="60" on="0"/>
        <pt x="424" y="77" on="0"/>
        <pt x="398" y="93" on="0"/>
        <pt x="382" y="93" on="1"/>
        <pt x="374" y="93" on="0"/>
        <pt x="334" y="64" on="0"/>
        <pt x="281" y="29" on="0"/>
        <pt x="223" y="0" on="0"/>
        <pt x="197" y="0" on="1"/>
        <pt x="149" y="0" on="0"/>
        <pt x="81" y="40" on="0"/>
        <pt x="38" y="106" on="0"/>
        <pt x="17" y="189" on="0"/>
      </contour>
    </TTGlyph>
    <TTGlyph name="R" xMin="32" yMin="-1" xMax="550" yMax="755">
      <contour>
        <pt x="46" y="568" on="1"/>
        <pt x="39" y="579" on="0"/>
        <pt x="33" y="607" on="0"/>
        <pt x="32" y="635" on="0"/>
        <pt x="33" y="662" on="0"/>
        <pt x="33" y="673" on="1"/>
        <pt x="33" y="687" on="1"/>
        <pt x="33" y="697" on="0"/>
        <pt x="34" y="718" on="0"/>
        <pt x="35" y="738" on="0"/>
        <pt x="35" y="742" on="1"/>
        <pt x="36" y="745" on="0"/>
        <pt x="54" y="755" on="0"/>
        <pt x="58" y="754" on="1"/>
        <pt x="75" y="750" on="0"/>
        <pt x="81" y="724" on="0"/>
        <pt x="79" y="695" on="0"/>
        <pt x="80" y="673" on="0"/>
        <pt x="92" y="673" on="1"/>
        <pt x="231" y="673" on="1"/>
        <pt x="253" y="673" on="0"/>
        <pt x="281" y="647" on="0"/>
        <pt x="297" y="609" on="0"/>
        <pt x="302" y="569" on="0"/>
        <pt x="302" y="554" on="1"/>
        <pt x="302" y="509" on="0"/>
        <pt x="274" y="420" on="0"/>
        <pt x="230" y="334" on="0"/>
        <pt x="182" y="255" on="0"/>
        <pt x="162" y="220" on="1"/>
        <pt x="162" y="202" on="1"/>
        <pt x="208" y="202" on="0"/>
        <pt x="271" y="210" on="0"/>
        <pt x="328" y="219" on="0"/>
        <pt x="391" y="227" on="0"/>
        <pt x="438" y="227" on="1"/>
        <pt x="458" y="227" on="1"/>
        <pt x="472" y="227" on="0"/>
        <pt x="504" y="226" on="0"/>
        <pt x="517" y="226" on="1"/>
        <pt x="537" y="226" on="1"/>
        <pt x="546" y="222" on="0"/>
        <pt x="550" y="209" on="0"/>
        <pt x="550" y="202" on="1"/>
        <pt x="550" y="190" on="0"/>
        <pt x="541" y="171" on="0"/>
        <pt x="526" y="167" on="1"/>
        <pt x="489" y="183" on="0"/>
        <pt x="417" y="189" on="0"/>
        <pt x="346" y="183" on="0"/>
        <pt x="279" y="167" on="0"/>
        <pt x="211" y="156" on="0"/>
        <pt x="142" y="150" on="0"/>
        <pt x="107" y="157" on="1"/>
        <pt x="107" y="125" on="0"/>
        <pt x="116" y="65" on="0"/>
        <pt x="116" y="33" on="1"/>
        <pt x="116" y="23" on="0"/>
        <pt x="113" y="-1" on="0"/>
        <pt x="99" y="-1" on="1"/>
        <pt x="93" y="-1" on="0"/>
        <pt x="83" y="4" on="0"/>
        <pt x="81" y="12" on="1"/>
        <pt x="80" y="15" on="0"/>
        <pt x="76" y="39" on="0"/>
        <pt x="73" y="64" on="0"/>
        <pt x="70" y="87" on="0"/>
        <pt x="69" y="93" on="1"/>
        <pt x="68" y="111" on="0"/>
        <pt x="64" y="184" on="0"/>
        <pt x="59" y="279" on="0"/>
        <pt x="54" y="382" on="0"/>
        <pt x="49" y="476" on="0"/>
        <pt x="47" y="550" on="0"/>
      </contour>
      <contour>
        <pt x="81" y="580" on="1"/>
        <pt x="82" y="565" on="0"/>
        <pt x="85" y="506" on="0"/>
        <pt x="90" y="430" on="0"/>
        <pt x="95" y="347" on="0"/>
        <pt x="100" y="272" on="0"/>
        <pt x="103" y="211" on="0"/>
        <pt x="104" y="197" on="1"/>
        <pt x="128" y="234" on="0"/>
        <pt x="184" y="321" on="0"/>
        <pt x="234" y="414" on="0"/>
        <pt x="267" y="510" on="0"/>
        <pt x="267" y="556" on="1"/>
        <pt x="267" y="575" on="0"/>
        <pt x="252" y="606" on="0"/>
        <pt x="227" y="627" on="0"/>
        <pt x="193" y="638" on="0"/>
        <pt x="175" y="638" on="1"/>
        <pt x="166" y="638" on="0"/>
        <pt x="134" y="634" on="0"/>
        <pt x="103" y="624" on="0"/>
        <pt x="81" y="606" on="0"/>
        <pt x="81" y="592" on="1"/>
      </contour>
    </TTGlyph>
    <TTGlyph name="Racute" xMin="32" yMin="-1" xMax="550" yMax="981">
      <component glyphName="R" x="0" y="0" flags="0x204"/>
      <component glyphName="acute" x="145" y="184" flags="0x4"/>
    </TTGlyph>
    <TTGlyph name="Rcaron" xMin="32" yMin="-1" xMax="550" yMax="963">
      <component glyphName="R" x="0" y="0" flags="0x204"/>
      <component glyphName="caron" x="11" y="184" flags="0x4"/>
    </TTGlyph>
    <TTGlyph name="Rcommaaccent" xMin="32" yMin="-349" xMax="550" yMax="755">
      <component glyphName="R" x="0" y="0" flags="0x204"/>
      <component glyphName="commaaccent" x="25" y="0" flags="0x4"/>
    </TTGlyph>
    <TTGlyph name="S" xMin="6" yMin="0" xMax="447" yMax="684">
      <contour>
        <pt x="132" y="64" on="1"/>
        <pt x="132" y="76" on="0"/>
        <pt x="148" y="97" on="0"/>
        <pt x="157" y="104" on="1"/>
        <pt x="159" y="76" on="0"/>
        <pt x="191" y="45" on="0"/>
        <pt x="219" y="45" on="1"/>
        <pt x="244" y="45" on="0"/>
        <pt x="308" y="63" on="0"/>
        <pt x="363" y="97" on="0"/>
        <pt x="400" y="146" on="0"/>
        <pt x="400" y="176" on="1"/>
        <pt x="400" y="212" on="0"/>
        <pt x="344" y="256" on="0"/>
        <pt x="258" y="287" on="0"/>
        <pt x="158" y="315" on="0"/>
        <pt x="73" y="355" on="0"/>
        <pt x="16" y="415" on="0"/>
        <pt x="16" y="463" on="1"/>
        <pt x="6" y="491" on="0"/>
        <pt x="39" y="548" on="0"/>
        <pt x="100" y="598" on="0"/>
        <pt x="180" y="642" on="0"/>
        <pt x="255" y="670" on="0"/>
        <pt x="315" y="684" on="0"/>
        <pt x="337" y="676" on="0"/>
        <pt x="310" y="644" on="0"/>
        <pt x="261" y="614" on="1"/>
        <pt x="254" y="614" on="0"/>
        <pt x="240" y="616" on="0"/>
        <pt x="238" y="625" on="1"/>
        <pt x="216" y="617" on="0"/>
        <pt x="156" y="583" on="0"/>
        <pt x="101" y="538" on="0"/>
        <pt x="63" y="485" on="0"/>
        <pt x="63" y="459" on="1"/>
        <pt x="63" y="418" on="0"/>
        <pt x="120" y="371" on="0"/>
        <pt x="205" y="338" on="0"/>
        <pt x="305" y="311" on="0"/>
        <pt x="391" y="274" on="0"/>
        <pt x="447" y="215" on="0"/>
        <pt x="447" y="167" on="1"/>
        <pt x="447" y="140" on="0"/>
        <pt x="421" y="95" on="0"/>
        <pt x="379" y="58" on="0"/>
        <pt x="325" y="30" on="0"/>
        <pt x="268" y="10" on="0"/>
        <pt x="213" y="0" on="0"/>
        <pt x="192" y="0" on="1"/>
        <pt x="182" y="0" on="0"/>
        <pt x="161" y="13" on="0"/>
        <pt x="144" y="33" on="0"/>
        <pt x="132" y="55" on="0"/>
      </contour>
    </TTGlyph>
    <TTGlyph name="Sacute" xMin="6" yMin="0" xMax="447" yMax="863">
      <component glyphName="S" x="0" y="0" flags="0x204"/>
      <component glyphName="acute" x="58" y="66" flags="0x4"/>
    </TTGlyph>
    <TTGlyph name="Scaron" xMin="6" yMin="0" xMax="447" yMax="963">
      <component glyphName="S" x="0" y="0" flags="0x204"/>
      <component glyphName="caron" x="-12" y="184" flags="0x4"/>
    </TTGlyph>
    <TTGlyph name="Scedilla" xMin="6" yMin="-303" xMax="447" yMax="684">
      <contour>
        <pt x="272" y="-275" on="1"/>
        <pt x="272" y="-266" on="0"/>
        <pt x="274" y="-251" on="0"/>
        <pt x="278" y="-246" on="0"/>
        <pt x="285" y="-250" on="0"/>
        <pt x="290" y="-261" on="1"/>
        <pt x="303" y="-261" on="0"/>
        <pt x="342" y="-254" on="0"/>
        <pt x="379" y="-234" on="0"/>
        <pt x="405" y="-196" on="0"/>
        <pt x="405" y="-166" on="1"/>
        <pt x="405" y="-144" on="0"/>
        <pt x="382" y="-125" on="0"/>
        <pt x="347" y="-113" on="0"/>
        <pt x="306" y="-104" on="0"/>
        <pt x="272" y="-82" on="0"/>
        <pt x="248" y="-41" on="0"/>
        <pt x="248" y="-3" on="1"/>
        <pt x="247" y="2" on="0"/>
        <pt x="247" y="6" on="1"/>
        <pt x="240" y="4" on="1"/>
        <pt x="213" y="0" on="0"/>
        <pt x="192" y="0" on="1"/>
        <pt x="182" y="0" on="0"/>
        <pt x="161" y="13" on="0"/>
        <pt x="144" y="33" on="0"/>
        <pt x="132" y="55" on="0"/>
        <pt x="132" y="64" on="1"/>
        <pt x="132" y="76" on="0"/>
        <pt x="148" y="97" on="0"/>
        <pt x="157" y="104" on="1"/>
        <pt x="159" y="76" on="0"/>
        <pt x="191" y="45" on="0"/>
        <pt x="219" y="45" on="1"/>
        <pt x="244" y="45" on="0"/>
        <pt x="308" y="63" on="0"/>
        <pt x="363" y="97" on="0"/>
        <pt x="400" y="146" on="0"/>
        <pt x="400" y="176" on="1"/>
        <pt x="400" y="212" on="0"/>
        <pt x="344" y="256" on="0"/>
        <pt x="258" y="287" on="0"/>
        <pt x="158" y="315" on="0"/>
        <pt x="73" y="355" on="0"/>
        <pt x="16" y="415" on="0"/>
        <pt x="16" y="463" on="1"/>
        <pt x="6" y="491" on="0"/>
        <pt x="39" y="548" on="0"/>
        <pt x="100" y="598" on="0"/>
        <pt x="180" y="642" on="0"/>
        <pt x="255" y="670" on="0"/>
        <pt x="315" y="684" on="0"/>
        <pt x="337" y="676" on="0"/>
        <pt x="310" y="644" on="0"/>
        <pt x="261" y="614" on="1"/>
        <pt x="254" y="614" on="0"/>
        <pt x="240" y="616" on="0"/>
        <pt x="238" y="625" on="1"/>
        <pt x="216" y="617" on="0"/>
        <pt x="156" y="583" on="0"/>
        <pt x="101" y="538" on="0"/>
        <pt x="63" y="485" on="0"/>
        <pt x="63" y="459" on="1"/>
        <pt x="63" y="418" on="0"/>
        <pt x="120" y="371" on="0"/>
        <pt x="205" y="338" on="0"/>
        <pt x="305" y="311" on="0"/>
        <pt x="391" y="274" on="0"/>
        <pt x="447" y="215" on="0"/>
        <pt x="447" y="167" on="1"/>
        <pt x="447" y="140" on="0"/>
        <pt x="421" y="95" on="0"/>
        <pt x="379" y="58" on="0"/>
        <pt x="325" y="30" on="0"/>
        <pt x="296" y="20" on="1"/>
        <pt x="283" y="15" on="0"/>
        <pt x="270" y="11" on="1"/>
        <pt x="270" y="2" on="0"/>
        <pt x="265" y="-5" on="1"/>
        <pt x="265" y="-29" on="0"/>
        <pt x="281" y="-50" on="0"/>
        <pt x="294" y="-57" on="1"/>
        <pt x="301" y="-60" on="0"/>
        <pt x="331" y="-75" on="0"/>
        <pt x="364" y="-89" on="0"/>
        <pt x="394" y="-103" on="0"/>
        <pt x="400" y="-104" on="1"/>
        <pt x="412" y="-116" on="0"/>
        <pt x="429" y="-143" on="0"/>
        <pt x="429" y="-167" on="1"/>
        <pt x="429" y="-201" on="0"/>
        <pt x="398" y="-252" on="0"/>
        <pt x="353" y="-286" on="0"/>
        <pt x="305" y="-303" on="0"/>
        <pt x="288" y="-303" on="1"/>
        <pt x="277" y="-303" on="0"/>
        <pt x="272" y="-293" on="0"/>
      </contour>
    </TTGlyph>
    <TTGlyph name="Scircumflex" xMin="6" yMin="0" xMax="447" yMax="993">
      <component glyphName="S" x="0" y="0" flags="0x204"/>
      <component glyphName="circumflex" x="23" y="31" flags="0x4"/>
    </TTGlyph>
    <TTGlyph name="T" xMin="11" yMin="-1" xMax="653" yMax="744">
      <contour>
        <pt x="290" y="9" on="1"/>
        <pt x="287" y="79" on="0"/>
        <pt x="283" y="229" on="0"/>
        <pt x="274" y="382" on="0"/>
        <pt x="257" y="533" on="0"/>
        <pt x="244" y="603" on="1"/>
        <pt x="240" y="619" on="0"/>
        <pt x="234" y="627" on="0"/>
        <pt x="222" y="627" on="1"/>
        <pt x="198" y="627" on="0"/>
        <pt x="154" y="612" on="0"/>
        <pt x="109" y="594" on="0"/>
        <pt x="65" y="579" on="0"/>
        <pt x="40" y="579" on="1"/>
        <pt x="27" y="579" on="0"/>
        <pt x="11" y="588" on="0"/>
        <pt x="11" y="603" on="1"/>
        <pt x="11" y="610" on="0"/>
        <pt x="14" y="624" on="0"/>
        <pt x="24" y="625" on="1"/>
        <pt x="220" y="673" on="1"/>
        <pt x="218" y="695" on="0"/>
        <pt x="229" y="708" on="0"/>
        <pt x="242" y="708" on="1"/>
        <pt x="259" y="708" on="0"/>
        <pt x="283" y="695" on="0"/>
        <pt x="301" y="695" on="1"/>
        <pt x="346" y="695" on="0"/>
        <pt x="434" y="710" on="0"/>
        <pt x="522" y="729" on="0"/>
        <pt x="609" y="744" on="0"/>
        <pt x="653" y="744" on="1"/>
        <pt x="653" y="734" on="1"/>
        <pt x="653" y="727" on="0"/>
        <pt x="652" y="711" on="0"/>
        <pt x="644" y="697" on="0"/>
        <pt x="638" y="696" on="1"/>
        <pt x="627" y="695" on="0"/>
        <pt x="584" y="690" on="0"/>
        <pt x="529" y="683" on="0"/>
        <pt x="469" y="676" on="0"/>
        <pt x="413" y="669" on="0"/>
        <pt x="370" y="662" on="0"/>
        <pt x="359" y="661" on="1"/>
        <pt x="350" y="659" on="0"/>
        <pt x="323" y="652" on="0"/>
        <pt x="297" y="645" on="0"/>
        <pt x="278" y="639" on="0"/>
        <pt x="278" y="638" on="1"/>
        <pt x="278" y="625" on="1"/>
        <pt x="336" y="22" on="1"/>
        <pt x="336" y="9" on="1"/>
        <pt x="335" y="7" on="0"/>
        <pt x="328" y="2" on="0"/>
        <pt x="316" y="-1" on="0"/>
        <pt x="300" y="2" on="0"/>
      </contour>
    </TTGlyph>
    <TTGlyph name="Tcaron" xMin="11" yMin="-1" xMax="653" yMax="963">
      <component glyphName="T" x="0" y="0" flags="0x204"/>
      <component glyphName="caron" x="2" y="184" flags="0x4"/>
    </TTGlyph>
    <TTGlyph name="Tcommaaccent" xMin="11" yMin="-339" xMax="653" yMax="744">
      <component glyphName="T" x="0" y="0" flags="0x204"/>
      <component glyphName="commaaccent" x="109" y="10" flags="0x4"/>
    </TTGlyph>
    <TTGlyph name="Thorn" xMin="34" yMin="-78" xMax="363" yMax="801">
      <contour>
        <pt x="34" y="783" on="1"/>
        <pt x="34" y="793" on="0"/>
        <pt x="49" y="801" on="0"/>
        <pt x="57" y="801" on="1"/>
        <pt x="58" y="801" on="0"/>
        <pt x="67" y="799" on="0"/>
        <pt x="69" y="799" on="1"/>
        <pt x="94" y="425" on="1"/>
        <pt x="101" y="450" on="0"/>
        <pt x="121" y="493" on="0"/>
        <pt x="149" y="525" on="0"/>
        <pt x="190" y="543" on="0"/>
        <pt x="218" y="543" on="1"/>
        <pt x="252" y="543" on="0"/>
        <pt x="306" y="511" on="0"/>
        <pt x="343" y="460" on="0"/>
        <pt x="363" y="397" on="0"/>
        <pt x="363" y="366" on="1"/>
        <pt x="363" y="320" on="0"/>
        <pt x="318" y="237" on="0"/>
        <pt x="246" y="173" on="0"/>
        <pt x="157" y="135" on="0"/>
        <pt x="112" y="135" on="1"/>
        <pt x="112" y="78" on="0"/>
        <pt x="111" y="3" on="0"/>
        <pt x="107" y="-45" on="0"/>
        <pt x="100" y="-69" on="0"/>
        <pt x="89" y="-78" on="0"/>
        <pt x="75" y="-77" on="0"/>
        <pt x="66" y="-76" on="1"/>
        <pt x="62" y="-22" on="0"/>
        <pt x="56" y="117" on="0"/>
        <pt x="51" y="269" on="0"/>
        <pt x="48" y="429" on="0"/>
        <pt x="43" y="582" on="0"/>
        <pt x="38" y="721" on="0"/>
        <pt x="34" y="776" on="1"/>
      </contour>
      <contour>
        <pt x="211" y="507" on="1"/>
        <pt x="186" y="507" on="0"/>
        <pt x="149" y="464" on="0"/>
        <pt x="125" y="411" on="0"/>
        <pt x="113" y="364" on="0"/>
        <pt x="112" y="357" on="1"/>
        <pt x="112" y="349" on="0"/>
        <pt x="112" y="296" on="0"/>
        <pt x="113" y="237" on="0"/>
        <pt x="114" y="184" on="0"/>
        <pt x="114" y="175" on="1"/>
        <pt x="148" y="175" on="0"/>
        <pt x="222" y="206" on="0"/>
        <pt x="286" y="257" on="0"/>
        <pt x="328" y="325" on="0"/>
        <pt x="328" y="361" on="1"/>
        <pt x="328" y="383" on="0"/>
        <pt x="310" y="435" on="0"/>
        <pt x="279" y="478" on="0"/>
        <pt x="236" y="507" on="0"/>
      </contour>
    </TTGlyph>
    <TTGlyph name="U" xMin="22" yMin="-1" xMax="407" yMax="615">
      <contour>
        <pt x="58" y="185" on="1"/>
        <pt x="57" y="201" on="0"/>
        <pt x="51" y="264" on="0"/>
        <pt x="44" y="344" on="0"/>
        <pt x="37" y="432" on="0"/>
        <pt x="30" y="512" on="0"/>
        <pt x="24" y="576" on="0"/>
        <pt x="23" y="591" on="1"/>
        <pt x="23" y="593" on="0"/>
        <pt x="22" y="612" on="0"/>
        <pt x="22" y="615" on="1"/>
        <pt x="58" y="615" on="1"/>
        <pt x="59" y="602" on="0"/>
        <pt x="62" y="547" on="0"/>
        <pt x="67" y="479" on="0"/>
        <pt x="71" y="402" on="0"/>
        <pt x="76" y="334" on="0"/>
        <pt x="80" y="279" on="0"/>
        <pt x="81" y="266" on="1"/>
        <pt x="84" y="236" on="0"/>
        <pt x="97" y="158" on="0"/>
        <pt x="129" y="91" on="0"/>
        <pt x="179" y="45" on="0"/>
        <pt x="218" y="45" on="1"/>
        <pt x="251" y="45" on="0"/>
        <pt x="300" y="87" on="0"/>
        <pt x="334" y="154" on="0"/>
        <pt x="355" y="236" on="0"/>
        <pt x="368" y="315" on="0"/>
        <pt x="373" y="382" on="0"/>
        <pt x="373" y="401" on="1"/>
        <pt x="373" y="451" on="0"/>
        <pt x="358" y="540" on="0"/>
        <pt x="358" y="586" on="1"/>
        <pt x="358" y="597" on="0"/>
        <pt x="373" y="604" on="0"/>
        <pt x="382" y="604" on="1"/>
        <pt x="384" y="604" on="0"/>
        <pt x="392" y="603" on="0"/>
        <pt x="394" y="603" on="1"/>
        <pt x="400" y="581" on="0"/>
        <pt x="404" y="546" on="0"/>
        <pt x="407" y="514" on="0"/>
        <pt x="407" y="497" on="1"/>
        <pt x="407" y="460" on="1"/>
        <pt x="407" y="431" on="0"/>
        <pt x="404" y="340" on="0"/>
        <pt x="392" y="238" on="0"/>
        <pt x="367" y="135" on="0"/>
        <pt x="324" y="51" on="0"/>
        <pt x="257" y="-1" on="0"/>
        <pt x="210" y="-1" on="1"/>
        <pt x="175" y="-1" on="0"/>
        <pt x="121" y="34" on="0"/>
        <pt x="84" y="88" on="0"/>
        <pt x="61" y="154" on="0"/>
      </contour>
    </TTGlyph>
    <TTGlyph name="Uacute" xMin="22" yMin="-1" xMax="407" yMax="981">
      <component glyphName="U" x="0" y="0" flags="0x204"/>
      <component glyphName="acute" x="103" y="184" flags="0x4"/>
    </TTGlyph>
    <TTGlyph name="Ubreve" xMin="22" yMin="-1" xMax="407" yMax="906">
      <component glyphName="U" x="0" y="0" flags="0x204"/>
      <component glyphName="breve" x="20" y="184" flags="0x4"/>
    </TTGlyph>
    <TTGlyph name="Ucircumflex" xMin="22" yMin="-1" xMax="407" yMax="1146">
      <component glyphName="U" x="0" y="0" flags="0x204"/>
      <component glyphName="circumflex" x="-4" y="184" flags="0x4"/>
    </TTGlyph>
    <TTGlyph name="Udieresis" xMin="22" yMin="-1" xMax="407" yMax="880">
      <component glyphName="U" x="0" y="0" flags="0x204"/>
      <component glyphName="dieresis" x="68" y="184" flags="0x4"/>
    </TTGlyph>
    <TTGlyph name="Ugrave" xMin="22" yMin="-1" xMax="407" yMax="981">
      <component glyphName="U" x="0" y="0" flags="0x204"/>
      <component glyphName="grave" x="127" y="184" flags="0x4"/>
    </TTGlyph>
    <TTGlyph name="Uhungarumlaut" xMin="22" yMin="-1" xMax="407" yMax="883">
      <component glyphName="U" x="0" y="0" flags="0x204"/>
      <component glyphName="hungarumlaut" x="62" y="78" flags="0x4"/>
    </TTGlyph>
    <TTGlyph name="Umacron" xMin="22" yMin="-1" xMax="407" yMax="858">
      <component glyphName="U" x="0" y="0" flags="0x204"/>
      <component glyphName="macron" x="0" y="184" flags="0x4"/>
    </TTGlyph>
    <TTGlyph name="Uogonek" xMin="22" yMin="-165" xMax="407" yMax="615">
      <contour>
        <pt x="182" y="-72" on="1"/>
        <pt x="182" y="-86" on="0"/>
        <pt x="195" y="-109" on="0"/>
        <pt x="212" y="-131" on="0"/>
        <pt x="226" y="-153" on="0"/>
        <pt x="226" y="-165" on="1"/>
        <pt x="194" y="-165" on="0"/>
        <pt x="157" y="-142" on="0"/>
        <pt x="137" y="-111" on="0"/>
        <pt x="130" y="-77" on="0"/>
        <pt x="130" y="-66" on="1"/>
        <pt x="130" y="-54" on="0"/>
        <pt x="138" y="-21" on="0"/>
        <pt x="148" y="-6" on="1"/>
        <pt x="154" y="2" on="0"/>
        <pt x="163" y="8" on="1"/>
        <pt x="155" y="12" on="0"/>
        <pt x="148" y="16" on="1"/>
        <pt x="121" y="34" on="0"/>
        <pt x="84" y="88" on="0"/>
        <pt x="61" y="154" on="0"/>
        <pt x="58" y="185" on="1"/>
        <pt x="57" y="201" on="0"/>
        <pt x="51" y="264" on="0"/>
        <pt x="44" y="344" on="0"/>
        <pt x="37" y="432" on="0"/>
        <pt x="30" y="512" on="0"/>
        <pt x="24" y="576" on="0"/>
        <pt x="23" y="591" on="1"/>
        <pt x="23" y="593" on="0"/>
        <pt x="22" y="612" on="0"/>
        <pt x="22" y="615" on="1"/>
        <pt x="58" y="615" on="1"/>
        <pt x="59" y="602" on="0"/>
        <pt x="62" y="547" on="0"/>
        <pt x="67" y="479" on="0"/>
        <pt x="71" y="402" on="0"/>
        <pt x="76" y="334" on="0"/>
        <pt x="80" y="279" on="0"/>
        <pt x="81" y="266" on="1"/>
        <pt x="84" y="236" on="0"/>
        <pt x="97" y="158" on="0"/>
        <pt x="129" y="91" on="0"/>
        <pt x="179" y="45" on="0"/>
        <pt x="218" y="45" on="1"/>
        <pt x="251" y="45" on="0"/>
        <pt x="300" y="87" on="0"/>
        <pt x="334" y="154" on="0"/>
        <pt x="355" y="236" on="0"/>
        <pt x="368" y="315" on="0"/>
        <pt x="373" y="382" on="0"/>
        <pt x="373" y="401" on="1"/>
        <pt x="373" y="451" on="0"/>
        <pt x="358" y="540" on="0"/>
        <pt x="358" y="586" on="1"/>
        <pt x="358" y="597" on="0"/>
        <pt x="373" y="604" on="0"/>
        <pt x="382" y="604" on="1"/>
        <pt x="384" y="604" on="0"/>
        <pt x="392" y="603" on="0"/>
        <pt x="394" y="603" on="1"/>
        <pt x="400" y="581" on="0"/>
        <pt x="404" y="546" on="0"/>
        <pt x="407" y="514" on="0"/>
        <pt x="407" y="497" on="1"/>
        <pt x="407" y="460" on="1"/>
        <pt x="407" y="431" on="0"/>
        <pt x="404" y="340" on="0"/>
        <pt x="392" y="238" on="0"/>
        <pt x="367" y="135" on="0"/>
        <pt x="324" y="51" on="0"/>
        <pt x="291" y="25" on="1"/>
        <pt x="283" y="20" on="0"/>
        <pt x="276" y="15" on="1"/>
        <pt x="276" y="13" on="1"/>
        <pt x="276" y="2" on="0"/>
        <pt x="247" y="-2" on="0"/>
        <pt x="211" y="-12" on="0"/>
        <pt x="182" y="-39" on="0"/>
      </contour>
    </TTGlyph>
    <TTGlyph name="Uring" xMin="22" yMin="-1" xMax="407" yMax="1008">
      <component glyphName="U" x="0" y="0" flags="0x204"/>
      <component glyphName="ring" x="-22" y="184" flags="0x4"/>
    </TTGlyph>
    <TTGlyph name="Utilde" xMin="22" yMin="-1" xMax="422" yMax="873">
      <component glyphName="U" x="0" y="0" flags="0x204"/>
      <component glyphName="tilde" x="-41" y="184" flags="0x4"/>
    </TTGlyph>
    <TTGlyph name="V" xMin="12" yMin="-1" xMax="645" yMax="642">
      <contour>
        <pt x="12" y="561" on="1"/>
        <pt x="31" y="561" on="0"/>
        <pt x="54" y="551" on="0"/>
        <pt x="70" y="532" on="0"/>
        <pt x="83" y="504" on="0"/>
        <pt x="93" y="487" on="1"/>
        <pt x="407" y="104" on="1"/>
        <pt x="412" y="97" on="0"/>
        <pt x="417" y="92" on="0"/>
        <pt x="424" y="92" on="1"/>
        <pt x="425" y="92" on="0"/>
        <pt x="428" y="93" on="0"/>
        <pt x="429" y="93" on="1"/>
        <pt x="432" y="105" on="0"/>
        <pt x="445" y="158" on="0"/>
        <pt x="460" y="225" on="0"/>
        <pt x="478" y="298" on="0"/>
        <pt x="494" y="364" on="0"/>
        <pt x="507" y="416" on="0"/>
        <pt x="510" y="428" on="1"/>
        <pt x="517" y="453" on="0"/>
        <pt x="537" y="526" on="0"/>
        <pt x="569" y="593" on="0"/>
        <pt x="614" y="642" on="0"/>
        <pt x="645" y="642" on="1"/>
        <pt x="645" y="621" on="0"/>
        <pt x="640" y="604" on="0"/>
        <pt x="629" y="592" on="0"/>
        <pt x="614" y="575" on="0"/>
        <pt x="604" y="556" on="1"/>
        <pt x="599" y="549" on="0"/>
        <pt x="582" y="514" on="0"/>
        <pt x="564" y="473" on="0"/>
        <pt x="548" y="436" on="0"/>
        <pt x="545" y="428" on="1"/>
        <pt x="543" y="417" on="0"/>
        <pt x="531" y="368" on="0"/>
        <pt x="517" y="306" on="0"/>
        <pt x="502" y="238" on="0"/>
        <pt x="489" y="176" on="0"/>
        <pt x="478" y="128" on="0"/>
        <pt x="475" y="116" on="1"/>
        <pt x="474" y="111" on="0"/>
        <pt x="471" y="85" on="0"/>
        <pt x="467" y="55" on="0"/>
        <pt x="464" y="29" on="0"/>
        <pt x="464" y="23" on="1"/>
        <pt x="458" y="14" on="0"/>
        <pt x="445" y="-1" on="0"/>
        <pt x="435" y="-1" on="1"/>
        <pt x="427" y="-1" on="0"/>
        <pt x="423" y="4" on="0"/>
        <pt x="418" y="12" on="1"/>
        <pt x="12" y="522" on="1"/>
      </contour>
    </TTGlyph>
    <TTGlyph name="W" xMin="9" yMin="-1" xMax="953" yMax="649">
      <contour>
        <pt x="24" y="499" on="1"/>
        <pt x="301" y="93" on="1"/>
        <pt x="313" y="93" on="1"/>
        <pt x="316" y="113" on="1"/>
        <pt x="319" y="135" on="0"/>
        <pt x="327" y="194" on="0"/>
        <pt x="334" y="257" on="0"/>
        <pt x="337" y="278" on="1"/>
        <pt x="337" y="290" on="1"/>
        <pt x="338" y="301" on="0"/>
        <pt x="348" y="361" on="0"/>
        <pt x="360" y="427" on="0"/>
        <pt x="370" y="487" on="0"/>
        <pt x="372" y="499" on="1"/>
        <pt x="374" y="509" on="0"/>
        <pt x="392" y="511" on="0"/>
        <pt x="400" y="511" on="1"/>
        <pt x="410" y="511" on="0"/>
        <pt x="422" y="507" on="0"/>
        <pt x="429" y="497" on="0"/>
        <pt x="435" y="483" on="0"/>
        <pt x="440" y="475" on="1"/>
        <pt x="467" y="435" on="0"/>
        <pt x="524" y="342" on="0"/>
        <pt x="585" y="248" on="0"/>
        <pt x="650" y="157" on="0"/>
        <pt x="685" y="116" on="1"/>
        <pt x="686" y="114" on="0"/>
        <pt x="692" y="108" on="0"/>
        <pt x="699" y="100" on="0"/>
        <pt x="706" y="94" on="0"/>
        <pt x="707" y="93" on="1"/>
        <pt x="719" y="116" on="1"/>
        <pt x="722" y="130" on="0"/>
        <pt x="737" y="186" on="0"/>
        <pt x="758" y="257" on="0"/>
        <pt x="780" y="336" on="0"/>
        <pt x="801" y="406" on="0"/>
        <pt x="819" y="462" on="0"/>
        <pt x="823" y="475" on="1"/>
        <pt x="827" y="485" on="0"/>
        <pt x="850" y="532" on="0"/>
        <pt x="875" y="583" on="0"/>
        <pt x="899" y="629" on="0"/>
        <pt x="905" y="638" on="1"/>
        <pt x="907" y="641" on="0"/>
        <pt x="924" y="649" on="0"/>
        <pt x="928" y="649" on="1"/>
        <pt x="946" y="649" on="0"/>
        <pt x="953" y="634" on="0"/>
        <pt x="953" y="621" on="1"/>
        <pt x="953" y="602" on="0"/>
        <pt x="921" y="553" on="0"/>
        <pt x="880" y="500" on="0"/>
        <pt x="841" y="445" on="0"/>
        <pt x="835" y="418" on="1"/>
        <pt x="742" y="35" on="1"/>
        <pt x="740" y="25" on="0"/>
        <pt x="726" y="23" on="0"/>
        <pt x="719" y="23" on="1"/>
        <pt x="709" y="23" on="0"/>
        <pt x="702" y="25" on="0"/>
        <pt x="696" y="35" on="1"/>
        <pt x="409" y="443" on="1"/>
        <pt x="394" y="428" on="1"/>
        <pt x="392" y="427" on="0"/>
        <pt x="386" y="400" on="0"/>
        <pt x="380" y="364" on="0"/>
        <pt x="373" y="325" on="0"/>
        <pt x="372" y="313" on="1"/>
        <pt x="370" y="302" on="0"/>
        <pt x="366" y="256" on="0"/>
        <pt x="361" y="200" on="0"/>
        <pt x="356" y="137" on="0"/>
        <pt x="352" y="79" on="0"/>
        <pt x="348" y="34" on="0"/>
        <pt x="348" y="23" on="1"/>
        <pt x="342" y="14" on="0"/>
        <pt x="329" y="-1" on="0"/>
        <pt x="319" y="-1" on="1"/>
        <pt x="312" y="-1" on="0"/>
        <pt x="306" y="4" on="0"/>
        <pt x="301" y="12" on="1"/>
        <pt x="47" y="394" on="1"/>
        <pt x="33" y="415" on="0"/>
        <pt x="9" y="472" on="0"/>
        <pt x="9" y="499" on="1"/>
      </contour>
    </TTGlyph>
    <TTGlyph name="Wacute" xMin="9" yMin="-1" xMax="953" yMax="981">
      <component glyphName="W" x="0" y="0" flags="0x204"/>
      <component glyphName="acute" x="341" y="184" flags="0x4"/>
    </TTGlyph>
    <TTGlyph name="Wcircumflex" xMin="9" yMin="-1" xMax="953" yMax="904">
      <component glyphName="W" x="0" y="0" flags="0x204"/>
      <component glyphName="circumflex" x="253" y="-58" flags="0x4"/>
    </TTGlyph>
    <TTGlyph name="Wdieresis" xMin="9" yMin="-1" xMax="953" yMax="880">
      <component glyphName="W" x="0" y="0" flags="0x204"/>
      <component glyphName="dieresis" x="306" y="184" flags="0x4"/>
    </TTGlyph>
    <TTGlyph name="Wgrave" xMin="9" yMin="-1" xMax="953" yMax="873">
      <component glyphName="W" x="0" y="0" flags="0x204"/>
      <component glyphName="grave" x="395" y="76" flags="0x4"/>
    </TTGlyph>
    <TTGlyph name="X" xMin="16" yMin="0" xMax="563" yMax="694">
      <contour>
        <pt x="179" y="22" on="1"/>
        <pt x="179" y="39" on="1"/>
        <pt x="179" y="45" on="0"/>
        <pt x="180" y="46" on="1"/>
        <pt x="279" y="282" on="1"/>
        <pt x="64" y="534" on="1"/>
        <pt x="62" y="535" on="0"/>
        <pt x="50" y="555" on="0"/>
        <pt x="36" y="580" on="0"/>
        <pt x="21" y="607" on="0"/>
        <pt x="17" y="615" on="1"/>
        <pt x="16" y="616" on="0"/>
        <pt x="16" y="617" on="1"/>
        <pt x="16" y="620" on="1"/>
        <pt x="16" y="627" on="0"/>
        <pt x="28" y="638" on="0"/>
        <pt x="35" y="638" on="1"/>
        <pt x="44" y="638" on="0"/>
        <pt x="66" y="614" on="0"/>
        <pt x="85" y="584" on="0"/>
        <pt x="97" y="558" on="0"/>
        <pt x="99" y="556" on="1"/>
        <pt x="106" y="548" on="0"/>
        <pt x="137" y="513" on="0"/>
        <pt x="175" y="470" on="0"/>
        <pt x="218" y="422" on="0"/>
        <pt x="257" y="379" on="0"/>
        <pt x="288" y="345" on="0"/>
        <pt x="296" y="337" on="1"/>
        <pt x="307" y="347" on="1"/>
        <pt x="323" y="382" on="1"/>
        <pt x="334" y="406" on="0"/>
        <pt x="361" y="466" on="0"/>
        <pt x="391" y="532" on="0"/>
        <pt x="419" y="591" on="0"/>
        <pt x="441" y="638" on="0"/>
        <pt x="446" y="649" on="1"/>
        <pt x="452" y="660" on="0"/>
        <pt x="462" y="677" on="0"/>
        <pt x="474" y="688" on="0"/>
        <pt x="491" y="694" on="0"/>
        <pt x="504" y="694" on="1"/>
        <pt x="504" y="673" on="1"/>
        <pt x="481" y="633" on="0"/>
        <pt x="434" y="544" on="0"/>
        <pt x="388" y="452" on="0"/>
        <pt x="347" y="358" on="0"/>
        <pt x="331" y="313" on="1"/>
        <pt x="331" y="312" on="0"/>
        <pt x="330" y="309" on="0"/>
        <pt x="330" y="307" on="1"/>
        <pt x="330" y="306" on="0"/>
        <pt x="331" y="302" on="0"/>
        <pt x="331" y="301" on="1"/>
        <pt x="333" y="298" on="0"/>
        <pt x="346" y="282" on="0"/>
        <pt x="361" y="263" on="0"/>
        <pt x="374" y="247" on="0"/>
        <pt x="377" y="243" on="1"/>
        <pt x="385" y="235" on="0"/>
        <pt x="427" y="192" on="0"/>
        <pt x="451" y="167" on="1"/>
        <pt x="497" y="122" on="1"/>
        <pt x="518" y="101" on="0"/>
        <pt x="527" y="93" on="1"/>
        <pt x="531" y="100" on="0"/>
        <pt x="539" y="105" on="0"/>
        <pt x="544" y="105" on="1"/>
        <pt x="546" y="105" on="0"/>
        <pt x="550" y="104" on="0"/>
        <pt x="551" y="104" on="1"/>
        <pt x="552" y="102" on="0"/>
        <pt x="555" y="89" on="0"/>
        <pt x="559" y="74" on="0"/>
        <pt x="562" y="61" on="0"/>
        <pt x="562" y="58" on="1"/>
        <pt x="562" y="57" on="0"/>
        <pt x="563" y="52" on="0"/>
        <pt x="563" y="51" on="1"/>
        <pt x="563" y="40" on="0"/>
        <pt x="544" y="22" on="0"/>
        <pt x="533" y="22" on="1"/>
        <pt x="532" y="22" on="0"/>
        <pt x="528" y="23" on="0"/>
        <pt x="527" y="23" on="1"/>
        <pt x="307" y="256" on="1"/>
        <pt x="215" y="12" on="1"/>
        <pt x="214" y="9" on="0"/>
        <pt x="196" y="0" on="0"/>
        <pt x="192" y="0" on="1"/>
        <pt x="186" y="0" on="0"/>
        <pt x="181" y="8" on="0"/>
        <pt x="179" y="18" on="0"/>
      </contour>
    </TTGlyph>
    <TTGlyph name="Y" xMin="-5" yMin="-102" xMax="570" yMax="796">
      <contour>
        <pt x="537" y="752" on="1"/>
        <pt x="526" y="774" on="0"/>
        <pt x="552" y="796" on="0"/>
        <pt x="570" y="796" on="1"/>
        <pt x="570" y="741" on="1"/>
        <pt x="498" y="-102" on="1"/>
        <pt x="461" y="-83" on="1"/>
      </contour>
      <contour>
        <pt x="-4" y="674" on="1"/>
        <pt x="-5" y="674" on="0"/>
        <pt x="-5" y="676" on="1"/>
        <pt x="-5" y="679" on="1"/>
        <pt x="-5" y="686" on="0"/>
        <pt x="4" y="697" on="0"/>
        <pt x="12" y="697" on="1"/>
        <pt x="13" y="696" on="1"/>
        <pt x="17" y="696" on="1"/>
        <pt x="456" y="458" on="1"/>
        <pt x="476" y="454" on="0"/>
        <pt x="499" y="441" on="0"/>
        <pt x="499" y="419" on="1"/>
        <pt x="499" y="411" on="0"/>
        <pt x="495" y="392" on="0"/>
        <pt x="482" y="392" on="1"/>
        <pt x="477" y="392" on="1"/>
        <pt x="474" y="394" on="0"/>
        <pt x="462" y="403" on="0"/>
        <pt x="448" y="414" on="0"/>
        <pt x="436" y="423" on="0"/>
        <pt x="435" y="426" on="1"/>
      </contour>
    </TTGlyph>
    <TTGlyph name="Yacute" xMin="-5" yMin="-102" xMax="570" yMax="981">
      <component glyphName="Y" x="0" y="0" flags="0x204"/>
      <component glyphName="acute" x="179" y="184" flags="0x4"/>
    </TTGlyph>
    <TTGlyph name="Ycircumflex" xMin="-5" yMin="-102" xMax="570" yMax="1146">
      <component glyphName="Y" x="0" y="0" flags="0x204"/>
      <component glyphName="circumflex" x="91" y="184" flags="0x4"/>
    </TTGlyph>
    <TTGlyph name="Ydieresis" xMin="-5" yMin="-102" xMax="570" yMax="880">
      <component glyphName="Y" x="0" y="0" flags="0x204"/>
      <component glyphName="dieresis" x="145" y="184" flags="0x4"/>
    </TTGlyph>
    <TTGlyph name="Ygrave" xMin="-5" yMin="-102" xMax="570" yMax="981">
      <component glyphName="Y" x="0" y="0" flags="0x204"/>
      <component glyphName="grave" x="203" y="184" flags="0x4"/>
    </TTGlyph>
    <TTGlyph name="Z" xMin="15" yMin="-31" xMax="632" yMax="719">
      <contour>
        <pt x="202" y="-5" on="1"/>
        <pt x="202" y="12" on="0"/>
        <pt x="210" y="52" on="0"/>
        <pt x="214" y="67" on="1"/>
        <pt x="217" y="77" on="0"/>
        <pt x="231" y="121" on="0"/>
        <pt x="249" y="175" on="0"/>
        <pt x="270" y="236" on="0"/>
        <pt x="288" y="291" on="0"/>
        <pt x="295" y="312" on="1"/>
        <pt x="306" y="345" on="1"/>
        <pt x="306" y="355" on="1"/>
        <pt x="287" y="355" on="0"/>
        <pt x="249" y="344" on="0"/>
        <pt x="212" y="331" on="0"/>
        <pt x="175" y="320" on="0"/>
        <pt x="155" y="320" on="1"/>
        <pt x="147" y="320" on="0"/>
        <pt x="131" y="328" on="0"/>
        <pt x="131" y="338" on="1"/>
        <pt x="131" y="342" on="1"/>
        <pt x="131" y="343" on="0"/>
        <pt x="132" y="345" on="1"/>
        <pt x="134" y="346" on="0"/>
        <pt x="141" y="355" on="0"/>
        <pt x="145" y="358" on="1"/>
        <pt x="151" y="364" on="1"/>
        <pt x="155" y="368" on="0"/>
        <pt x="156" y="368" on="1"/>
        <pt x="330" y="414" on="1"/>
        <pt x="388" y="665" on="1"/>
        <pt x="361" y="665" on="0"/>
        <pt x="325" y="669" on="0"/>
        <pt x="293" y="670" on="0"/>
        <pt x="260" y="665" on="0"/>
        <pt x="237" y="657" on="1"/>
        <pt x="226" y="653" on="0"/>
        <pt x="173" y="634" on="0"/>
        <pt x="113" y="612" on="0"/>
        <pt x="61" y="592" on="0"/>
        <pt x="51" y="588" on="1"/>
        <pt x="49" y="587" on="0"/>
        <pt x="41" y="586" on="0"/>
        <pt x="40" y="586" on="1"/>
        <pt x="27" y="586" on="0"/>
        <pt x="15" y="605" on="0"/>
        <pt x="15" y="617" on="1"/>
        <pt x="15" y="626" on="0"/>
        <pt x="28" y="630" on="0"/>
        <pt x="40" y="634" on="1"/>
        <pt x="146" y="670" on="1"/>
        <pt x="193" y="686" on="0"/>
        <pt x="283" y="707" on="0"/>
        <pt x="375" y="719" on="0"/>
        <pt x="434" y="719" on="1"/>
        <pt x="376" y="436" on="1"/>
        <pt x="376" y="421" on="1"/>
        <pt x="385" y="421" on="0"/>
        <pt x="406" y="426" on="0"/>
        <pt x="423" y="425" on="0"/>
        <pt x="435" y="415" on="0"/>
        <pt x="435" y="401" on="1"/>
        <pt x="435" y="389" on="0"/>
        <pt x="423" y="380" on="0"/>
        <pt x="406" y="379" on="0"/>
        <pt x="386" y="382" on="0"/>
        <pt x="368" y="383" on="0"/>
        <pt x="355" y="377" on="0"/>
        <pt x="353" y="368" on="1"/>
        <pt x="347" y="353" on="0"/>
        <pt x="321" y="277" on="0"/>
        <pt x="292" y="192" on="0"/>
        <pt x="265" y="116" on="0"/>
        <pt x="260" y="101" on="1"/>
        <pt x="258" y="82" on="0"/>
        <pt x="248" y="50" on="0"/>
        <pt x="250" y="31" on="1"/>
        <pt x="268" y="31" on="0"/>
        <pt x="349" y="50" on="0"/>
        <pt x="443" y="76" on="0"/>
        <pt x="533" y="103" on="0"/>
        <pt x="562" y="112" on="1"/>
        <pt x="565" y="113" on="0"/>
        <pt x="576" y="121" on="0"/>
        <pt x="587" y="130" on="0"/>
        <pt x="598" y="137" on="0"/>
        <pt x="602" y="137" on="1"/>
        <pt x="616" y="137" on="0"/>
        <pt x="632" y="114" on="0"/>
        <pt x="632" y="102" on="1"/>
        <pt x="632" y="94" on="0"/>
        <pt x="628" y="81" on="0"/>
        <pt x="619" y="77" on="1"/>
        <pt x="523" y="62" on="0"/>
        <pt x="328" y="5" on="0"/>
        <pt x="237" y="-27" on="1"/>
        <pt x="212" y="-31" on="0"/>
        <pt x="202" y="-19" on="0"/>
      </contour>
    </TTGlyph>
    <TTGlyph name="Zacute" xMin="15" yMin="-31" xMax="632" yMax="945">
      <component glyphName="Z" x="0" y="0" flags="0x204"/>
      <component glyphName="acute" x="172" y="148" flags="0x4"/>
    </TTGlyph>
    <TTGlyph name="Zcaron" xMin="15" yMin="-31" xMax="632" yMax="963">
      <component glyphName="Z" x="0" y="0" flags="0x204"/>
      <component glyphName="caron" x="76" y="184" flags="0x4"/>
    </TTGlyph>
    <TTGlyph name="Zdotaccent" xMin="15" yMin="-31" xMax="632" yMax="899">
      <component glyphName="Z" x="0" y="0" flags="0x204"/>
      <component glyphName="dotaccent" x="152" y="231" flags="0x4"/>
    </TTGlyph>
    <TTGlyph name="a" xMin="16" yMin="-1" xMax="428" yMax="527">
      <contour>
        <pt x="16" y="104" on="1"/>
        <pt x="16" y="133" on="0"/>
        <pt x="29" y="219" on="0"/>
        <pt x="54" y="312" on="0"/>
        <pt x="93" y="406" on="0"/>
        <pt x="143" y="481" on="0"/>
        <pt x="207" y="527" on="0"/>
        <pt x="245" y="527" on="1"/>
        <pt x="245" y="513" on="0"/>
        <pt x="222" y="486" on="0"/>
        <pt x="193" y="461" on="0"/>
        <pt x="163" y="438" on="0"/>
        <pt x="157" y="428" on="1"/>
        <pt x="133" y="397" on="0"/>
        <pt x="95" y="322" on="0"/>
        <pt x="67" y="243" on="0"/>
        <pt x="51" y="160" on="0"/>
        <pt x="51" y="121" on="1"/>
        <pt x="51" y="115" on="0"/>
        <pt x="55" y="90" on="0"/>
        <pt x="62" y="64" on="0"/>
        <pt x="74" y="45" on="0"/>
        <pt x="81" y="45" on="1"/>
        <pt x="84" y="45" on="1"/>
        <pt x="85" y="45" on="0"/>
        <pt x="86" y="46" on="1"/>
        <pt x="113" y="76" on="0"/>
        <pt x="149" y="146" on="0"/>
        <pt x="175" y="221" on="0"/>
        <pt x="193" y="299" on="0"/>
        <pt x="202" y="337" on="1"/>
        <pt x="205" y="348" on="0"/>
        <pt x="204" y="392" on="0"/>
        <pt x="209" y="434" on="0"/>
        <pt x="225" y="465" on="0"/>
        <pt x="246" y="465" on="1"/>
        <pt x="250" y="465" on="0"/>
        <pt x="261" y="464" on="0"/>
        <pt x="261" y="463" on="1"/>
        <pt x="298" y="386" on="0"/>
        <pt x="350" y="279" on="0"/>
        <pt x="386" y="209" on="0"/>
        <pt x="408" y="169" on="0"/>
        <pt x="419" y="148" on="0"/>
        <pt x="423" y="141" on="0"/>
        <pt x="423" y="139" on="1"/>
        <pt x="424" y="135" on="0"/>
        <pt x="426" y="114" on="0"/>
        <pt x="427" y="91" on="0"/>
        <pt x="428" y="70" on="0"/>
        <pt x="428" y="67" on="1"/>
        <pt x="418" y="67" on="0"/>
        <pt x="394" y="69" on="0"/>
        <pt x="389" y="81" on="1"/>
        <pt x="261" y="347" on="1"/>
        <pt x="250" y="359" on="1"/>
        <pt x="247" y="348" on="0"/>
        <pt x="230" y="292" on="0"/>
        <pt x="211" y="229" on="0"/>
        <pt x="195" y="173" on="0"/>
        <pt x="192" y="162" on="1"/>
        <pt x="186" y="147" on="0"/>
        <pt x="167" y="93" on="0"/>
        <pt x="139" y="39" on="0"/>
        <pt x="103" y="-1" on="0"/>
        <pt x="81" y="-1" on="1"/>
        <pt x="63" y="-1" on="0"/>
        <pt x="39" y="22" on="0"/>
        <pt x="23" y="56" on="0"/>
        <pt x="16" y="92" on="0"/>
      </contour>
    </TTGlyph>
    <TTGlyph name="aacute" xMin="16" yMin="-1" xMax="428" yMax="797">
      <component glyphName="a" x="0" y="0" flags="0x204"/>
      <component glyphName="acute" x="88" y="0" flags="0x4"/>
    </TTGlyph>
    <TTGlyph name="abreve" xMin="16" yMin="-1" xMax="428" yMax="722">
      <component glyphName="a" x="0" y="0" flags="0x204"/>
      <component glyphName="breve" x="5" y="0" flags="0x4"/>
    </TTGlyph>
    <TTGlyph name="acircumflex" xMin="16" yMin="-1" xMax="428" yMax="962">
      <component glyphName="a" x="0" y="0" flags="0x204"/>
      <component glyphName="circumflex" x="-18" y="0" flags="0x4"/>
    </TTGlyph>
    <TTGlyph name="acute" xMin="47" yMin="613" xMax="186" yMax="797">
      <contour>
        <pt x="70" y="621" on="1"/>
        <pt x="57" y="613" on="1"/>
        <pt x="47" y="618" on="0"/>
        <pt x="52" y="643" on="0"/>
        <pt x="54" y="651" on="1"/>
        <pt x="55" y="654" on="0"/>
        <pt x="59" y="670" on="0"/>
        <pt x="61" y="674" on="1"/>
        <pt x="67" y="681" on="0"/>
        <pt x="84" y="706" on="0"/>
        <pt x="101" y="731" on="0"/>
        <pt x="118" y="753" on="0"/>
        <pt x="123" y="760" on="1"/>
        <pt x="128" y="766" on="0"/>
        <pt x="139" y="779" on="0"/>
        <pt x="154" y="791" on="0"/>
        <pt x="169" y="797" on="0"/>
        <pt x="176" y="796" on="1"/>
        <pt x="178" y="795" on="0"/>
        <pt x="184" y="792" on="0"/>
        <pt x="186" y="791" on="1"/>
      </contour>
    </TTGlyph>
    <TTGlyph name="adieresis" xMin="16" yMin="-1" xMax="428" yMax="696">
      <component glyphName="a" x="0" y="0" flags="0x204"/>
      <component glyphName="dieresis" x="54" y="0" flags="0x4"/>
    </TTGlyph>
    <TTGlyph name="ae" xMin="22" yMin="-32" xMax="647" yMax="473">
      <contour>
        <pt x="30" y="123" on="1"/>
        <pt x="38" y="151" on="0"/>
        <pt x="76" y="229" on="0"/>
        <pt x="127" y="311" on="0"/>
        <pt x="190" y="390" on="0"/>
        <pt x="260" y="447" on="0"/>
        <pt x="334" y="473" on="0"/>
        <pt x="371" y="463" on="1"/>
        <pt x="366" y="449" on="0"/>
        <pt x="337" y="429" on="0"/>
        <pt x="301" y="414" on="0"/>
        <pt x="266" y="400" on="0"/>
        <pt x="257" y="393" on="1"/>
        <pt x="226" y="370" on="0"/>
        <pt x="168" y="310" on="0"/>
        <pt x="119" y="241" on="0"/>
        <pt x="80" y="166" on="0"/>
        <pt x="68" y="129" on="1"/>
        <pt x="67" y="123" on="0"/>
        <pt x="63" y="98" on="0"/>
        <pt x="62" y="71" on="0"/>
        <pt x="67" y="49" on="0"/>
        <pt x="75" y="48" on="1"/>
        <pt x="76" y="47" on="1"/>
        <pt x="80" y="47" on="1"/>
        <pt x="114" y="68" on="0"/>
        <pt x="169" y="125" on="0"/>
        <pt x="215" y="190" on="0"/>
        <pt x="256" y="259" on="0"/>
        <pt x="274" y="292" on="1"/>
        <pt x="281" y="303" on="0"/>
        <pt x="292" y="345" on="0"/>
        <pt x="309" y="383" on="0"/>
        <pt x="334" y="409" on="0"/>
        <pt x="354" y="402" on="1"/>
        <pt x="356" y="401" on="0"/>
        <pt x="368" y="398" on="0"/>
        <pt x="367" y="397" on="1"/>
        <pt x="373" y="356" on="0"/>
        <pt x="383" y="290" on="0"/>
        <pt x="388" y="261" on="1"/>
        <pt x="387" y="288" on="0"/>
        <pt x="392" y="347" on="0"/>
        <pt x="416" y="397" on="0"/>
        <pt x="462" y="430" on="0"/>
        <pt x="501" y="430" on="1"/>
        <pt x="518" y="430" on="0"/>
        <pt x="568" y="408" on="0"/>
        <pt x="614" y="375" on="0"/>
        <pt x="647" y="339" on="0"/>
        <pt x="647" y="325" on="1"/>
        <pt x="647" y="318" on="0"/>
        <pt x="644" y="306" on="0"/>
        <pt x="635" y="302" on="1"/>
        <pt x="437" y="233" on="1"/>
        <pt x="436" y="229" on="1"/>
        <pt x="436" y="224" on="0"/>
        <pt x="436" y="218" on="1"/>
        <pt x="435" y="205" on="1"/>
        <pt x="435" y="199" on="0"/>
        <pt x="435" y="195" on="1"/>
        <pt x="435" y="175" on="0"/>
        <pt x="441" y="117" on="0"/>
        <pt x="460" y="62" on="0"/>
        <pt x="495" y="22" on="0"/>
        <pt x="524" y="22" on="1"/>
        <pt x="534" y="22" on="0"/>
        <pt x="550" y="31" on="0"/>
        <pt x="564" y="41" on="0"/>
        <pt x="580" y="50" on="0"/>
        <pt x="589" y="50" on="1"/>
        <pt x="589" y="35" on="0"/>
        <pt x="576" y="9" on="0"/>
        <pt x="554" y="-12" on="0"/>
        <pt x="526" y="-23" on="0"/>
        <pt x="512" y="-23" on="1"/>
        <pt x="482" y="-23" on="0"/>
        <pt x="442" y="10" on="0"/>
        <pt x="428" y="36" on="1"/>
        <pt x="427" y="31" on="0"/>
        <pt x="423" y="11" on="0"/>
        <pt x="419" y="-11" on="0"/>
        <pt x="415" y="-29" on="0"/>
        <pt x="414" y="-32" on="1"/>
        <pt x="402" y="-29" on="0"/>
        <pt x="382" y="-19" on="0"/>
        <pt x="380" y="-6" on="1"/>
        <pt x="326" y="301" on="1"/>
        <pt x="303" y="265" on="1"/>
        <pt x="288" y="241" on="0"/>
        <pt x="253" y="186" on="0"/>
        <pt x="220" y="138" on="0"/>
        <pt x="214" y="128" on="1"/>
        <pt x="205" y="115" on="0"/>
        <pt x="171" y="68" on="0"/>
        <pt x="129" y="25" on="0"/>
        <pt x="83" y="-3" on="0"/>
        <pt x="62" y="4" on="1"/>
        <pt x="45" y="9" on="0"/>
        <pt x="28" y="38" on="0"/>
        <pt x="22" y="74" on="0"/>
        <pt x="26" y="111" on="0"/>
      </contour>
      <contour>
        <pt x="512" y="386" on="1"/>
        <pt x="494" y="386" on="0"/>
        <pt x="470" y="366" on="0"/>
        <pt x="454" y="337" on="0"/>
        <pt x="447" y="302" on="0"/>
        <pt x="447" y="287" on="1"/>
        <pt x="463" y="287" on="0"/>
        <pt x="502" y="292" on="0"/>
        <pt x="540" y="303" on="0"/>
        <pt x="571" y="323" on="0"/>
        <pt x="577" y="337" on="1"/>
        <pt x="562" y="362" on="0"/>
        <pt x="535" y="386" on="0"/>
      </contour>
    </TTGlyph>
    <TTGlyph name="aeacute" xMin="22" yMin="-32" xMax="647" yMax="797">
      <component glyphName="ae" x="0" y="0" flags="0x204"/>
      <component glyphName="acute" x="216" y="0" flags="0x4"/>
    </TTGlyph>
    <TTGlyph name="agrave" xMin="16" yMin="-1" xMax="428" yMax="797">
      <component glyphName="a" x="0" y="0" flags="0x204"/>
      <component glyphName="grave" x="113" y="0" flags="0x4"/>
    </TTGlyph>
    <TTGlyph name="amacron" xMin="16" yMin="-1" xMax="428" yMax="674">
      <component glyphName="a" x="0" y="0" flags="0x204"/>
      <component glyphName="macron" x="-13" y="0" flags="0x4"/>
    </TTGlyph>
    <TTGlyph name="ampersand" xMin="16" yMin="-1" xMax="460" yMax="638">
      <contour>
        <pt x="133" y="35" on="1"/>
        <pt x="139" y="60" on="0"/>
        <pt x="156" y="123" on="0"/>
        <pt x="170" y="193" on="0"/>
        <pt x="181" y="264" on="0"/>
        <pt x="181" y="296" on="1"/>
        <pt x="181" y="319" on="0"/>
        <pt x="157" y="349" on="0"/>
        <pt x="120" y="373" on="0"/>
        <pt x="77" y="394" on="0"/>
        <pt x="40" y="417" on="0"/>
        <pt x="16" y="444" on="0"/>
        <pt x="16" y="463" on="1"/>
        <pt x="16" y="465" on="0"/>
        <pt x="17" y="473" on="0"/>
        <pt x="17" y="475" on="1"/>
        <pt x="34" y="493" on="0"/>
        <pt x="85" y="549" on="0"/>
        <pt x="144" y="601" on="0"/>
        <pt x="208" y="638" on="0"/>
        <pt x="238" y="638" on="1"/>
        <pt x="240" y="638" on="0"/>
        <pt x="250" y="628" on="0"/>
        <pt x="250" y="625" on="1"/>
        <pt x="250" y="574" on="1"/>
        <pt x="250" y="519" on="0"/>
        <pt x="237" y="411" on="0"/>
        <pt x="237" y="356" on="1"/>
        <pt x="237" y="337" on="1"/>
        <pt x="237" y="325" on="0"/>
        <pt x="238" y="324" on="1"/>
        <pt x="331" y="232" on="1"/>
        <pt x="331" y="231" on="0"/>
        <pt x="338" y="230" on="0"/>
        <pt x="340" y="230" on="1"/>
        <pt x="353" y="230" on="0"/>
        <pt x="373" y="242" on="0"/>
        <pt x="392" y="256" on="0"/>
        <pt x="411" y="268" on="0"/>
        <pt x="423" y="268" on="1"/>
        <pt x="448" y="268" on="0"/>
        <pt x="448" y="243" on="1"/>
        <pt x="448" y="229" on="0"/>
        <pt x="431" y="217" on="0"/>
        <pt x="408" y="207" on="0"/>
        <pt x="383" y="196" on="0"/>
        <pt x="377" y="185" on="1"/>
        <pt x="458" y="104" on="1"/>
        <pt x="460" y="103" on="0"/>
        <pt x="451" y="85" on="0"/>
        <pt x="446" y="81" on="1"/>
        <pt x="446" y="80" on="0"/>
        <pt x="440" y="80" on="1"/>
        <pt x="436" y="80" on="1"/>
        <pt x="435" y="80" on="0"/>
        <pt x="435" y="81" on="1"/>
        <pt x="430" y="85" on="0"/>
        <pt x="408" y="105" on="0"/>
        <pt x="382" y="128" on="0"/>
        <pt x="359" y="148" on="0"/>
        <pt x="354" y="151" on="1"/>
        <pt x="352" y="153" on="0"/>
        <pt x="334" y="161" on="0"/>
        <pt x="331" y="162" on="1"/>
        <pt x="322" y="156" on="0"/>
        <pt x="292" y="126" on="0"/>
        <pt x="257" y="90" on="0"/>
        <pt x="220" y="51" on="0"/>
        <pt x="186" y="20" on="0"/>
        <pt x="158" y="-1" on="0"/>
        <pt x="150" y="-1" on="1"/>
        <pt x="147" y="-1" on="1"/>
        <pt x="146" y="-1" on="0"/>
        <pt x="145" y="0" on="1"/>
        <pt x="144" y="2" on="0"/>
        <pt x="140" y="12" on="0"/>
        <pt x="136" y="22" on="0"/>
        <pt x="133" y="32" on="0"/>
      </contour>
      <contour>
        <pt x="86" y="463" on="1"/>
        <pt x="110" y="437" on="0"/>
        <pt x="163" y="391" on="0"/>
        <pt x="192" y="372" on="1"/>
        <pt x="193" y="381" on="0"/>
        <pt x="199" y="430" on="0"/>
        <pt x="206" y="486" on="0"/>
        <pt x="213" y="535" on="0"/>
        <pt x="215" y="544" on="1"/>
        <pt x="215" y="551" on="1"/>
        <pt x="215" y="561" on="0"/>
        <pt x="208" y="580" on="0"/>
        <pt x="198" y="580" on="1"/>
        <pt x="182" y="580" on="0"/>
        <pt x="143" y="555" on="0"/>
        <pt x="110" y="519" on="0"/>
        <pt x="86" y="479" on="0"/>
      </contour>
      <contour>
        <pt x="226" y="278" on="1"/>
        <pt x="212" y="262" on="0"/>
        <pt x="198" y="220" on="0"/>
        <pt x="192" y="176" on="0"/>
        <pt x="191" y="130" on="0"/>
        <pt x="191" y="110" on="1"/>
        <pt x="191" y="108" on="0"/>
        <pt x="192" y="94" on="0"/>
        <pt x="192" y="93" on="1"/>
        <pt x="307" y="197" on="1"/>
      </contour>
    </TTGlyph>
    <TTGlyph name="aogonek" xMin="16" yMin="-97" xMax="434" yMax="527">
      <contour>
        <pt x="339" y="-5" on="1"/>
        <pt x="339" y="-18" on="0"/>
        <pt x="353" y="-41" on="0"/>
        <pt x="370" y="-64" on="0"/>
        <pt x="383" y="-86" on="0"/>
        <pt x="383" y="-97" on="1"/>
        <pt x="352" y="-97" on="0"/>
        <pt x="314" y="-75" on="0"/>
        <pt x="294" y="-43" on="0"/>
        <pt x="288" y="-10" on="0"/>
        <pt x="288" y="2" on="1"/>
        <pt x="288" y="13" on="0"/>
        <pt x="295" y="47" on="0"/>
        <pt x="317" y="76" on="0"/>
        <pt x="336" y="85" on="1"/>
        <pt x="354" y="95" on="0"/>
        <pt x="382" y="96" on="1"/>
        <pt x="261" y="347" on="1"/>
        <pt x="250" y="359" on="1"/>
        <pt x="247" y="348" on="0"/>
        <pt x="230" y="292" on="0"/>
        <pt x="211" y="229" on="0"/>
        <pt x="195" y="173" on="0"/>
        <pt x="192" y="162" on="1"/>
        <pt x="186" y="147" on="0"/>
        <pt x="167" y="93" on="0"/>
        <pt x="139" y="39" on="0"/>
        <pt x="103" y="-1" on="0"/>
        <pt x="81" y="-1" on="1"/>
        <pt x="63" y="-1" on="0"/>
        <pt x="39" y="22" on="0"/>
        <pt x="23" y="56" on="0"/>
        <pt x="16" y="92" on="0"/>
        <pt x="16" y="104" on="1"/>
        <pt x="16" y="133" on="0"/>
        <pt x="29" y="219" on="0"/>
        <pt x="54" y="312" on="0"/>
        <pt x="93" y="406" on="0"/>
        <pt x="143" y="481" on="0"/>
        <pt x="207" y="527" on="0"/>
        <pt x="245" y="527" on="1"/>
        <pt x="245" y="513" on="0"/>
        <pt x="222" y="486" on="0"/>
        <pt x="193" y="461" on="0"/>
        <pt x="163" y="438" on="0"/>
        <pt x="157" y="428" on="1"/>
        <pt x="133" y="397" on="0"/>
        <pt x="95" y="322" on="0"/>
        <pt x="67" y="243" on="0"/>
        <pt x="51" y="160" on="0"/>
        <pt x="51" y="121" on="1"/>
        <pt x="51" y="115" on="0"/>
        <pt x="55" y="90" on="0"/>
        <pt x="62" y="64" on="0"/>
        <pt x="74" y="45" on="0"/>
        <pt x="81" y="45" on="1"/>
        <pt x="84" y="45" on="1"/>
        <pt x="85" y="45" on="0"/>
        <pt x="86" y="46" on="1"/>
        <pt x="113" y="76" on="0"/>
        <pt x="149" y="146" on="0"/>
        <pt x="175" y="221" on="0"/>
        <pt x="193" y="299" on="0"/>
        <pt x="202" y="337" on="1"/>
        <pt x="205" y="348" on="0"/>
        <pt x="204" y="392" on="0"/>
        <pt x="209" y="434" on="0"/>
        <pt x="225" y="465" on="0"/>
        <pt x="246" y="465" on="1"/>
        <pt x="250" y="465" on="0"/>
        <pt x="261" y="464" on="0"/>
        <pt x="261" y="463" on="1"/>
        <pt x="298" y="386" on="0"/>
        <pt x="350" y="279" on="0"/>
        <pt x="386" y="209" on="0"/>
        <pt x="408" y="169" on="0"/>
        <pt x="419" y="148" on="0"/>
        <pt x="423" y="141" on="0"/>
        <pt x="423" y="139" on="1"/>
        <pt x="424" y="135" on="0"/>
        <pt x="426" y="114" on="0"/>
        <pt x="427" y="103" on="1"/>
        <pt x="427" y="93" on="1"/>
        <pt x="434" y="89" on="0"/>
        <pt x="434" y="80" on="1"/>
        <pt x="434" y="73" on="0"/>
        <pt x="428" y="70" on="1"/>
        <pt x="428" y="67" on="1"/>
        <pt x="414" y="67" on="1"/>
        <pt x="401" y="65" on="0"/>
        <pt x="386" y="60" on="1"/>
        <pt x="369" y="56" on="0"/>
        <pt x="339" y="29" on="0"/>
      </contour>
    </TTGlyph>
    <TTGlyph name="aring" xMin="16" yMin="-1" xMax="428" yMax="732">
      <contour>
        <pt x="94" y="579" on="1"/>
        <pt x="94" y="592" on="0"/>
        <pt x="97" y="643" on="0"/>
        <pt x="114" y="694" on="0"/>
        <pt x="154" y="732" on="0"/>
        <pt x="191" y="732" on="1"/>
        <pt x="224" y="732" on="0"/>
        <pt x="265" y="709" on="0"/>
        <pt x="287" y="676" on="0"/>
        <pt x="294" y="637" on="0"/>
        <pt x="294" y="622" on="1"/>
        <pt x="294" y="605" on="0"/>
        <pt x="283" y="564" on="0"/>
        <pt x="270" y="546" on="1"/>
        <pt x="260" y="533" on="0"/>
        <pt x="245" y="523" on="1"/>
        <pt x="243" y="511" on="0"/>
        <pt x="233" y="499" on="1"/>
        <pt x="222" y="486" on="0"/>
        <pt x="193" y="461" on="0"/>
        <pt x="163" y="438" on="0"/>
        <pt x="157" y="428" on="1"/>
        <pt x="133" y="397" on="0"/>
        <pt x="95" y="322" on="0"/>
        <pt x="67" y="243" on="0"/>
        <pt x="51" y="160" on="0"/>
        <pt x="51" y="121" on="1"/>
        <pt x="51" y="115" on="0"/>
        <pt x="55" y="90" on="0"/>
        <pt x="62" y="64" on="0"/>
        <pt x="74" y="45" on="0"/>
        <pt x="81" y="45" on="1"/>
        <pt x="84" y="45" on="1"/>
        <pt x="85" y="45" on="0"/>
        <pt x="86" y="46" on="1"/>
        <pt x="113" y="76" on="0"/>
        <pt x="149" y="146" on="0"/>
        <pt x="175" y="221" on="0"/>
        <pt x="193" y="299" on="0"/>
        <pt x="202" y="337" on="1"/>
        <pt x="205" y="348" on="0"/>
        <pt x="204" y="392" on="0"/>
        <pt x="209" y="434" on="0"/>
        <pt x="225" y="465" on="0"/>
        <pt x="246" y="465" on="1"/>
        <pt x="250" y="465" on="0"/>
        <pt x="261" y="464" on="0"/>
        <pt x="261" y="463" on="1"/>
        <pt x="298" y="386" on="0"/>
        <pt x="350" y="279" on="0"/>
        <pt x="386" y="209" on="0"/>
        <pt x="408" y="169" on="0"/>
        <pt x="419" y="148" on="0"/>
        <pt x="423" y="141" on="0"/>
        <pt x="423" y="139" on="1"/>
        <pt x="424" y="135" on="0"/>
        <pt x="426" y="114" on="0"/>
        <pt x="427" y="91" on="0"/>
        <pt x="428" y="70" on="0"/>
        <pt x="428" y="67" on="1"/>
        <pt x="418" y="67" on="0"/>
        <pt x="394" y="69" on="0"/>
        <pt x="389" y="81" on="1"/>
        <pt x="261" y="347" on="1"/>
        <pt x="250" y="359" on="1"/>
        <pt x="247" y="348" on="0"/>
        <pt x="230" y="292" on="0"/>
        <pt x="211" y="229" on="0"/>
        <pt x="195" y="173" on="0"/>
        <pt x="192" y="162" on="1"/>
        <pt x="186" y="147" on="0"/>
        <pt x="167" y="93" on="0"/>
        <pt x="139" y="39" on="0"/>
        <pt x="103" y="-1" on="0"/>
        <pt x="81" y="-1" on="1"/>
        <pt x="63" y="-1" on="0"/>
        <pt x="39" y="22" on="0"/>
        <pt x="23" y="56" on="0"/>
        <pt x="16" y="92" on="0"/>
        <pt x="16" y="104" on="1"/>
        <pt x="16" y="133" on="0"/>
        <pt x="29" y="219" on="0"/>
        <pt x="54" y="312" on="0"/>
        <pt x="93" y="406" on="0"/>
        <pt x="143" y="481" on="0"/>
        <pt x="175" y="504" on="1"/>
        <pt x="175" y="505" on="0"/>
        <pt x="177" y="506" on="1"/>
        <pt x="157" y="506" on="0"/>
        <pt x="141" y="513" on="1"/>
        <pt x="125" y="520" on="0"/>
        <pt x="104" y="543" on="0"/>
        <pt x="94" y="568" on="0"/>
      </contour>
      <contour>
        <pt x="118" y="584" on="1"/>
        <pt x="135" y="546" on="0"/>
        <pt x="187" y="529" on="0"/>
        <pt x="236" y="551" on="0"/>
        <pt x="272" y="598" on="0"/>
        <pt x="276" y="652" on="0"/>
        <pt x="240" y="697" on="0"/>
        <pt x="192" y="706" on="1"/>
        <pt x="166" y="706" on="0"/>
        <pt x="136" y="674" on="0"/>
        <pt x="121" y="632" on="0"/>
        <pt x="118" y="591" on="0"/>
      </contour>
    </TTGlyph>
    <TTGlyph name="asciicircum" xMin="58" yMin="706" xMax="347" yMax="962">
      <contour>
        <pt x="58" y="720" on="1"/>
        <pt x="65" y="733" on="0"/>
        <pt x="86" y="784" on="0"/>
        <pt x="109" y="839" on="0"/>
        <pt x="130" y="889" on="0"/>
        <pt x="136" y="904" on="1"/>
        <pt x="139" y="913" on="0"/>
        <pt x="142" y="933" on="0"/>
        <pt x="148" y="950" on="0"/>
        <pt x="158" y="962" on="0"/>
        <pt x="171" y="962" on="1"/>
        <pt x="177" y="962" on="1"/>
        <pt x="181" y="962" on="0"/>
        <pt x="182" y="961" on="1"/>
        <pt x="310" y="804" on="1"/>
        <pt x="334" y="810" on="0"/>
        <pt x="347" y="790" on="0"/>
        <pt x="347" y="776" on="1"/>
        <pt x="347" y="763" on="0"/>
        <pt x="333" y="733" on="0"/>
        <pt x="316" y="733" on="1"/>
        <pt x="294" y="747" on="0"/>
        <pt x="261" y="784" on="0"/>
        <pt x="234" y="824" on="0"/>
        <pt x="213" y="864" on="0"/>
        <pt x="204" y="880" on="1"/>
        <pt x="202" y="883" on="0"/>
        <pt x="184" y="892" on="0"/>
        <pt x="182" y="892" on="1"/>
        <pt x="180" y="892" on="0"/>
        <pt x="171" y="883" on="0"/>
        <pt x="170" y="880" on="1"/>
        <pt x="81" y="707" on="1"/>
        <pt x="81" y="706" on="0"/>
        <pt x="79" y="706" on="1"/>
        <pt x="76" y="706" on="1"/>
        <pt x="64" y="706" on="0"/>
      </contour>
    </TTGlyph>
    <TTGlyph name="asciitilde" xMin="63" yMin="517" xMax="463" yMax="689">
      <contour>
        <pt x="66" y="546" on="1"/>
        <pt x="63" y="573" on="0"/>
        <pt x="77" y="625" on="0"/>
        <pt x="107" y="666" on="0"/>
        <pt x="153" y="689" on="0"/>
        <pt x="183" y="687" on="1"/>
        <pt x="209" y="687" on="0"/>
        <pt x="249" y="654" on="0"/>
        <pt x="288" y="616" on="0"/>
        <pt x="330" y="584" on="0"/>
        <pt x="359" y="584" on="1"/>
        <pt x="383" y="584" on="0"/>
        <pt x="413" y="607" on="0"/>
        <pt x="435" y="634" on="0"/>
        <pt x="452" y="657" on="0"/>
        <pt x="463" y="657" on="1"/>
        <pt x="463" y="599" on="0"/>
        <pt x="401" y="551" on="0"/>
        <pt x="354" y="551" on="1"/>
        <pt x="320" y="551" on="0"/>
        <pt x="275" y="580" on="0"/>
        <pt x="238" y="615" on="0"/>
        <pt x="202" y="644" on="0"/>
        <pt x="178" y="644" on="1"/>
        <pt x="158" y="644" on="0"/>
        <pt x="132" y="621" on="0"/>
        <pt x="116" y="587" on="0"/>
        <pt x="108" y="546" on="0"/>
        <pt x="106" y="530" on="1"/>
        <pt x="101" y="526" on="0"/>
        <pt x="88" y="517" on="0"/>
        <pt x="81" y="517" on="1"/>
        <pt x="72" y="517" on="0"/>
        <pt x="66" y="538" on="0"/>
      </contour>
    </TTGlyph>
    <TTGlyph name="asterisk" xMin="16" yMin="204" xMax="378" yMax="569">
      <contour>
        <pt x="30" y="336" on="1"/>
        <pt x="20" y="336" on="0"/>
        <pt x="16" y="355" on="0"/>
        <pt x="16" y="360" on="1"/>
        <pt x="16" y="378" on="0"/>
        <pt x="46" y="382" on="0"/>
        <pt x="81" y="379" on="0"/>
        <pt x="111" y="379" on="0"/>
        <pt x="111" y="393" on="1"/>
        <pt x="111" y="409" on="0"/>
        <pt x="92" y="437" on="0"/>
        <pt x="68" y="464" on="0"/>
        <pt x="49" y="494" on="0"/>
        <pt x="49" y="513" on="1"/>
        <pt x="67" y="513" on="0"/>
        <pt x="92" y="483" on="0"/>
        <pt x="112" y="446" on="0"/>
        <pt x="135" y="417" on="0"/>
        <pt x="151" y="417" on="1"/>
        <pt x="157" y="417" on="1"/>
        <pt x="159" y="424" on="0"/>
        <pt x="175" y="461" on="0"/>
        <pt x="193" y="501" on="0"/>
        <pt x="211" y="537" on="0"/>
        <pt x="215" y="544" on="1"/>
        <pt x="217" y="547" on="0"/>
        <pt x="233" y="565" on="0"/>
        <pt x="238" y="568" on="1"/>
        <pt x="239" y="568" on="1"/>
        <pt x="240" y="568" on="0"/>
        <pt x="242" y="569" on="0"/>
        <pt x="243" y="569" on="1"/>
        <pt x="251" y="569" on="0"/>
        <pt x="262" y="558" on="0"/>
        <pt x="262" y="550" on="1"/>
        <pt x="262" y="533" on="0"/>
        <pt x="244" y="499" on="0"/>
        <pt x="222" y="464" on="0"/>
        <pt x="204" y="427" on="0"/>
        <pt x="204" y="408" on="1"/>
        <pt x="245" y="408" on="0"/>
        <pt x="320" y="417" on="0"/>
        <pt x="360" y="417" on="1"/>
        <pt x="367" y="417" on="0"/>
        <pt x="378" y="407" on="0"/>
        <pt x="378" y="399" on="1"/>
        <pt x="378" y="394" on="0"/>
        <pt x="356" y="386" on="0"/>
        <pt x="323" y="379" on="0"/>
        <pt x="283" y="373" on="0"/>
        <pt x="243" y="367" on="0"/>
        <pt x="211" y="362" on="0"/>
        <pt x="202" y="359" on="1"/>
        <pt x="226" y="330" on="0"/>
        <pt x="289" y="286" on="0"/>
        <pt x="328" y="286" on="1"/>
        <pt x="328" y="272" on="0"/>
        <pt x="314" y="243" on="0"/>
        <pt x="296" y="243" on="1"/>
        <pt x="275" y="243" on="0"/>
        <pt x="244" y="265" on="0"/>
        <pt x="216" y="292" on="0"/>
        <pt x="187" y="319" on="0"/>
        <pt x="168" y="324" on="1"/>
        <pt x="166" y="318" on="0"/>
        <pt x="157" y="279" on="0"/>
        <pt x="139" y="237" on="0"/>
        <pt x="112" y="204" on="0"/>
        <pt x="94" y="204" on="1"/>
        <pt x="94" y="222" on="0"/>
        <pt x="102" y="255" on="0"/>
        <pt x="112" y="287" on="0"/>
        <pt x="119" y="319" on="0"/>
        <pt x="119" y="336" on="1"/>
      </contour>
    </TTGlyph>
    <TTGlyph name="at" xMin="22" yMin="0" xMax="467" yMax="544">
      <contour>
        <pt x="22" y="156" on="1"/>
        <pt x="22" y="193" on="0"/>
        <pt x="45" y="278" on="0"/>
        <pt x="85" y="364" on="0"/>
        <pt x="140" y="445" on="0"/>
        <pt x="208" y="508" on="0"/>
        <pt x="283" y="544" on="0"/>
        <pt x="324" y="544" on="1"/>
        <pt x="359" y="544" on="0"/>
        <pt x="408" y="500" on="0"/>
        <pt x="439" y="432" on="0"/>
        <pt x="457" y="346" on="0"/>
        <pt x="465" y="265" on="0"/>
        <pt x="467" y="194" on="0"/>
        <pt x="467" y="175" on="1"/>
        <pt x="428" y="175" on="1"/>
        <pt x="427" y="184" on="0"/>
        <pt x="426" y="209" on="0"/>
        <pt x="423" y="234" on="0"/>
        <pt x="416" y="257" on="0"/>
        <pt x="408" y="265" on="1"/>
        <pt x="401" y="253" on="0"/>
        <pt x="377" y="217" on="0"/>
        <pt x="346" y="176" on="0"/>
        <pt x="310" y="135" on="0"/>
        <pt x="275" y="102" on="0"/>
        <pt x="243" y="81" on="0"/>
        <pt x="231" y="81" on="1"/>
        <pt x="213" y="81" on="0"/>
        <pt x="187" y="101" on="0"/>
        <pt x="170" y="130" on="0"/>
        <pt x="162" y="165" on="0"/>
        <pt x="162" y="180" on="1"/>
        <pt x="164" y="207" on="0"/>
        <pt x="183" y="268" on="0"/>
        <pt x="212" y="328" on="0"/>
        <pt x="253" y="381" on="0"/>
        <pt x="301" y="418" on="0"/>
        <pt x="354" y="435" on="0"/>
        <pt x="382" y="428" on="1"/>
        <pt x="385" y="428" on="0"/>
        <pt x="394" y="437" on="0"/>
        <pt x="394" y="440" on="1"/>
        <pt x="394" y="453" on="0"/>
        <pt x="380" y="474" on="0"/>
        <pt x="358" y="490" on="0"/>
        <pt x="333" y="499" on="0"/>
        <pt x="322" y="499" on="1"/>
        <pt x="267" y="499" on="0"/>
        <pt x="171" y="431" on="0"/>
        <pt x="99" y="329" on="0"/>
        <pt x="57" y="211" on="0"/>
        <pt x="57" y="162" on="1"/>
        <pt x="54" y="121" on="0"/>
        <pt x="87" y="67" on="0"/>
        <pt x="143" y="40" on="0"/>
        <pt x="211" y="42" on="0"/>
        <pt x="243" y="58" on="1"/>
        <pt x="246" y="58" on="0"/>
        <pt x="256" y="49" on="0"/>
        <pt x="256" y="46" on="1"/>
        <pt x="238" y="23" on="0"/>
        <pt x="184" y="0" on="0"/>
        <pt x="157" y="0" on="1"/>
        <pt x="124" y="0" on="0"/>
        <pt x="74" y="27" on="0"/>
        <pt x="40" y="70" on="0"/>
        <pt x="22" y="126" on="0"/>
      </contour>
      <contour>
        <pt x="208" y="139" on="1"/>
        <pt x="215" y="127" on="0"/>
        <pt x="226" y="127" on="1"/>
        <pt x="243" y="127" on="0"/>
        <pt x="280" y="154" on="0"/>
        <pt x="315" y="196" on="0"/>
        <pt x="346" y="249" on="0"/>
        <pt x="370" y="301" on="0"/>
        <pt x="383" y="346" on="0"/>
        <pt x="383" y="360" on="1"/>
        <pt x="383" y="375" on="0"/>
        <pt x="363" y="395" on="0"/>
        <pt x="347" y="395" on="1"/>
        <pt x="316" y="395" on="0"/>
        <pt x="265" y="346" on="0"/>
        <pt x="228" y="277" on="0"/>
        <pt x="207" y="204" on="0"/>
        <pt x="207" y="180" on="1"/>
        <pt x="207" y="171" on="1"/>
        <pt x="207" y="166" on="0"/>
        <pt x="208" y="153" on="0"/>
        <pt x="208" y="147" on="1"/>
      </contour>
    </TTGlyph>
    <TTGlyph name="atilde" xMin="8" yMin="-1" xMax="428" yMax="689">
      <component glyphName="a" x="0" y="0" flags="0x204"/>
      <component glyphName="tilde" x="-55" y="0" flags="0x4"/>
    </TTGlyph>
    <TTGlyph name="b" xMin="23" yMin="-1" xMax="360" yMax="732">
      <contour>
        <pt x="23" y="715" on="1"/>
        <pt x="23" y="724" on="0"/>
        <pt x="38" y="732" on="0"/>
        <pt x="46" y="732" on="1"/>
        <pt x="48" y="732" on="0"/>
        <pt x="57" y="730" on="0"/>
        <pt x="58" y="730" on="1"/>
        <pt x="92" y="290" on="1"/>
        <pt x="98" y="314" on="0"/>
        <pt x="118" y="357" on="0"/>
        <pt x="147" y="390" on="0"/>
        <pt x="187" y="408" on="0"/>
        <pt x="215" y="408" on="1"/>
        <pt x="249" y="408" on="0"/>
        <pt x="303" y="375" on="0"/>
        <pt x="340" y="325" on="0"/>
        <pt x="360" y="261" on="0"/>
        <pt x="360" y="230" on="1"/>
        <pt x="360" y="185" on="0"/>
        <pt x="315" y="102" on="0"/>
        <pt x="243" y="38" on="0"/>
        <pt x="154" y="-1" on="0"/>
        <pt x="110" y="-1" on="1"/>
        <pt x="93" y="-1" on="0"/>
        <pt x="76" y="25" on="0"/>
        <pt x="70" y="60" on="0"/>
        <pt x="70" y="95" on="0"/>
        <pt x="69" y="104" on="1"/>
        <pt x="63" y="185" on="0"/>
        <pt x="51" y="332" on="0"/>
        <pt x="40" y="476" on="0"/>
        <pt x="29" y="624" on="0"/>
        <pt x="23" y="706" on="1"/>
      </contour>
      <contour>
        <pt x="208" y="372" on="1"/>
        <pt x="184" y="372" on="0"/>
        <pt x="148" y="329" on="0"/>
        <pt x="127" y="273" on="0"/>
        <pt x="117" y="214" on="0"/>
        <pt x="116" y="197" on="1"/>
        <pt x="115" y="189" on="0"/>
        <pt x="113" y="144" on="0"/>
        <pt x="112" y="94" on="0"/>
        <pt x="112" y="49" on="0"/>
        <pt x="112" y="40" on="1"/>
        <pt x="145" y="40" on="0"/>
        <pt x="220" y="70" on="0"/>
        <pt x="283" y="122" on="0"/>
        <pt x="325" y="189" on="0"/>
        <pt x="325" y="226" on="1"/>
        <pt x="325" y="248" on="0"/>
        <pt x="307" y="300" on="0"/>
        <pt x="276" y="343" on="0"/>
        <pt x="233" y="372" on="0"/>
      </contour>
    </TTGlyph>
    <TTGlyph name="backslash" xMin="12" yMin="0" xMax="546" yMax="721">
      <contour>
        <pt x="12" y="696" on="1"/>
        <pt x="44" y="721" on="1"/>
        <pt x="475" y="127" on="1"/>
        <pt x="480" y="123" on="0"/>
        <pt x="504" y="102" on="0"/>
        <pt x="528" y="74" on="0"/>
        <pt x="546" y="45" on="0"/>
        <pt x="545" y="35" on="1"/>
        <pt x="544" y="31" on="0"/>
        <pt x="536" y="20" on="0"/>
        <pt x="526" y="9" on="0"/>
        <pt x="514" y="0" on="0"/>
        <pt x="510" y="0" on="1"/>
        <pt x="504" y="4" on="0"/>
        <pt x="492" y="21" on="0"/>
        <pt x="483" y="40" on="0"/>
        <pt x="476" y="56" on="0"/>
        <pt x="475" y="58" on="1"/>
      </contour>
    </TTGlyph>
    <TTGlyph name="bar" xMin="11" yMin="0" xMax="129" yMax="639">
      <contour>
        <pt x="11" y="591" on="1"/>
        <pt x="11" y="604" on="1"/>
        <pt x="11" y="612" on="0"/>
        <pt x="13" y="627" on="0"/>
        <pt x="22" y="639" on="0"/>
        <pt x="29" y="639" on="1"/>
        <pt x="34" y="639" on="0"/>
        <pt x="45" y="633" on="0"/>
        <pt x="47" y="625" on="1"/>
        <pt x="59" y="540" on="0"/>
        <pt x="70" y="364" on="0"/>
        <pt x="81" y="278" on="1"/>
        <pt x="84" y="263" on="0"/>
        <pt x="91" y="210" on="0"/>
        <pt x="99" y="158" on="0"/>
        <pt x="104" y="119" on="0"/>
        <pt x="105" y="116" on="1"/>
        <pt x="105" y="113" on="0"/>
        <pt x="112" y="93" on="0"/>
        <pt x="121" y="69" on="0"/>
        <pt x="127" y="49" on="0"/>
        <pt x="128" y="46" on="1"/>
        <pt x="128" y="45" on="0"/>
        <pt x="129" y="36" on="0"/>
        <pt x="129" y="34" on="1"/>
        <pt x="129" y="22" on="0"/>
        <pt x="121" y="7" on="0"/>
        <pt x="105" y="0" on="1"/>
        <pt x="93" y="5" on="0"/>
        <pt x="83" y="38" on="0"/>
        <pt x="81" y="46" on="1"/>
        <pt x="12" y="568" on="1"/>
        <pt x="12" y="570" on="0"/>
        <pt x="11" y="587" on="0"/>
      </contour>
    </TTGlyph>
    <TTGlyph name="braceleft" xMin="12" yMin="-52" xMax="286" yMax="846">
      <contour>
        <pt x="70" y="91" on="1"/>
        <pt x="70" y="130" on="0"/>
        <pt x="94" y="204" on="0"/>
        <pt x="131" y="273" on="0"/>
        <pt x="175" y="336" on="0"/>
        <pt x="194" y="365" on="1"/>
        <pt x="182" y="366" on="0"/>
        <pt x="154" y="369" on="0"/>
        <pt x="130" y="379" on="0"/>
        <pt x="113" y="398" on="0"/>
        <pt x="113" y="416" on="1"/>
        <pt x="113" y="439" on="0"/>
        <pt x="123" y="472" on="0"/>
        <pt x="139" y="494" on="1"/>
        <pt x="121" y="492" on="0"/>
        <pt x="77" y="490" on="0"/>
        <pt x="39" y="502" on="0"/>
        <pt x="12" y="531" on="0"/>
        <pt x="12" y="559" on="1"/>
        <pt x="12" y="586" on="0"/>
        <pt x="31" y="641" on="0"/>
        <pt x="63" y="695" on="0"/>
        <pt x="103" y="746" on="0"/>
        <pt x="144" y="792" on="0"/>
        <pt x="181" y="831" on="0"/>
        <pt x="194" y="845" on="1"/>
        <pt x="195" y="845" on="0"/>
        <pt x="199" y="846" on="0"/>
        <pt x="201" y="846" on="1"/>
        <pt x="211" y="846" on="0"/>
        <pt x="218" y="832" on="1"/>
        <pt x="190" y="795" on="0"/>
        <pt x="135" y="733" on="0"/>
        <pt x="91" y="668" on="0"/>
        <pt x="64" y="596" on="0"/>
        <pt x="64" y="549" on="1"/>
        <pt x="97" y="549" on="0"/>
        <pt x="157" y="561" on="0"/>
        <pt x="189" y="561" on="1"/>
        <pt x="193" y="561" on="0"/>
        <pt x="215" y="559" on="0"/>
        <pt x="218" y="559" on="1"/>
        <pt x="221" y="557" on="0"/>
        <pt x="229" y="537" on="0"/>
        <pt x="229" y="533" on="1"/>
        <pt x="226" y="519" on="0"/>
        <pt x="208" y="497" on="0"/>
        <pt x="187" y="474" on="0"/>
        <pt x="171" y="451" on="0"/>
        <pt x="171" y="436" on="1"/>
        <pt x="171" y="434" on="0"/>
        <pt x="172" y="429" on="0"/>
        <pt x="172" y="428" on="1"/>
        <pt x="186" y="427" on="0"/>
        <pt x="215" y="427" on="0"/>
        <pt x="238" y="419" on="0"/>
        <pt x="253" y="401" on="0"/>
        <pt x="253" y="383" on="1"/>
        <pt x="253" y="374" on="1"/>
        <pt x="253" y="367" on="0"/>
        <pt x="252" y="365" on="1"/>
        <pt x="228" y="336" on="0"/>
        <pt x="178" y="276" on="0"/>
        <pt x="139" y="211" on="0"/>
        <pt x="114" y="140" on="0"/>
        <pt x="114" y="99" on="1"/>
        <pt x="114" y="86" on="1"/>
        <pt x="114" y="78" on="0"/>
        <pt x="115" y="59" on="0"/>
        <pt x="115" y="50" on="1"/>
        <pt x="115" y="40" on="1"/>
        <pt x="120" y="23" on="0"/>
        <pt x="134" y="7" on="0"/>
        <pt x="151" y="-1" on="0"/>
        <pt x="172" y="-2" on="0"/>
        <pt x="183" y="-2" on="1"/>
        <pt x="199" y="-2" on="0"/>
        <pt x="224" y="1" on="0"/>
        <pt x="247" y="10" on="0"/>
        <pt x="271" y="26" on="0"/>
        <pt x="285" y="40" on="1"/>
        <pt x="286" y="38" on="0"/>
        <pt x="286" y="32" on="1"/>
        <pt x="286" y="26" on="1"/>
        <pt x="286" y="8" on="0"/>
        <pt x="262" y="-21" on="0"/>
        <pt x="227" y="-41" on="0"/>
        <pt x="190" y="-52" on="0"/>
        <pt x="178" y="-52" on="1"/>
        <pt x="149" y="-52" on="0"/>
        <pt x="109" y="-30" on="0"/>
        <pt x="83" y="10" on="0"/>
        <pt x="70" y="62" on="0"/>
      </contour>
    </TTGlyph>
    <TTGlyph name="braceright" xMin="17" yMin="-54" xMax="298" yMax="796">
      <contour>
        <pt x="122" y="-40" on="1"/>
        <pt x="122" y="-27" on="0"/>
        <pt x="143" y="-5" on="0"/>
        <pt x="175" y="19" on="0"/>
        <pt x="211" y="46" on="0"/>
        <pt x="242" y="80" on="0"/>
        <pt x="263" y="124" on="0"/>
        <pt x="263" y="153" on="1"/>
        <pt x="263" y="183" on="0"/>
        <pt x="223" y="223" on="0"/>
        <pt x="170" y="248" on="0"/>
        <pt x="115" y="261" on="0"/>
        <pt x="100" y="265" on="1"/>
        <pt x="99" y="268" on="0"/>
        <pt x="98" y="287" on="0"/>
        <pt x="98" y="292" on="1"/>
        <pt x="98" y="309" on="0"/>
        <pt x="113" y="332" on="0"/>
        <pt x="131" y="353" on="0"/>
        <pt x="147" y="374" on="0"/>
        <pt x="147" y="390" on="1"/>
        <pt x="147" y="404" on="0"/>
        <pt x="132" y="413" on="0"/>
        <pt x="112" y="414" on="0"/>
        <pt x="87" y="410" on="0"/>
        <pt x="67" y="413" on="0"/>
        <pt x="52" y="427" on="0"/>
        <pt x="52" y="444" on="1"/>
        <pt x="52" y="445" on="0"/>
        <pt x="53" y="449" on="0"/>
        <pt x="53" y="450" on="1"/>
        <pt x="58" y="455" on="0"/>
        <pt x="82" y="485" on="0"/>
        <pt x="107" y="519" on="0"/>
        <pt x="130" y="550" on="0"/>
        <pt x="135" y="556" on="1"/>
        <pt x="136" y="558" on="0"/>
        <pt x="148" y="579" on="0"/>
        <pt x="163" y="604" on="0"/>
        <pt x="176" y="628" on="0"/>
        <pt x="181" y="635" on="1"/>
        <pt x="187" y="646" on="0"/>
        <pt x="193" y="659" on="0"/>
        <pt x="193" y="669" on="1"/>
        <pt x="193" y="683" on="0"/>
        <pt x="182" y="721" on="0"/>
        <pt x="169" y="728" on="1"/>
        <pt x="161" y="728" on="1"/>
        <pt x="156" y="728" on="0"/>
        <pt x="142" y="729" on="0"/>
        <pt x="136" y="729" on="1"/>
        <pt x="128" y="729" on="1"/>
        <pt x="103" y="729" on="0"/>
        <pt x="59" y="715" on="0"/>
        <pt x="35" y="715" on="1"/>
        <pt x="25" y="715" on="0"/>
        <pt x="17" y="732" on="0"/>
        <pt x="17" y="742" on="1"/>
        <pt x="17" y="754" on="0"/>
        <pt x="30" y="774" on="0"/>
        <pt x="49" y="788" on="0"/>
        <pt x="71" y="796" on="0"/>
        <pt x="81" y="796" on="1"/>
        <pt x="111" y="796" on="0"/>
        <pt x="165" y="783" on="0"/>
        <pt x="205" y="753" on="0"/>
        <pt x="229" y="705" on="0"/>
        <pt x="229" y="669" on="1"/>
        <pt x="229" y="661" on="0"/>
        <pt x="228" y="636" on="0"/>
        <pt x="227" y="635" on="1"/>
        <pt x="135" y="476" on="1"/>
        <pt x="135" y="461" on="1"/>
        <pt x="156" y="461" on="1"/>
        <pt x="168" y="461" on="0"/>
        <pt x="190" y="454" on="0"/>
        <pt x="205" y="438" on="0"/>
        <pt x="205" y="424" on="1"/>
        <pt x="205" y="409" on="0"/>
        <pt x="193" y="382" on="0"/>
        <pt x="179" y="358" on="0"/>
        <pt x="167" y="332" on="0"/>
        <pt x="167" y="317" on="1"/>
        <pt x="167" y="315" on="0"/>
        <pt x="168" y="307" on="0"/>
        <pt x="169" y="305" on="1"/>
        <pt x="197" y="294" on="0"/>
        <pt x="245" y="264" on="0"/>
        <pt x="279" y="223" on="0"/>
        <pt x="298" y="170" on="0"/>
        <pt x="298" y="137" on="1"/>
        <pt x="298" y="108" on="0"/>
        <pt x="271" y="41" on="0"/>
        <pt x="228" y="-15" on="0"/>
        <pt x="174" y="-54" on="0"/>
        <pt x="147" y="-54" on="1"/>
        <pt x="141" y="-54" on="0"/>
        <pt x="122" y="-50" on="0"/>
      </contour>
    </TTGlyph>
    <TTGlyph name="bracketleft" xMin="22" yMin="-111" xMax="328" yMax="958">
      <contour>
        <pt x="35" y="-64" on="1"/>
        <pt x="35" y="-63" on="0"/>
        <pt x="39" y="-56" on="0"/>
        <pt x="42" y="-48" on="0"/>
        <pt x="46" y="-41" on="0"/>
        <pt x="46" y="-41" on="1"/>
        <pt x="46" y="-34" on="1"/>
        <pt x="46" y="-29" on="0"/>
        <pt x="47" y="-14" on="0"/>
        <pt x="47" y="-5" on="1"/>
        <pt x="47" y="6" on="1"/>
        <pt x="47" y="104" on="0"/>
        <pt x="40" y="300" on="0"/>
        <pt x="30" y="496" on="0"/>
        <pt x="22" y="691" on="0"/>
        <pt x="22" y="789" on="1"/>
        <pt x="22" y="815" on="1"/>
        <pt x="22" y="834" on="0"/>
        <pt x="23" y="877" on="0"/>
        <pt x="23" y="895" on="1"/>
        <pt x="23" y="922" on="1"/>
        <pt x="25" y="923" on="0"/>
        <pt x="54" y="930" on="0"/>
        <pt x="98" y="938" on="0"/>
        <pt x="150" y="946" on="0"/>
        <pt x="198" y="953" on="0"/>
        <pt x="236" y="958" on="0"/>
        <pt x="244" y="958" on="1"/>
        <pt x="259" y="958" on="0"/>
        <pt x="279" y="951" on="0"/>
        <pt x="279" y="933" on="1"/>
        <pt x="279" y="927" on="0"/>
        <pt x="276" y="913" on="0"/>
        <pt x="266" y="911" on="1"/>
        <pt x="81" y="887" on="1"/>
        <pt x="69" y="865" on="1"/>
        <pt x="69" y="697" on="1"/>
        <pt x="69" y="640" on="0"/>
        <pt x="70" y="504" on="0"/>
        <pt x="72" y="362" on="0"/>
        <pt x="76" y="223" on="0"/>
        <pt x="80" y="103" on="0"/>
        <pt x="87" y="9" on="0"/>
        <pt x="92" y="-16" on="1"/>
        <pt x="94" y="-23" on="0"/>
        <pt x="103" y="-41" on="0"/>
        <pt x="104" y="-41" on="1"/>
        <pt x="328" y="-41" on="1"/>
        <pt x="328" y="-49" on="1"/>
        <pt x="328" y="-56" on="0"/>
        <pt x="326" y="-72" on="0"/>
        <pt x="319" y="-86" on="0"/>
        <pt x="312" y="-86" on="1"/>
        <pt x="284" y="-92" on="0"/>
        <pt x="220" y="-100" on="0"/>
        <pt x="156" y="-107" on="0"/>
        <pt x="92" y="-111" on="0"/>
        <pt x="63" y="-111" on="1"/>
        <pt x="56" y="-111" on="0"/>
        <pt x="45" y="-99" on="0"/>
        <pt x="39" y="-83" on="0"/>
        <pt x="35" y="-68" on="0"/>
      </contour>
    </TTGlyph>
    <TTGlyph name="bracketright" xMin="-53" yMin="-93" xMax="423" yMax="952">
      <contour>
        <pt x="131" y="-69" on="1"/>
        <pt x="130" y="-65" on="0"/>
        <pt x="140" y="-47" on="0"/>
        <pt x="144" y="-46" on="1"/>
        <pt x="336" y="3" on="1"/>
        <pt x="260" y="905" on="1"/>
        <pt x="254" y="905" on="1"/>
        <pt x="176" y="905" on="0"/>
        <pt x="25" y="889" on="0"/>
        <pt x="-53" y="889" on="1"/>
        <pt x="-53" y="916" on="1"/>
        <pt x="-44" y="917" on="0"/>
        <pt x="2" y="920" on="0"/>
        <pt x="53" y="924" on="0"/>
        <pt x="100" y="927" on="0"/>
        <pt x="109" y="928" on="1"/>
        <pt x="121" y="928" on="1"/>
        <pt x="124" y="928" on="0"/>
        <pt x="149" y="931" on="0"/>
        <pt x="183" y="937" on="0"/>
        <pt x="220" y="942" on="0"/>
        <pt x="254" y="948" on="0"/>
        <pt x="278" y="950" on="0"/>
        <pt x="283" y="951" on="1"/>
        <pt x="283" y="951" on="0"/>
        <pt x="294" y="952" on="0"/>
        <pt x="296" y="952" on="1"/>
        <pt x="306" y="952" on="0"/>
        <pt x="319" y="946" on="0"/>
        <pt x="318" y="928" on="1"/>
        <pt x="316" y="885" on="0"/>
        <pt x="319" y="792" on="0"/>
        <pt x="329" y="681" on="0"/>
        <pt x="346" y="545" on="0"/>
        <pt x="364" y="373" on="0"/>
        <pt x="387" y="158" on="0"/>
        <pt x="399" y="24" on="1"/>
        <pt x="413" y="17" on="0"/>
        <pt x="423" y="2" on="0"/>
        <pt x="423" y="-11" on="1"/>
        <pt x="423" y="-23" on="0"/>
        <pt x="413" y="-41" on="0"/>
        <pt x="399" y="-46" on="1"/>
        <pt x="396" y="-47" on="0"/>
        <pt x="379" y="-47" on="0"/>
        <pt x="360" y="-46" on="0"/>
        <pt x="351" y="-46" on="1"/>
        <pt x="341" y="-46" on="1"/>
        <pt x="319" y="-48" on="0"/>
        <pt x="274" y="-63" on="0"/>
        <pt x="229" y="-79" on="0"/>
        <pt x="186" y="-93" on="0"/>
        <pt x="166" y="-93" on="1"/>
        <pt x="155" y="-93" on="0"/>
        <pt x="136" y="-85" on="0"/>
      </contour>
    </TTGlyph>
    <TTGlyph name="breve" xMin="97" yMin="598" xMax="301" yMax="722">
      <contour>
        <pt x="121" y="677" on="1"/>
        <pt x="144" y="641" on="0"/>
        <pt x="184" y="614" on="0"/>
        <pt x="218" y="617" on="0"/>
        <pt x="246" y="643" on="0"/>
        <pt x="268" y="676" on="0"/>
        <pt x="284" y="707" on="0"/>
        <pt x="295" y="722" on="0"/>
        <pt x="301" y="712" on="0"/>
        <pt x="301" y="687" on="1"/>
        <pt x="301" y="670" on="0"/>
        <pt x="289" y="638" on="0"/>
        <pt x="261" y="614" on="0"/>
        <pt x="215" y="598" on="0"/>
        <pt x="182" y="598" on="1"/>
        <pt x="160" y="598" on="0"/>
        <pt x="128" y="613" on="0"/>
        <pt x="107" y="635" on="0"/>
        <pt x="97" y="661" on="0"/>
        <pt x="97" y="671" on="1"/>
        <pt x="97" y="687" on="1"/>
        <pt x="97" y="697" on="0"/>
        <pt x="102" y="705" on="0"/>
        <pt x="111" y="697" on="0"/>
      </contour>
    </TTGlyph>
    <TTGlyph name="brokenbar" xMin="11" yMin="0" xMax="129" yMax="639">
      <contour>
        <pt x="76" y="309" on="1"/>
        <pt x="80" y="261" on="0"/>
        <pt x="96" y="165" on="0"/>
        <pt x="105" y="116" on="1"/>
        <pt x="105" y="113" on="0"/>
        <pt x="112" y="93" on="0"/>
        <pt x="121" y="69" on="0"/>
        <pt x="127" y="49" on="0"/>
        <pt x="128" y="46" on="1"/>
        <pt x="128" y="45" on="0"/>
        <pt x="129" y="36" on="0"/>
        <pt x="129" y="34" on="1"/>
        <pt x="129" y="22" on="0"/>
        <pt x="121" y="7" on="0"/>
        <pt x="105" y="0" on="1"/>
        <pt x="93" y="5" on="0"/>
        <pt x="83" y="38" on="0"/>
        <pt x="81" y="46" on="1"/>
        <pt x="44" y="305" on="1"/>
      </contour>
      <contour>
        <pt x="12" y="568" on="1"/>
        <pt x="12" y="570" on="0"/>
        <pt x="11" y="587" on="0"/>
        <pt x="11" y="591" on="1"/>
        <pt x="11" y="604" on="1"/>
        <pt x="11" y="612" on="0"/>
        <pt x="13" y="627" on="0"/>
        <pt x="22" y="639" on="0"/>
        <pt x="29" y="639" on="1"/>
        <pt x="34" y="639" on="0"/>
        <pt x="45" y="633" on="0"/>
        <pt x="47" y="625" on="1"/>
        <pt x="50" y="601" on="0"/>
        <pt x="57" y="534" on="0"/>
        <pt x="64" y="461" on="0"/>
        <pt x="69" y="391" on="0"/>
        <pt x="71" y="367" on="1"/>
      </contour>
    </TTGlyph>
    <TTGlyph name="bullet" xMin="49" yMin="181" xMax="177" yMax="310">
      <contour>
        <pt x="49" y="247" on="1"/>
        <pt x="49" y="272" on="0"/>
        <pt x="81" y="310" on="0"/>
        <pt x="112" y="310" on="1"/>
        <pt x="140" y="310" on="0"/>
        <pt x="177" y="291" on="0"/>
        <pt x="177" y="265" on="1"/>
        <pt x="177" y="249" on="0"/>
        <pt x="165" y="219" on="0"/>
        <pt x="141" y="195" on="0"/>
        <pt x="111" y="181" on="0"/>
        <pt x="92" y="181" on="1"/>
        <pt x="76" y="181" on="0"/>
        <pt x="59" y="194" on="0"/>
        <pt x="51" y="214" on="0"/>
        <pt x="49" y="237" on="0"/>
      </contour>
    </TTGlyph>
    <TTGlyph name="c" xMin="16" yMin="-1" xMax="322" yMax="468">
      <contour>
        <pt x="16" y="145" on="1"/>
        <pt x="16" y="155" on="0"/>
        <pt x="22" y="210" on="0"/>
        <pt x="33" y="282" on="0"/>
        <pt x="53" y="360" on="0"/>
        <pt x="80" y="426" on="0"/>
        <pt x="115" y="468" on="0"/>
        <pt x="138" y="468" on="1"/>
        <pt x="129" y="440" on="0"/>
        <pt x="100" y="364" on="0"/>
        <pt x="74" y="281" on="0"/>
        <pt x="57" y="195" on="0"/>
        <pt x="64" y="120" on="0"/>
        <pt x="102" y="60" on="0"/>
        <pt x="143" y="44" on="1"/>
        <pt x="181" y="44" on="0"/>
        <pt x="237" y="78" on="0"/>
        <pt x="278" y="120" on="0"/>
        <pt x="309" y="154" on="0"/>
        <pt x="322" y="154" on="1"/>
        <pt x="322" y="116" on="0"/>
        <pt x="285" y="58" on="0"/>
        <pt x="228" y="19" on="0"/>
        <pt x="157" y="-1" on="0"/>
        <pt x="121" y="-1" on="1"/>
        <pt x="93" y="-1" on="0"/>
        <pt x="52" y="27" on="0"/>
        <pt x="27" y="70" on="0"/>
        <pt x="16" y="121" on="0"/>
      </contour>
    </TTGlyph>
    <TTGlyph name="cacute" xMin="16" yMin="-1" xMax="322" yMax="797">
      <component glyphName="c" x="0" y="0" flags="0x204"/>
      <component glyphName="acute" x="59" y="0" flags="0x4"/>
    </TTGlyph>
    <TTGlyph name="caron" xMin="89" yMin="611" xMax="409" yMax="779">
      <contour>
        <pt x="89" y="773" on="1"/>
        <pt x="93" y="779" on="0"/>
        <pt x="103" y="779" on="1"/>
        <pt x="107" y="779" on="0"/>
        <pt x="107" y="778" on="1"/>
        <pt x="130" y="722" on="0"/>
        <pt x="177" y="663" on="0"/>
        <pt x="225" y="646" on="0"/>
        <pt x="272" y="662" on="0"/>
        <pt x="316" y="695" on="0"/>
        <pt x="355" y="737" on="0"/>
        <pt x="371" y="756" on="1"/>
        <pt x="375" y="760" on="0"/>
        <pt x="380" y="762" on="0"/>
        <pt x="384" y="762" on="1"/>
        <pt x="397" y="762" on="0"/>
        <pt x="409" y="747" on="0"/>
        <pt x="409" y="740" on="1"/>
        <pt x="353" y="665" on="0"/>
        <pt x="238" y="611" on="0"/>
        <pt x="147" y="631" on="0"/>
        <pt x="89" y="712" on="0"/>
      </contour>
    </TTGlyph>
    <TTGlyph name="ccaron" xMin="16" yMin="-1" xMax="336" yMax="779">
      <component glyphName="c" x="0" y="0" flags="0x204"/>
      <component glyphName="caron" x="-73" y="0" flags="0x4"/>
    </TTGlyph>
    <TTGlyph name="ccedilla" xMin="16" yMin="-312" xMax="322" yMax="468">
      <contour>
        <pt x="141" y="-284" on="1"/>
        <pt x="141" y="-275" on="0"/>
        <pt x="143" y="-260" on="0"/>
        <pt x="148" y="-255" on="0"/>
        <pt x="155" y="-259" on="0"/>
        <pt x="159" y="-270" on="1"/>
        <pt x="173" y="-270" on="0"/>
        <pt x="211" y="-263" on="0"/>
        <pt x="248" y="-243" on="0"/>
        <pt x="274" y="-205" on="0"/>
        <pt x="274" y="-175" on="1"/>
        <pt x="274" y="-153" on="0"/>
        <pt x="251" y="-134" on="0"/>
        <pt x="217" y="-122" on="0"/>
        <pt x="175" y="-113" on="0"/>
        <pt x="141" y="-91" on="0"/>
        <pt x="118" y="-50" on="0"/>
        <pt x="118" y="-12" on="1"/>
        <pt x="117" y="-5" on="0"/>
        <pt x="117" y="-1" on="1"/>
        <pt x="91" y="0" on="0"/>
        <pt x="72" y="13" on="1"/>
        <pt x="52" y="27" on="0"/>
        <pt x="27" y="70" on="0"/>
        <pt x="16" y="121" on="0"/>
        <pt x="16" y="145" on="1"/>
        <pt x="16" y="155" on="0"/>
        <pt x="22" y="210" on="0"/>
        <pt x="33" y="282" on="0"/>
        <pt x="53" y="360" on="0"/>
        <pt x="80" y="426" on="0"/>
        <pt x="115" y="468" on="0"/>
        <pt x="138" y="468" on="1"/>
        <pt x="129" y="440" on="0"/>
        <pt x="100" y="364" on="0"/>
        <pt x="74" y="281" on="0"/>
        <pt x="57" y="195" on="0"/>
        <pt x="64" y="120" on="0"/>
        <pt x="102" y="60" on="0"/>
        <pt x="143" y="44" on="1"/>
        <pt x="181" y="44" on="0"/>
        <pt x="237" y="78" on="0"/>
        <pt x="278" y="120" on="0"/>
        <pt x="309" y="154" on="0"/>
        <pt x="322" y="154" on="1"/>
        <pt x="322" y="116" on="0"/>
        <pt x="285" y="58" on="0"/>
        <pt x="228" y="19" on="0"/>
        <pt x="192" y="9" on="1"/>
        <pt x="166" y="2" on="0"/>
        <pt x="139" y="0" on="1"/>
        <pt x="139" y="-7" on="0"/>
        <pt x="135" y="-14" on="1"/>
        <pt x="135" y="-38" on="0"/>
        <pt x="150" y="-59" on="0"/>
        <pt x="164" y="-66" on="1"/>
        <pt x="170" y="-69" on="0"/>
        <pt x="201" y="-84" on="0"/>
        <pt x="234" y="-98" on="0"/>
        <pt x="264" y="-112" on="0"/>
        <pt x="269" y="-113" on="1"/>
        <pt x="282" y="-125" on="0"/>
        <pt x="299" y="-152" on="0"/>
        <pt x="299" y="-176" on="1"/>
        <pt x="299" y="-210" on="0"/>
        <pt x="267" y="-261" on="0"/>
        <pt x="222" y="-295" on="0"/>
        <pt x="175" y="-312" on="0"/>
        <pt x="157" y="-312" on="1"/>
        <pt x="147" y="-312" on="0"/>
        <pt x="141" y="-302" on="0"/>
      </contour>
    </TTGlyph>
    <TTGlyph name="ccircumflex" xMin="16" yMin="-1" xMax="322" yMax="798">
      <component glyphName="c" x="0" y="0" flags="0x204"/>
      <component glyphName="circumflex" x="-27" y="-164" flags="0x4"/>
    </TTGlyph>
    <TTGlyph name="cdotaccent" xMin="16" yMin="-1" xMax="322" yMax="668">
      <component glyphName="c" x="0" y="0" flags="0x204"/>
      <component glyphName="dotaccent" x="11" y="0" flags="0x4"/>
    </TTGlyph>
    <TTGlyph name="cedilla" xMin="112" yMin="-275" xMax="296" yMax="71">
      <contour>
        <pt x="139" y="-247" on="1"/>
        <pt x="139" y="-238" on="0"/>
        <pt x="140" y="-223" on="0"/>
        <pt x="145" y="-218" on="0"/>
        <pt x="152" y="-222" on="0"/>
        <pt x="157" y="-233" on="1"/>
        <pt x="170" y="-233" on="0"/>
        <pt x="209" y="-226" on="0"/>
        <pt x="246" y="-206" on="0"/>
        <pt x="272" y="-168" on="0"/>
        <pt x="272" y="-138" on="1"/>
        <pt x="272" y="-116" on="0"/>
        <pt x="248" y="-97" on="0"/>
        <pt x="214" y="-86" on="0"/>
        <pt x="173" y="-77" on="0"/>
        <pt x="139" y="-54" on="0"/>
        <pt x="115" y="-13" on="0"/>
        <pt x="115" y="25" on="1"/>
        <pt x="112" y="57" on="0"/>
        <pt x="122" y="71" on="0"/>
        <pt x="133" y="59" on="0"/>
        <pt x="139" y="32" on="0"/>
        <pt x="132" y="23" on="1"/>
        <pt x="132" y="-1" on="0"/>
        <pt x="148" y="-22" on="0"/>
        <pt x="161" y="-29" on="1"/>
        <pt x="167" y="-32" on="0"/>
        <pt x="198" y="-47" on="0"/>
        <pt x="231" y="-61" on="0"/>
        <pt x="261" y="-75" on="0"/>
        <pt x="266" y="-77" on="1"/>
        <pt x="279" y="-88" on="0"/>
        <pt x="296" y="-115" on="0"/>
        <pt x="296" y="-139" on="1"/>
        <pt x="296" y="-173" on="0"/>
        <pt x="265" y="-224" on="0"/>
        <pt x="220" y="-258" on="0"/>
        <pt x="172" y="-275" on="0"/>
        <pt x="155" y="-275" on="1"/>
        <pt x="144" y="-275" on="0"/>
        <pt x="139" y="-265" on="0"/>
      </contour>
    </TTGlyph>
    <TTGlyph name="cent" xMin="29" yMin="-63" xMax="322" yMax="588">
      <contour>
        <pt x="127" y="541" on="1"/>
        <pt x="127" y="553" on="1"/>
        <pt x="127" y="561" on="0"/>
        <pt x="130" y="576" on="0"/>
        <pt x="138" y="588" on="0"/>
        <pt x="145" y="588" on="1"/>
        <pt x="150" y="588" on="0"/>
        <pt x="161" y="582" on="0"/>
        <pt x="163" y="575" on="1"/>
        <pt x="168" y="535" on="0"/>
        <pt x="173" y="467" on="0"/>
        <pt x="175" y="435" on="1"/>
        <pt x="193" y="456" on="0"/>
        <pt x="230" y="483" on="0"/>
        <pt x="247" y="483" on="1"/>
        <pt x="256" y="477" on="0"/>
        <pt x="251" y="450" on="0"/>
        <pt x="229" y="412" on="0"/>
        <pt x="197" y="364" on="0"/>
        <pt x="179" y="338" on="1"/>
        <pt x="180" y="324" on="0"/>
        <pt x="184" y="294" on="0"/>
        <pt x="185" y="278" on="1"/>
        <pt x="193" y="220" on="0"/>
        <pt x="217" y="115" on="0"/>
        <pt x="226" y="72" on="1"/>
        <pt x="243" y="84" on="0"/>
        <pt x="271" y="112" on="0"/>
        <pt x="294" y="138" on="0"/>
        <pt x="313" y="154" on="0"/>
        <pt x="322" y="154" on="1"/>
        <pt x="322" y="108" on="0"/>
        <pt x="272" y="44" on="0"/>
        <pt x="234" y="26" on="1"/>
        <pt x="240" y="-14" on="0"/>
        <pt x="232" y="-60" on="0"/>
        <pt x="210" y="-63" on="1"/>
        <pt x="202" y="-59" on="0"/>
        <pt x="193" y="-14" on="0"/>
        <pt x="190" y="8" on="1"/>
        <pt x="157" y="-1" on="0"/>
        <pt x="121" y="-1" on="1"/>
        <pt x="93" y="-1" on="0"/>
        <pt x="56" y="30" on="0"/>
        <pt x="36" y="76" on="0"/>
        <pt x="29" y="130" on="0"/>
        <pt x="29" y="154" on="1"/>
        <pt x="29" y="163" on="0"/>
        <pt x="47" y="216" on="0"/>
        <pt x="78" y="284" on="0"/>
        <pt x="120" y="361" on="0"/>
        <pt x="143" y="394" on="1"/>
        <pt x="128" y="517" on="1"/>
        <pt x="128" y="518" on="0"/>
        <pt x="127" y="536" on="0"/>
      </contour>
      <contour>
        <pt x="143" y="44" on="1"/>
        <pt x="166" y="44" on="0"/>
        <pt x="184" y="50" on="1"/>
        <pt x="154" y="302" on="1"/>
        <pt x="128" y="263" on="0"/>
        <pt x="84" y="183" on="0"/>
        <pt x="70" y="112" on="0"/>
        <pt x="97" y="58" on="0"/>
      </contour>
    </TTGlyph>
    <TTGlyph name="circumflex" xMin="58" yMin="706" xMax="347" yMax="962">
      <contour>
        <pt x="58" y="720" on="1"/>
        <pt x="65" y="733" on="0"/>
        <pt x="86" y="784" on="0"/>
        <pt x="109" y="839" on="0"/>
        <pt x="130" y="889" on="0"/>
        <pt x="136" y="904" on="1"/>
        <pt x="139" y="913" on="0"/>
        <pt x="142" y="933" on="0"/>
        <pt x="148" y="950" on="0"/>
        <pt x="158" y="962" on="0"/>
        <pt x="171" y="962" on="1"/>
        <pt x="177" y="962" on="1"/>
        <pt x="181" y="962" on="0"/>
        <pt x="182" y="961" on="1"/>
        <pt x="310" y="804" on="1"/>
        <pt x="334" y="810" on="0"/>
        <pt x="347" y="790" on="0"/>
        <pt x="347" y="776" on="1"/>
        <pt x="347" y="763" on="0"/>
        <pt x="333" y="733" on="0"/>
        <pt x="316" y="733" on="1"/>
        <pt x="294" y="747" on="0"/>
        <pt x="261" y="784" on="0"/>
        <pt x="234" y="824" on="0"/>
        <pt x="213" y="864" on="0"/>
        <pt x="204" y="880" on="1"/>
        <pt x="202" y="883" on="0"/>
        <pt x="184" y="892" on="0"/>
        <pt x="182" y="892" on="1"/>
        <pt x="180" y="892" on="0"/>
        <pt x="171" y="883" on="0"/>
        <pt x="170" y="880" on="1"/>
        <pt x="81" y="707" on="1"/>
        <pt x="81" y="706" on="0"/>
        <pt x="79" y="706" on="1"/>
        <pt x="76" y="706" on="1"/>
        <pt x="64" y="706" on="0"/>
      </contour>
    </TTGlyph>
</ttFont>
